<?xml version="1.0" encoding="utf-8"?>
<!DOCTYPE svg PUBLIC "-//W3C//DTD SVG 1.1//EN" "http://www.w3.org/Graphics/SVG/1.1/DTD/svg11.dtd">
<svg
	version="1.1"
	id="Layer_1"
	xmlns="http://www.w3.org/2000/svg"
	xmlns:xlink="http://www.w3.org/1999/xlink"
	x="0px"
	y="0px"
	width="512px"
	height="512px"
	viewBox="0 0 512 512"
	enable-background="new 0 0 512 512"
	xml:space="preserve"
>
	<g id="Grid">
		<rect x="0" fill="none" stroke="#A9CCDB" stroke-miterlimit="10" width="512" height="512"/>
		<line fill="none" stroke="#A9CCDB" stroke-miterlimit="10" x1="0" y1="32" x2="512" y2="32"/>
		<line fill="none" stroke="#A9CCDB" stroke-miterlimit="10" x1="0" y1="64" x2="512" y2="64"/>
		<line fill="none" stroke="#A9CCDB" stroke-miterlimit="10" x1="0" y1="96" x2="512" y2="96"/>
		<line fill="none" stroke="#A9CCDB" stroke-miterlimit="10" x1="0" y1="128" x2="512" y2="128"/>
		<line fill="none" stroke="#A9CCDB" stroke-miterlimit="10" x1="0" y1="160" x2="512" y2="160"/>
		<line fill="none" stroke="#A9CCDB" stroke-miterlimit="10" x1="0" y1="192" x2="512" y2="192"/>
		<line fill="none" stroke="#A9CCDB" stroke-miterlimit="10" x1="0" y1="224" x2="512" y2="224"/>
		<line fill="none" stroke="#A9CCDB" stroke-miterlimit="10" x1="0" y1="256" x2="512" y2="256"/>
		<line fill="none" stroke="#A9CCDB" stroke-miterlimit="10" x1="0" y1="288" x2="512" y2="288"/>
		<line fill="none" stroke="#A9CCDB" stroke-miterlimit="10" x1="0" y1="320" x2="512" y2="320"/>
		<line fill="none" stroke="#A9CCDB" stroke-miterlimit="10" x1="0" y1="352" x2="512" y2="352"/>
		<line fill="none" stroke="#A9CCDB" stroke-miterlimit="10" x1="0" y1="384" x2="512" y2="384"/>
		<line fill="none" stroke="#A9CCDB" stroke-miterlimit="10" x1="0" y1="416" x2="512" y2="416"/>
		<line fill="none" stroke="#FF0000" stroke-miterlimit="10" x1="0" y1="448" x2="512" y2="448"/>
		<line fill="none" stroke="#A9CCDB" stroke-miterlimit="10" x1="0" y1="480" x2="512" y2="480"/>
		<line fill="none" stroke="#A9CCDB" stroke-miterlimit="10" x1="32" y1="0" x2="32" y2="512"/>
		<line fill="none" stroke="#A9CCDB" stroke-miterlimit="10" x1="64" y1="0" x2="64" y2="512"/>
		<line fill="none" stroke="#A9CCDB" stroke-miterlimit="10" x1="96" y1="0" x2="96" y2="512"/>
		<line fill="none" stroke="#A9CCDB" stroke-miterlimit="10" x1="128" y1="0" x2="128" y2="512"/>
		<line fill="none" stroke="#A9CCDB" stroke-miterlimit="10" x1="160" y1="0" x2="160" y2="512"/>
		<line fill="none" stroke="#A9CCDB" stroke-miterlimit="10" x1="192" y1="0" x2="192" y2="512"/>
		<line fill="none" stroke="#A9CCDB" stroke-miterlimit="10" x1="224" y1="0" x2="224" y2="512"/>
		<line fill="none" stroke="#A9CCDB" stroke-miterlimit="10" x1="256" y1="0" x2="256" y2="512"/>
		<line fill="none" stroke="#A9CCDB" stroke-miterlimit="10" x1="288" y1="0" x2="288" y2="512"/>
		<line fill="none" stroke="#A9CCDB" stroke-miterlimit="10" x1="320" y1="0" x2="320" y2="512"/>
		<line fill="none" stroke="#A9CCDB" stroke-miterlimit="10" x1="352" y1="0" x2="352" y2="512"/>
		<line fill="none" stroke="#A9CCDB" stroke-miterlimit="10" x1="384" y1="0" x2="384" y2="512"/>
		<line fill="none" stroke="#A9CCDB" stroke-miterlimit="10" x1="416" y1="0" x2="416" y2="512"/>
		<line fill="none" stroke="#A9CCDB" stroke-miterlimit="10" x1="448" y1="0" x2="448" y2="512"/>
		<line fill="none" stroke="#A9CCDB" stroke-miterlimit="10" x1="480" y1="0" x2="480" y2="512"/>
	</g>
	<path d="M31.246 112.246c0 -9.585 7.772 -17.356 17.356 -17.356h51.746c9.584 0 17.355 7.771 17.355 17.356 c0 9.584 -7.771 17.355 -17.355 17.355H48.602C39.018 129.602 31.246 121.831 31.246 112.246zM48.602 225.06h51.746 c9.584 0 17.355 -7.771 17.355 -17.355c0 -9.585 -7.771 -17.356 -17.355 -17.356H48.602c-9.584 0 -17.356 7.771 -17.356 17.356 C31.246 217.289 39.018 225.06 48.602 225.06zM48.602 320.518h51.746c9.584 0 17.355 -7.771 17.355 -17.356 s-7.771 -17.355 -17.355 -17.355H48.602c-9.584 0 -17.356 7.771 -17.356 17.355S39.018 320.518 48.602 320.518zM117.703 398.619 c0 -9.585 -7.771 -17.355 -17.355 -17.355H48.602c-9.584 0 -17.356 7.771 -17.356 17.355c0 9.584 7.772 17.355 17.356 17.355h51.746 C109.932 415.975 117.703 408.203 117.703 398.619zM479.5 42.822v425.221c0 23.966 -19.424 43.39 -43.39 43.39H107.67 c-23.966 0 -43.39 -19.424 -43.39 -43.39v-3.797v-30.559v-0.356h51.797c19.136 0 18.711 -15.576 18.711 -34.712 s0.425 -34.712 -18.711 -34.712H64.28v-8.322v-17.355v-0.356h51.797c19.136 0 18.711 -15.575 18.711 -34.712 c0 -19.135 0.425 -34.711 -18.711 -34.711H64.28v-8.322v-17.357v-0.355h51.797c19.136 0 18.711 -15.577 18.711 -34.711 c0 -19.136 0.425 -34.712 -18.711 -34.712H64.28v-8.322v-17.356v-0.356h51.797c19.136 0 18.711 -15.576 18.711 -34.712 s0.425 -34.712 -18.711 -34.712H64.28v-8.322V55.297V42.822c0 -23.966 19.424 -43.39 43.39 -43.39h328.44 C460.076 -0.56799999999998 479.5 18.856 479.5 42.822zM415.5 345.026c0 -7.293 -19.101 -17.988 -48.5 -28.483 c-29.308 -10.457 -38.675 -17.097 -38.675 -35.985c0 -11.341 8.949 -7.635 12.877 -28.403c1.63 -8.612 9.534 -0.141 11.049 -19.808 c0 -7.834 -4.314 -9.785 -4.314 -9.785s2.191 -13.777 3.051 -22.704c1.062 -11.122 -6.562 -39.855 -47.237 -39.855s-48.306 28.733 -47.237 39.855 c0.859 8.927 3.051 22.704 3.051 22.704s-4.314 1.951 -4.314 9.785c1.51 19.667 9.414 11.195 11.044 19.808 c3.933 20.769 12.877 17.062 12.877 28.403c0 18.889 -9.362 25.528 -38.669 35.985c-29.4 10.495 -48.5 21.19 -48.5 28.483 c0 7.289 0 38.509 0 38.509h111.75H415.5C415.5 383.535 415.5 352.315 415.5 345.026z"/>
</svg>
