<?xml version="1.0" encoding="utf-8"?>
<!DOCTYPE svg PUBLIC "-//W3C//DTD SVG 1.1//EN" "http://www.w3.org/Graphics/SVG/1.1/DTD/svg11.dtd">
<svg
	version="1.1"
	id="Layer_1"
	xmlns="http://www.w3.org/2000/svg"
	xmlns:xlink="http://www.w3.org/1999/xlink"
	x="0px"
	y="0px"
	width="512px"
	height="512px"
	viewBox="0 0 512 512"
	enable-background="new 0 0 512 512"
	xml:space="preserve"
>
	<g id="Grid">
		<rect x="0" fill="none" stroke="#A9CCDB" stroke-miterlimit="10" width="512" height="512"/>
		<line fill="none" stroke="#A9CCDB" stroke-miterlimit="10" x1="0" y1="32" x2="512" y2="32"/>
		<line fill="none" stroke="#A9CCDB" stroke-miterlimit="10" x1="0" y1="64" x2="512" y2="64"/>
		<line fill="none" stroke="#A9CCDB" stroke-miterlimit="10" x1="0" y1="96" x2="512" y2="96"/>
		<line fill="none" stroke="#A9CCDB" stroke-miterlimit="10" x1="0" y1="128" x2="512" y2="128"/>
		<line fill="none" stroke="#A9CCDB" stroke-miterlimit="10" x1="0" y1="160" x2="512" y2="160"/>
		<line fill="none" stroke="#A9CCDB" stroke-miterlimit="10" x1="0" y1="192" x2="512" y2="192"/>
		<line fill="none" stroke="#A9CCDB" stroke-miterlimit="10" x1="0" y1="224" x2="512" y2="224"/>
		<line fill="none" stroke="#A9CCDB" stroke-miterlimit="10" x1="0" y1="256" x2="512" y2="256"/>
		<line fill="none" stroke="#A9CCDB" stroke-miterlimit="10" x1="0" y1="288" x2="512" y2="288"/>
		<line fill="none" stroke="#A9CCDB" stroke-miterlimit="10" x1="0" y1="320" x2="512" y2="320"/>
		<line fill="none" stroke="#A9CCDB" stroke-miterlimit="10" x1="0" y1="352" x2="512" y2="352"/>
		<line fill="none" stroke="#A9CCDB" stroke-miterlimit="10" x1="0" y1="384" x2="512" y2="384"/>
		<line fill="none" stroke="#A9CCDB" stroke-miterlimit="10" x1="0" y1="416" x2="512" y2="416"/>
		<line fill="none" stroke="#FF0000" stroke-miterlimit="10" x1="0" y1="448" x2="512" y2="448"/>
		<line fill="none" stroke="#A9CCDB" stroke-miterlimit="10" x1="0" y1="480" x2="512" y2="480"/>
		<line fill="none" stroke="#A9CCDB" stroke-miterlimit="10" x1="32" y1="0" x2="32" y2="512"/>
		<line fill="none" stroke="#A9CCDB" stroke-miterlimit="10" x1="64" y1="0" x2="64" y2="512"/>
		<line fill="none" stroke="#A9CCDB" stroke-miterlimit="10" x1="96" y1="0" x2="96" y2="512"/>
		<line fill="none" stroke="#A9CCDB" stroke-miterlimit="10" x1="128" y1="0" x2="128" y2="512"/>
		<line fill="none" stroke="#A9CCDB" stroke-miterlimit="10" x1="160" y1="0" x2="160" y2="512"/>
		<line fill="none" stroke="#A9CCDB" stroke-miterlimit="10" x1="192" y1="0" x2="192" y2="512"/>
		<line fill="none" stroke="#A9CCDB" stroke-miterlimit="10" x1="224" y1="0" x2="224" y2="512"/>
		<line fill="none" stroke="#A9CCDB" stroke-miterlimit="10" x1="256" y1="0" x2="256" y2="512"/>
		<line fill="none" stroke="#A9CCDB" stroke-miterlimit="10" x1="288" y1="0" x2="288" y2="512"/>
		<line fill="none" stroke="#A9CCDB" stroke-miterlimit="10" x1="320" y1="0" x2="320" y2="512"/>
		<line fill="none" stroke="#A9CCDB" stroke-miterlimit="10" x1="352" y1="0" x2="352" y2="512"/>
		<line fill="none" stroke="#A9CCDB" stroke-miterlimit="10" x1="384" y1="0" x2="384" y2="512"/>
		<line fill="none" stroke="#A9CCDB" stroke-miterlimit="10" x1="416" y1="0" x2="416" y2="512"/>
		<line fill="none" stroke="#A9CCDB" stroke-miterlimit="10" x1="448" y1="0" x2="448" y2="512"/>
		<line fill="none" stroke="#A9CCDB" stroke-miterlimit="10" x1="480" y1="0" x2="480" y2="512"/>
	</g>
	<path d="M19.537 126.834c0 -28.781 10.508 -57.436 28.14 -80.033c3.508 -4.515 7.14 -8.735 11.051 -12.695 C69.609 22.19 82.791 13.753 97.098 8.521c4.769 -1.744 9.664 -3.132 14.639 -4.174c48.301 -9.96 119.741 11.365 120.807 67.876 c1.066 6.397 -1.066 12.795 -3.199 19.193c-2.133 5.331 -4.265 10.662 -8.53 14.927C200.556 65.826 156.84 27.44 108.394 42.716 c-4.458 1.308 -8.787 3.01 -12.915 5.106C83.096 54.11 72.511 63.939 65.616 77.297c-2.751 4.591 -5.21 9.525 -7.32 14.762 c-4.22 10.474 -7.045 22.161 -8.056 34.775c-2.284 28.517 17.446 57.915 27.21 57.915c5.584 0 34.892 -18.841 76.757 -18.841 c34.189 0 60.701 15.353 60.701 39.078c0 23.72 -28.608 49.366 -64.194 49.366h-0.694c-38.378 0 -62.102 -26.342 -66.986 -26.342 c-5.584 0 -8.374 7.675 -9.069 8.375c-12.562 22.33 -18.842 47.449 -18.842 72.565c0 59.309 40.47 143.039 174.44 149.324h12.561 c113.041 0 145.833 -72.569 145.833 -120.712c0 -46.754 -28.611 -83.735 -72.57 -83.735c-41.168 0 -75.358 32.795 -75.358 66.985 c0 22.327 16.051 43.26 40.468 43.26c9.076 0 25.121 -4.883 25.121 -11.861c0 -7.674 -15.35 -2.786 -25.814 -16.746 c-2.791 -4.187 -4.883 -9.767 -4.883 -15.35c0 -13.258 11.16 -25.12 27.213 -25.12c20.234 0 40.467 16.745 40.467 40.469 c0 27.212 -25.816 53.032 -60.004 53.032c-37.677 0 -67.686 -31.398 -67.686 -70.479c0 -36.979 25.82 -71.867 67.686 -92.801 c58.613 -29.307 124.199 -23.025 172.346 -43.958c29.307 -13.256 60.008 -40.473 60.008 -83.035c0 -43.959 -32.795 -74.659 -66.287 -74.659 c-6.281 0 -20.934 1.396 -20.934 6.279c0 3.488 11.166 8.371 11.166 24.421c0 15.354 -11.863 28.606 -28.607 28.606 c-18.143 0 -31.398 -16.044 -31.398 -34.186c-0.002 -30.003 29.301 -51.632 61.4 -51.632c49.539 0 103.268 47.449 103.268 116.525 c0 75.36 -67.68 135.367 -145.834 136.761c-5.578 0 -10.465 0 -10.465 5.583c0 4.883 23.725 30.004 23.725 78.147v1.395 c0 93.5 -93.5 176.536 -207.936 176.536C86.522 512 0 424.775 0 324.997c0 -73.263 44.657 -113.039 47.448 -117.92 c0.696 -1.396 1.397 -3.487 1.397 -4.883v-0.7C48.845 193.819 19.537 172.887 19.537 126.834zM190.49 206.377 c0 -6.975 -4.884 -17.44 -30.002 -17.44c-34.891 0 -58.615 9.766 -58.615 16.049c0 2.091 1.395 3.488 2.095 4.183 c16.746 12.562 34.191 22.854 57.215 22.854C175.141 232.023 190.49 219.635 190.49 206.377z"/>
</svg>
