<?xml version="1.0" encoding="utf-8"?>
<!DOCTYPE svg PUBLIC "-//W3C//DTD SVG 1.1//EN" "http://www.w3.org/Graphics/SVG/1.1/DTD/svg11.dtd">
<svg
	version="1.1"
	id="Layer_1"
	xmlns="http://www.w3.org/2000/svg"
	xmlns:xlink="http://www.w3.org/1999/xlink"
	x="0px"
	y="0px"
	width="512px"
	height="512px"
	viewBox="0 0 512 512"
	enable-background="new 0 0 512 512"
	xml:space="preserve"
>
	<g id="Grid">
		<rect x="0" fill="none" stroke="#A9CCDB" stroke-miterlimit="10" width="512" height="512"/>
		<line fill="none" stroke="#A9CCDB" stroke-miterlimit="10" x1="0" y1="32" x2="512" y2="32"/>
		<line fill="none" stroke="#A9CCDB" stroke-miterlimit="10" x1="0" y1="64" x2="512" y2="64"/>
		<line fill="none" stroke="#A9CCDB" stroke-miterlimit="10" x1="0" y1="96" x2="512" y2="96"/>
		<line fill="none" stroke="#A9CCDB" stroke-miterlimit="10" x1="0" y1="128" x2="512" y2="128"/>
		<line fill="none" stroke="#A9CCDB" stroke-miterlimit="10" x1="0" y1="160" x2="512" y2="160"/>
		<line fill="none" stroke="#A9CCDB" stroke-miterlimit="10" x1="0" y1="192" x2="512" y2="192"/>
		<line fill="none" stroke="#A9CCDB" stroke-miterlimit="10" x1="0" y1="224" x2="512" y2="224"/>
		<line fill="none" stroke="#A9CCDB" stroke-miterlimit="10" x1="0" y1="256" x2="512" y2="256"/>
		<line fill="none" stroke="#A9CCDB" stroke-miterlimit="10" x1="0" y1="288" x2="512" y2="288"/>
		<line fill="none" stroke="#A9CCDB" stroke-miterlimit="10" x1="0" y1="320" x2="512" y2="320"/>
		<line fill="none" stroke="#A9CCDB" stroke-miterlimit="10" x1="0" y1="352" x2="512" y2="352"/>
		<line fill="none" stroke="#A9CCDB" stroke-miterlimit="10" x1="0" y1="384" x2="512" y2="384"/>
		<line fill="none" stroke="#A9CCDB" stroke-miterlimit="10" x1="0" y1="416" x2="512" y2="416"/>
		<line fill="none" stroke="#FF0000" stroke-miterlimit="10" x1="0" y1="448" x2="512" y2="448"/>
		<line fill="none" stroke="#A9CCDB" stroke-miterlimit="10" x1="0" y1="480" x2="512" y2="480"/>
		<line fill="none" stroke="#A9CCDB" stroke-miterlimit="10" x1="32" y1="0" x2="32" y2="512"/>
		<line fill="none" stroke="#A9CCDB" stroke-miterlimit="10" x1="64" y1="0" x2="64" y2="512"/>
		<line fill="none" stroke="#A9CCDB" stroke-miterlimit="10" x1="96" y1="0" x2="96" y2="512"/>
		<line fill="none" stroke="#A9CCDB" stroke-miterlimit="10" x1="128" y1="0" x2="128" y2="512"/>
		<line fill="none" stroke="#A9CCDB" stroke-miterlimit="10" x1="160" y1="0" x2="160" y2="512"/>
		<line fill="none" stroke="#A9CCDB" stroke-miterlimit="10" x1="192" y1="0" x2="192" y2="512"/>
		<line fill="none" stroke="#A9CCDB" stroke-miterlimit="10" x1="224" y1="0" x2="224" y2="512"/>
		<line fill="none" stroke="#A9CCDB" stroke-miterlimit="10" x1="256" y1="0" x2="256" y2="512"/>
		<line fill="none" stroke="#A9CCDB" stroke-miterlimit="10" x1="288" y1="0" x2="288" y2="512"/>
		<line fill="none" stroke="#A9CCDB" stroke-miterlimit="10" x1="320" y1="0" x2="320" y2="512"/>
		<line fill="none" stroke="#A9CCDB" stroke-miterlimit="10" x1="352" y1="0" x2="352" y2="512"/>
		<line fill="none" stroke="#A9CCDB" stroke-miterlimit="10" x1="384" y1="0" x2="384" y2="512"/>
		<line fill="none" stroke="#A9CCDB" stroke-miterlimit="10" x1="416" y1="0" x2="416" y2="512"/>
		<line fill="none" stroke="#A9CCDB" stroke-miterlimit="10" x1="448" y1="0" x2="448" y2="512"/>
		<line fill="none" stroke="#A9CCDB" stroke-miterlimit="10" x1="480" y1="0" x2="480" y2="512"/>
	</g>
	<path d="M252.578 -0.411C111.202 1.475 -1.872 117.611 0.024 258.987c1.885 141.365 118.022 254.45 259.398 252.553 c141.365 -1.884 254.45 -118.021 252.555 -259.396C510.091 110.768 393.934 -2.307 252.578 -0.411zM258.703 457.654 C147.087 459.146 55.4 369.873 53.91 258.258C52.42 146.653 141.692 54.965 253.297 53.476 c111.615 -1.49 203.294 87.771 204.794 199.387C459.58 364.478 370.308 456.154 258.703 457.654zM193.359 298.936 c-10.812 0 -19.001 -3.938 -24.542 -11.834c-5.552 -7.885 -8.312 -18.396 -8.312 -31.542c0 -28.906 10.948 -43.365 32.855 -43.365 c4.375 0 9.125 1.459 14.229 4.375c5.104 2.928 9.417 8.042 12.928 15.334l32.854 -17.084c-13.136 -23.656 -34.907 -35.49 -65.282 -35.49 c-20.74 0 -37.886 6.865 -51.458 20.594c-13.583 13.73 -20.386 32.271 -20.386 55.636c0 23.948 6.729 42.646 20.156 56.083 c13.427 13.438 31.115 20.146 53.022 20.146c13.719 0 26.281 -3.438 37.666 -10.292c11.386 -6.865 20.303 -16.281 26.73 -28.261 l-30.24 -15.333C217.734 291.925 207.661 298.936 193.359 298.936zM334.86 298.936c-10.812 0 -18.99 -3.938 -24.531 -11.834 c-5.553 -7.885 -8.324 -18.396 -8.324 -31.542c0 -28.906 10.949 -43.365 32.855 -43.365c4.666 0 9.562 1.459 14.666 4.375 c5.115 2.928 9.428 8.042 12.938 15.334l32.407 -17.084c-12.854 -23.656 -34.459 -35.49 -64.834 -35.49 c-20.739 0 -37.896 6.865 -51.479 20.594c-13.573 13.73 -20.354 32.271 -20.354 55.636c0 23.948 6.636 42.646 19.927 56.083 c13.281 13.438 31.031 20.146 53.23 20.146c13.427 0 25.844 -3.438 37.229 -10.292c11.386 -6.865 20.438 -16.281 27.167 -28.261 l-30.667 -15.333C359.245 291.925 349.162 298.936 334.86 298.936z"/>
</svg>
