<?xml version="1.0" encoding="utf-8"?>
<!DOCTYPE svg PUBLIC "-//W3C//DTD SVG 1.1//EN" "http://www.w3.org/Graphics/SVG/1.1/DTD/svg11.dtd">
<svg
	version="1.1"
	id="Layer_1"
	xmlns="http://www.w3.org/2000/svg"
	xmlns:xlink="http://www.w3.org/1999/xlink"
	x="0px"
	y="0px"
	width="512px"
	height="512px"
	viewBox="0 0 512 512"
	enable-background="new 0 0 512 512"
	xml:space="preserve"
>
	<g id="Grid">
		<rect x="0" fill="none" stroke="#A9CCDB" stroke-miterlimit="10" width="512" height="512"/>
		<line fill="none" stroke="#A9CCDB" stroke-miterlimit="10" x1="0" y1="32" x2="512" y2="32"/>
		<line fill="none" stroke="#A9CCDB" stroke-miterlimit="10" x1="0" y1="64" x2="512" y2="64"/>
		<line fill="none" stroke="#A9CCDB" stroke-miterlimit="10" x1="0" y1="96" x2="512" y2="96"/>
		<line fill="none" stroke="#A9CCDB" stroke-miterlimit="10" x1="0" y1="128" x2="512" y2="128"/>
		<line fill="none" stroke="#A9CCDB" stroke-miterlimit="10" x1="0" y1="160" x2="512" y2="160"/>
		<line fill="none" stroke="#A9CCDB" stroke-miterlimit="10" x1="0" y1="192" x2="512" y2="192"/>
		<line fill="none" stroke="#A9CCDB" stroke-miterlimit="10" x1="0" y1="224" x2="512" y2="224"/>
		<line fill="none" stroke="#A9CCDB" stroke-miterlimit="10" x1="0" y1="256" x2="512" y2="256"/>
		<line fill="none" stroke="#A9CCDB" stroke-miterlimit="10" x1="0" y1="288" x2="512" y2="288"/>
		<line fill="none" stroke="#A9CCDB" stroke-miterlimit="10" x1="0" y1="320" x2="512" y2="320"/>
		<line fill="none" stroke="#A9CCDB" stroke-miterlimit="10" x1="0" y1="352" x2="512" y2="352"/>
		<line fill="none" stroke="#A9CCDB" stroke-miterlimit="10" x1="0" y1="384" x2="512" y2="384"/>
		<line fill="none" stroke="#A9CCDB" stroke-miterlimit="10" x1="0" y1="416" x2="512" y2="416"/>
		<line fill="none" stroke="#FF0000" stroke-miterlimit="10" x1="0" y1="448" x2="512" y2="448"/>
		<line fill="none" stroke="#A9CCDB" stroke-miterlimit="10" x1="0" y1="480" x2="512" y2="480"/>
		<line fill="none" stroke="#A9CCDB" stroke-miterlimit="10" x1="32" y1="0" x2="32" y2="512"/>
		<line fill="none" stroke="#A9CCDB" stroke-miterlimit="10" x1="64" y1="0" x2="64" y2="512"/>
		<line fill="none" stroke="#A9CCDB" stroke-miterlimit="10" x1="96" y1="0" x2="96" y2="512"/>
		<line fill="none" stroke="#A9CCDB" stroke-miterlimit="10" x1="128" y1="0" x2="128" y2="512"/>
		<line fill="none" stroke="#A9CCDB" stroke-miterlimit="10" x1="160" y1="0" x2="160" y2="512"/>
		<line fill="none" stroke="#A9CCDB" stroke-miterlimit="10" x1="192" y1="0" x2="192" y2="512"/>
		<line fill="none" stroke="#A9CCDB" stroke-miterlimit="10" x1="224" y1="0" x2="224" y2="512"/>
		<line fill="none" stroke="#A9CCDB" stroke-miterlimit="10" x1="256" y1="0" x2="256" y2="512"/>
		<line fill="none" stroke="#A9CCDB" stroke-miterlimit="10" x1="288" y1="0" x2="288" y2="512"/>
		<line fill="none" stroke="#A9CCDB" stroke-miterlimit="10" x1="320" y1="0" x2="320" y2="512"/>
		<line fill="none" stroke="#A9CCDB" stroke-miterlimit="10" x1="352" y1="0" x2="352" y2="512"/>
		<line fill="none" stroke="#A9CCDB" stroke-miterlimit="10" x1="384" y1="0" x2="384" y2="512"/>
		<line fill="none" stroke="#A9CCDB" stroke-miterlimit="10" x1="416" y1="0" x2="416" y2="512"/>
		<line fill="none" stroke="#A9CCDB" stroke-miterlimit="10" x1="448" y1="0" x2="448" y2="512"/>
		<line fill="none" stroke="#A9CCDB" stroke-miterlimit="10" x1="480" y1="0" x2="480" y2="512"/>
	</g>
	<path d="M415.632 195.408c-0.432 22.192 -5.376 43.12 -14.128 62.224C447.632 265.312 448 302.88 448 320 c0 15.872 0 64 -63.936 64H320c-41.68 0 -79.008 20.128 -102.368 51.248C202.128 423.504 192 404.88 192 384v-64c0 -12.656 2.256 -22.624 5.744 -30.848 C195.872 288.816 194 288 192 288H131.248c-2.064 9.904 -3.184 20.496 -3.184 32v64c0 70.688 57.248 128 127.936 128c0 -35.376 28.624 -64 64 -64h64.064 C448 448 512 412 512 320C512 241.712 467.504 205.44 415.632 195.408zM256 64c23.872 0 64 8.32 64 64v64c0 20.944 -10.128 39.536 -25.632 51.216C271.008 212.16 233.744 192 192 192H128.064 C64 192 64 143.84 64 128c0 -19.12 0 -64 64.064 -64H256 M256 0H128.064C64 0 0 34 0 128c0 92 64 128 128.064 128H192c35.376 0 64 28.688 64 64 c70.688 0 128.064 -57.312 128.064 -128V128C384.064 39.664 320 0 256 0L256 0z"/>
</svg>
