<?xml version="1.0" encoding="utf-8"?>
<!DOCTYPE svg PUBLIC "-//W3C//DTD SVG 1.1//EN" "http://www.w3.org/Graphics/SVG/1.1/DTD/svg11.dtd">
<svg
	version="1.1"
	id="Layer_1"
	xmlns="http://www.w3.org/2000/svg"
	xmlns:xlink="http://www.w3.org/1999/xlink"
	x="0px"
	y="0px"
	width="512px"
	height="512px"
	viewBox="0 0 512 512"
	enable-background="new 0 0 512 512"
	xml:space="preserve"
>
	<g id="Grid">
		<rect x="0" fill="none" stroke="#A9CCDB" stroke-miterlimit="10" width="512" height="512"/>
		<line fill="none" stroke="#A9CCDB" stroke-miterlimit="10" x1="0" y1="32" x2="512" y2="32"/>
		<line fill="none" stroke="#A9CCDB" stroke-miterlimit="10" x1="0" y1="64" x2="512" y2="64"/>
		<line fill="none" stroke="#A9CCDB" stroke-miterlimit="10" x1="0" y1="96" x2="512" y2="96"/>
		<line fill="none" stroke="#A9CCDB" stroke-miterlimit="10" x1="0" y1="128" x2="512" y2="128"/>
		<line fill="none" stroke="#A9CCDB" stroke-miterlimit="10" x1="0" y1="160" x2="512" y2="160"/>
		<line fill="none" stroke="#A9CCDB" stroke-miterlimit="10" x1="0" y1="192" x2="512" y2="192"/>
		<line fill="none" stroke="#A9CCDB" stroke-miterlimit="10" x1="0" y1="224" x2="512" y2="224"/>
		<line fill="none" stroke="#A9CCDB" stroke-miterlimit="10" x1="0" y1="256" x2="512" y2="256"/>
		<line fill="none" stroke="#A9CCDB" stroke-miterlimit="10" x1="0" y1="288" x2="512" y2="288"/>
		<line fill="none" stroke="#A9CCDB" stroke-miterlimit="10" x1="0" y1="320" x2="512" y2="320"/>
		<line fill="none" stroke="#A9CCDB" stroke-miterlimit="10" x1="0" y1="352" x2="512" y2="352"/>
		<line fill="none" stroke="#A9CCDB" stroke-miterlimit="10" x1="0" y1="384" x2="512" y2="384"/>
		<line fill="none" stroke="#A9CCDB" stroke-miterlimit="10" x1="0" y1="416" x2="512" y2="416"/>
		<line fill="none" stroke="#FF0000" stroke-miterlimit="10" x1="0" y1="448" x2="512" y2="448"/>
		<line fill="none" stroke="#A9CCDB" stroke-miterlimit="10" x1="0" y1="480" x2="512" y2="480"/>
		<line fill="none" stroke="#A9CCDB" stroke-miterlimit="10" x1="32" y1="0" x2="32" y2="512"/>
		<line fill="none" stroke="#A9CCDB" stroke-miterlimit="10" x1="64" y1="0" x2="64" y2="512"/>
		<line fill="none" stroke="#A9CCDB" stroke-miterlimit="10" x1="96" y1="0" x2="96" y2="512"/>
		<line fill="none" stroke="#A9CCDB" stroke-miterlimit="10" x1="128" y1="0" x2="128" y2="512"/>
		<line fill="none" stroke="#A9CCDB" stroke-miterlimit="10" x1="160" y1="0" x2="160" y2="512"/>
		<line fill="none" stroke="#A9CCDB" stroke-miterlimit="10" x1="192" y1="0" x2="192" y2="512"/>
		<line fill="none" stroke="#A9CCDB" stroke-miterlimit="10" x1="224" y1="0" x2="224" y2="512"/>
		<line fill="none" stroke="#A9CCDB" stroke-miterlimit="10" x1="256" y1="0" x2="256" y2="512"/>
		<line fill="none" stroke="#A9CCDB" stroke-miterlimit="10" x1="288" y1="0" x2="288" y2="512"/>
		<line fill="none" stroke="#A9CCDB" stroke-miterlimit="10" x1="320" y1="0" x2="320" y2="512"/>
		<line fill="none" stroke="#A9CCDB" stroke-miterlimit="10" x1="352" y1="0" x2="352" y2="512"/>
		<line fill="none" stroke="#A9CCDB" stroke-miterlimit="10" x1="384" y1="0" x2="384" y2="512"/>
		<line fill="none" stroke="#A9CCDB" stroke-miterlimit="10" x1="416" y1="0" x2="416" y2="512"/>
		<line fill="none" stroke="#A9CCDB" stroke-miterlimit="10" x1="448" y1="0" x2="448" y2="512"/>
		<line fill="none" stroke="#A9CCDB" stroke-miterlimit="10" x1="480" y1="0" x2="480" y2="512"/>
	</g>
	<path d="M241.796 171.239C271.812 125.862 189.292 77.084 246.29 37c-47.413 3.133 -55.54 32.142 -43.587 54.792 C214.05 113.29 241.753 128.281 241.796 171.239zM206.775 158.811c3.423 -0.113 6.876 -0.196 10.395 -0.213c0.189 -0.001 0.378 -0.001 0.567 -0.002 c0.189 -0.001 0.377 -0.001 0.567 -0.002c0.188 0 0.378 -0.001 0.565 -0.001c0.189 0 0.377 0 0.564 0c5.266 0 10.423 0.115 15.473 0.327 c-1.991 -13.311 -7.123 -23.238 -13.253 -31.905c-0.656 -0.002 -1.304 -0.017 -1.961 -0.017c-0.226 0 -0.451 0 -0.676 0s-0.449 0 -0.675 0.001 c-0.224 0.001 -0.448 0.001 -0.674 0.002c-0.226 0 -0.451 0.001 -0.677 0.002c-10.311 0.054 -20.407 0.437 -30.252 1.087 c3.98 7.214 8.838 14.286 13.643 21.276C202.533 152.497 204.694 155.645 206.775 158.811zM214.012 206.496c13.465 -38.02 -58.024 -75.362 -39.121 -125c-39.617 11.704 -20.3 56.63 -3.236 74.846 C183.974 169.496 206.284 175.599 214.012 206.496zM401.592 222.077c0.331 -14.829 -0.369 -26.305 -1.387 -32.746c-1.419 -9.058 -7.699 -17.537 -17.763 -25.134 c-9.937 -7.5 -23.586 -14.16 -39.958 -19.689c-16.219 -5.476 -35.167 -9.863 -55.938 -12.872c-11.344 -1.644 -23.274 -2.864 -35.626 -3.646 c3.335 10.478 5.006 21.318 2.29 32.173c7.817 0.729 15.33 1.674 22.466 2.815c16.965 2.713 31.968 6.458 44.508 10.554 c12.627 4.125 22.771 8.61 29.861 12.747c7.141 4.166 11.179 7.973 11.521 10.687c0.332 2.745 -2.843 4.693 -9.174 9.102 c-6.376 4.44 -15.966 9.354 -28.4 13.966c-12.529 4.646 -27.936 8.983 -45.788 12.201c-17.944 3.233 -38.295 5.327 -60.517 5.456 c-0.16 0.002 -0.32 0.003 -0.48 0.003c-0.161 0.001 -0.321 0.001 -0.482 0.002c-0.161 0 -0.321 0 -0.481 0 c-0.16 0 -0.32 0.001 -0.479 0.001c-21.956 0 -42.083 -1.927 -59.848 -4.987c-17.678 -3.043 -32.952 -7.199 -45.387 -11.682 c-12.345 -4.45 -21.879 -9.22 -28.229 -13.555c-6.305 -4.304 -9.48 -6.187 -9.171 -8.923c0.296 -2.735 4.356 -6.63 11.577 -10.921 c7.169 -4.261 17.444 -8.904 30.248 -13.197c12.711 -4.261 27.929 -8.18 45.142 -11.05c2.857 -0.477 5.791 -0.912 8.759 -1.328 c-0.537 -0.524 -1.064 -1.058 -1.58 -1.608c-6.715 -7.169 -12.838 -16.98 -16.799 -26.919c-0.196 -0.493 -0.393 -1.004 -0.588 -1.523 c-0.217 0.032 -0.44 0.06 -0.657 0.093c-21.059 3.183 -40.27 7.76 -56.701 13.428c-16.593 5.724 -30.414 12.583 -40.442 20.27 c-10.162 7.786 -16.459 16.442 -17.786 25.641c-1.366 9.291 -1.939 29.025 0.36 54.172c2.394 26.188 7.946 58.701 19.078 91.453 c11.698 34.416 29.535 69.026 55.869 95.728c27.342 27.722 63.143 46.211 108.373 46.211c0.103 0 0.204 0 0.305 0 s0.201 0 0.302 -0.001c0.101 0 0.201 0 0.302 -0.001c0.102 -0.001 0.202 -0.001 0.306 -0.002c45.474 -0.296 81.228 -19.104 108.355 -47.122 c15.771 -16.289 23.375 -28.458 33.393 -48.703c18.987 0.439 32.897 -0.171 44.446 -0.171c44.459 0 73.5 -52.041 73.5 -96.5 C478.892 243.109 444.565 223.76 401.592 222.077zM405.362 351.914c-7.295 0.701 -19.92 0.701 -30.824 0.814 c1.38 -3.76 2.698 -7.524 3.929 -11.289c9.384 -28.696 18.515 -63.178 21.057 -87.416c26.222 0.605 47.368 6.107 47.368 32.472 C446.892 313.239 431.982 349.355 405.362 351.914z"/>
</svg>
