<?xml version="1.0" encoding="utf-8"?>
<!DOCTYPE svg PUBLIC "-//W3C//DTD SVG 1.1//EN" "http://www.w3.org/Graphics/SVG/1.1/DTD/svg11.dtd">
<svg
	version="1.1"
	id="Layer_1"
	xmlns="http://www.w3.org/2000/svg"
	xmlns:xlink="http://www.w3.org/1999/xlink"
	x="0px"
	y="0px"
	width="512px"
	height="512px"
	viewBox="0 0 512 512"
	enable-background="new 0 0 512 512"
	xml:space="preserve"
>
	<g id="Grid">
		<rect x="0" fill="none" stroke="#A9CCDB" stroke-miterlimit="10" width="512" height="512"/>
		<line fill="none" stroke="#A9CCDB" stroke-miterlimit="10" x1="0" y1="32" x2="512" y2="32"/>
		<line fill="none" stroke="#A9CCDB" stroke-miterlimit="10" x1="0" y1="64" x2="512" y2="64"/>
		<line fill="none" stroke="#A9CCDB" stroke-miterlimit="10" x1="0" y1="96" x2="512" y2="96"/>
		<line fill="none" stroke="#A9CCDB" stroke-miterlimit="10" x1="0" y1="128" x2="512" y2="128"/>
		<line fill="none" stroke="#A9CCDB" stroke-miterlimit="10" x1="0" y1="160" x2="512" y2="160"/>
		<line fill="none" stroke="#A9CCDB" stroke-miterlimit="10" x1="0" y1="192" x2="512" y2="192"/>
		<line fill="none" stroke="#A9CCDB" stroke-miterlimit="10" x1="0" y1="224" x2="512" y2="224"/>
		<line fill="none" stroke="#A9CCDB" stroke-miterlimit="10" x1="0" y1="256" x2="512" y2="256"/>
		<line fill="none" stroke="#A9CCDB" stroke-miterlimit="10" x1="0" y1="288" x2="512" y2="288"/>
		<line fill="none" stroke="#A9CCDB" stroke-miterlimit="10" x1="0" y1="320" x2="512" y2="320"/>
		<line fill="none" stroke="#A9CCDB" stroke-miterlimit="10" x1="0" y1="352" x2="512" y2="352"/>
		<line fill="none" stroke="#A9CCDB" stroke-miterlimit="10" x1="0" y1="384" x2="512" y2="384"/>
		<line fill="none" stroke="#A9CCDB" stroke-miterlimit="10" x1="0" y1="416" x2="512" y2="416"/>
		<line fill="none" stroke="#FF0000" stroke-miterlimit="10" x1="0" y1="448" x2="512" y2="448"/>
		<line fill="none" stroke="#A9CCDB" stroke-miterlimit="10" x1="0" y1="480" x2="512" y2="480"/>
		<line fill="none" stroke="#A9CCDB" stroke-miterlimit="10" x1="32" y1="0" x2="32" y2="512"/>
		<line fill="none" stroke="#A9CCDB" stroke-miterlimit="10" x1="64" y1="0" x2="64" y2="512"/>
		<line fill="none" stroke="#A9CCDB" stroke-miterlimit="10" x1="96" y1="0" x2="96" y2="512"/>
		<line fill="none" stroke="#A9CCDB" stroke-miterlimit="10" x1="128" y1="0" x2="128" y2="512"/>
		<line fill="none" stroke="#A9CCDB" stroke-miterlimit="10" x1="160" y1="0" x2="160" y2="512"/>
		<line fill="none" stroke="#A9CCDB" stroke-miterlimit="10" x1="192" y1="0" x2="192" y2="512"/>
		<line fill="none" stroke="#A9CCDB" stroke-miterlimit="10" x1="224" y1="0" x2="224" y2="512"/>
		<line fill="none" stroke="#A9CCDB" stroke-miterlimit="10" x1="256" y1="0" x2="256" y2="512"/>
		<line fill="none" stroke="#A9CCDB" stroke-miterlimit="10" x1="288" y1="0" x2="288" y2="512"/>
		<line fill="none" stroke="#A9CCDB" stroke-miterlimit="10" x1="320" y1="0" x2="320" y2="512"/>
		<line fill="none" stroke="#A9CCDB" stroke-miterlimit="10" x1="352" y1="0" x2="352" y2="512"/>
		<line fill="none" stroke="#A9CCDB" stroke-miterlimit="10" x1="384" y1="0" x2="384" y2="512"/>
		<line fill="none" stroke="#A9CCDB" stroke-miterlimit="10" x1="416" y1="0" x2="416" y2="512"/>
		<line fill="none" stroke="#A9CCDB" stroke-miterlimit="10" x1="448" y1="0" x2="448" y2="512"/>
		<line fill="none" stroke="#A9CCDB" stroke-miterlimit="10" x1="480" y1="0" x2="480" y2="512"/>
	</g>
	<path d="M359.163 321.667c1.98 -0.672 3.354 -2.915 3.052 -4.983l-4.422 -30.219c-0.304 -2.069 -2.261 -3.824 -4.35 -3.899l-33.608 -1.202 c-2.089 -0.077 -4.559 -1.672 -5.485 -3.547l-12.566 -25.4c-0.929 -1.875 -0.698 -4.806 0.511 -6.513l19.435 -27.444 c1.209 -1.708 1.002 -4.328 -0.46 -5.826l-21.34 -21.849c-1.462 -1.497 -4.077 -1.766 -5.813 -0.597l-27.895 18.78 c-1.734 1.169 -4.67 1.33 -6.521 0.357l-25.096 -13.163c-1.852 -0.972 -3.388 -3.478 -3.415 -5.569l-0.41 -33.627 c-0.026 -2.091 -1.733 -4.091 -3.795 -4.441l-30.106 -5.135c-2.061 -0.353 -4.335 0.969 -5.052 2.932l-11.53 31.591 c-0.717 1.965 -2.998 3.821 -5.067 4.125l-28.039 4.1c-2.071 0.303 -4.786 -0.821 -6.036 -2.498l-20.095 -26.963 c-1.25 -1.676 -3.806 -2.291 -5.681 -1.364l-27.376 13.542c-1.874 0.928 -2.938 3.331 -2.363 5.343l9.24 32.334 c0.576 2.012 -0.179 4.853 -1.676 6.313L72.93 236.646c-1.496 1.462 -4.354 2.149 -6.351 1.527L34.472 228.17 c-1.997 -0.622 -4.425 0.384 -5.397 2.236l-14.187 27.048c-0.972 1.852 -0.419 4.421 1.228 5.711l26.482 20.732 c1.647 1.287 2.707 4.029 2.355 6.092l-4.763 27.933c-0.352 2.062 -2.26 4.297 -4.242 4.968L4.094 333.671 c-1.98 0.671 -3.354 2.914 -3.051 4.98l4.418 30.219c0.304 2.069 2.262 3.824 4.352 3.898l33.609 1.205 c2.09 0.074 4.559 1.669 5.487 3.544l12.565 25.4c0.928 1.874 0.698 4.804 -0.511 6.51l-19.435 27.447 c-1.208 1.708 -1.002 4.328 0.46 5.822L50 450.901c1.462 1.498 3.854 3.947 5.314 5.441l5.353 5.481 c1.461 1.494 3.255 3.333 3.988 4.081c0.73 0.75 2.749 0.407 4.484 -0.76l27.896 -18.78c1.735 -1.17 4.671 -1.329 6.523 -0.356 l25.096 13.161c1.852 0.973 3.388 3.478 3.414 5.569l0.409 33.626c0.026 2.092 1.733 4.091 3.795 4.443l30.107 5.135 c2.062 0.352 4.336 -0.969 5.053 -2.934l11.529 -31.589c0.718 -1.965 2.998 -3.82 5.067 -4.126l28.039 -4.101 c2.069 -0.305 4.785 0.821 6.035 2.497l20.097 26.966c1.25 1.678 3.806 2.291 5.681 1.362l27.373 -13.543 c1.875 -0.928 2.939 -3.332 2.364 -5.343l-9.24 -32.335c-0.574 -2.011 0.179 -4.854 1.676 -6.313l20.274 -19.8 c1.498 -1.461 4.354 -2.147 6.353 -1.523l32.104 10c1.997 0.622 4.427 -0.384 5.397 -2.235l14.187 -27.049 c0.973 -1.851 0.419 -4.424 -1.229 -5.711l-26.479 -20.728c-1.647 -1.29 -2.706 -4.032 -2.354 -6.093l4.761 -27.934 c0.352 -2.062 2.26 -4.298 4.242 -4.969L359.163 321.667zM181.628 392.698c-35.913 0 -65.028 -29.116 -65.028 -65.032 c0 -35.913 29.115 -65.027 65.028 -65.027c35.914 0 65.027 29.114 65.027 65.027C246.655 363.582 217.542 392.698 181.628 392.698zM482.709 116.993c0.025 -2.091 1.532 -4.652 3.348 -5.689l23.249 -13.285c1.816 -1.037 2.666 -3.475 1.889 -5.416l-9.75 -24.349 c-0.777 -1.942 -3.075 -3.12 -5.105 -2.617l-25.993 6.435c-2.029 0.501 -4.888 -0.312 -6.35 -1.808L445.69 51.518 c-1.463 -1.497 -2.207 -4.37 -1.657 -6.39l7.048 -25.832c0.549 -2.018 -0.571 -4.342 -2.495 -5.166L424.474 3.808 c-1.922 -0.823 -4.379 -0.031 -5.458 1.759l-13.831 22.93c-1.079 1.791 -3.675 3.236 -5.767 3.211l-26.201 -0.31 c-2.09 -0.024 -4.65 -1.531 -5.688 -3.347l-13.284 -23.25c-1.037 -1.815 -3.476 -2.665 -5.417 -1.887l-24.347 9.749 c-1.941 0.777 -3.122 3.075 -2.618 5.104l6.436 25.994c0.5 2.03 -0.313 4.887 -1.809 6.35l-18.744 18.306 c-1.496 1.462 -4.37 2.207 -6.388 1.656l-25.837 -7.047c-2.018 -0.551 -4.342 0.572 -5.164 2.495l-10.323 24.113 c-0.824 1.923 -0.032 4.38 1.76 5.458l22.927 13.831c1.792 1.079 3.236 3.673 3.212 5.766l-0.308 26.199 c-0.026 2.091 -1.532 4.651 -3.349 5.688l-23.249 13.284c-1.816 1.036 -2.665 3.475 -1.889 5.417l9.751 24.35 c0.777 1.942 3.074 3.119 5.105 2.616l25.99 -6.434c2.031 -0.502 4.887 0.311 6.35 1.807l18.309 18.747 c1.461 1.495 2.204 4.37 1.656 6.389l-7.047 25.832c-0.551 2.018 0.572 4.343 2.496 5.165l24.112 10.324 c1.922 0.823 4.379 0.031 5.457 -1.759l13.83 -22.929c1.08 -1.791 3.677 -3.236 5.768 -3.211l26.199 0.309 c2.092 0.025 4.651 1.53 5.689 3.346l13.282 23.252c1.04 1.815 3.477 2.666 5.417 1.888l24.35 -9.75 c1.942 -0.777 3.12 -3.075 2.618 -5.105l-6.434 -25.993c-0.503 -2.03 0.312 -4.888 1.808 -6.349l18.743 -18.307 c1.497 -1.462 4.371 -2.208 6.389 -1.657l25.834 7.047c2.02 0.55 4.343 -0.573 5.165 -2.495l10.325 -24.111 c0.822 -1.924 0.029 -4.38 -1.761 -5.46l-22.928 -13.83c-1.791 -1.081 -3.237 -3.675 -3.212 -5.766L482.709 116.993zM385.166 165.04 c-19.937 0 -36.098 -16.162 -36.098 -36.098c0 -19.938 16.161 -36.1 36.098 -36.1c19.938 0 36.099 16.161 36.101 36.1 C421.265 148.878 405.104 165.04 385.166 165.04z"/>
</svg>
