<?xml version="1.0" encoding="utf-8"?>
<!DOCTYPE svg PUBLIC "-//W3C//DTD SVG 1.1//EN" "http://www.w3.org/Graphics/SVG/1.1/DTD/svg11.dtd">
<svg
	version="1.1"
	id="Layer_1"
	xmlns="http://www.w3.org/2000/svg"
	xmlns:xlink="http://www.w3.org/1999/xlink"
	x="0px"
	y="0px"
	width="512px"
	height="512px"
	viewBox="0 0 512 512"
	enable-background="new 0 0 512 512"
	xml:space="preserve"
>
	<g id="Grid">
		<rect x="0" fill="none" stroke="#A9CCDB" stroke-miterlimit="10" width="512" height="512"/>
		<line fill="none" stroke="#A9CCDB" stroke-miterlimit="10" x1="0" y1="32" x2="512" y2="32"/>
		<line fill="none" stroke="#A9CCDB" stroke-miterlimit="10" x1="0" y1="64" x2="512" y2="64"/>
		<line fill="none" stroke="#A9CCDB" stroke-miterlimit="10" x1="0" y1="96" x2="512" y2="96"/>
		<line fill="none" stroke="#A9CCDB" stroke-miterlimit="10" x1="0" y1="128" x2="512" y2="128"/>
		<line fill="none" stroke="#A9CCDB" stroke-miterlimit="10" x1="0" y1="160" x2="512" y2="160"/>
		<line fill="none" stroke="#A9CCDB" stroke-miterlimit="10" x1="0" y1="192" x2="512" y2="192"/>
		<line fill="none" stroke="#A9CCDB" stroke-miterlimit="10" x1="0" y1="224" x2="512" y2="224"/>
		<line fill="none" stroke="#A9CCDB" stroke-miterlimit="10" x1="0" y1="256" x2="512" y2="256"/>
		<line fill="none" stroke="#A9CCDB" stroke-miterlimit="10" x1="0" y1="288" x2="512" y2="288"/>
		<line fill="none" stroke="#A9CCDB" stroke-miterlimit="10" x1="0" y1="320" x2="512" y2="320"/>
		<line fill="none" stroke="#A9CCDB" stroke-miterlimit="10" x1="0" y1="352" x2="512" y2="352"/>
		<line fill="none" stroke="#A9CCDB" stroke-miterlimit="10" x1="0" y1="384" x2="512" y2="384"/>
		<line fill="none" stroke="#A9CCDB" stroke-miterlimit="10" x1="0" y1="416" x2="512" y2="416"/>
		<line fill="none" stroke="#FF0000" stroke-miterlimit="10" x1="0" y1="448" x2="512" y2="448"/>
		<line fill="none" stroke="#A9CCDB" stroke-miterlimit="10" x1="0" y1="480" x2="512" y2="480"/>
		<line fill="none" stroke="#A9CCDB" stroke-miterlimit="10" x1="32" y1="0" x2="32" y2="512"/>
		<line fill="none" stroke="#A9CCDB" stroke-miterlimit="10" x1="64" y1="0" x2="64" y2="512"/>
		<line fill="none" stroke="#A9CCDB" stroke-miterlimit="10" x1="96" y1="0" x2="96" y2="512"/>
		<line fill="none" stroke="#A9CCDB" stroke-miterlimit="10" x1="128" y1="0" x2="128" y2="512"/>
		<line fill="none" stroke="#A9CCDB" stroke-miterlimit="10" x1="160" y1="0" x2="160" y2="512"/>
		<line fill="none" stroke="#A9CCDB" stroke-miterlimit="10" x1="192" y1="0" x2="192" y2="512"/>
		<line fill="none" stroke="#A9CCDB" stroke-miterlimit="10" x1="224" y1="0" x2="224" y2="512"/>
		<line fill="none" stroke="#A9CCDB" stroke-miterlimit="10" x1="256" y1="0" x2="256" y2="512"/>
		<line fill="none" stroke="#A9CCDB" stroke-miterlimit="10" x1="288" y1="0" x2="288" y2="512"/>
		<line fill="none" stroke="#A9CCDB" stroke-miterlimit="10" x1="320" y1="0" x2="320" y2="512"/>
		<line fill="none" stroke="#A9CCDB" stroke-miterlimit="10" x1="352" y1="0" x2="352" y2="512"/>
		<line fill="none" stroke="#A9CCDB" stroke-miterlimit="10" x1="384" y1="0" x2="384" y2="512"/>
		<line fill="none" stroke="#A9CCDB" stroke-miterlimit="10" x1="416" y1="0" x2="416" y2="512"/>
		<line fill="none" stroke="#A9CCDB" stroke-miterlimit="10" x1="448" y1="0" x2="448" y2="512"/>
		<line fill="none" stroke="#A9CCDB" stroke-miterlimit="10" x1="480" y1="0" x2="480" y2="512"/>
	</g>
	<path d="M347.935232 221.2096c0.00256 0 0.224768 0.001024 0.224768 0.001024v-0.339968l34.304 0.013824v-0.131584c9.728 -0.527872 19.31264 -2.712576 28.253184 -6.567424 c10.300928 -4.425728 19.414016 -10.519552 27.13088 -18.233856c7.709184 -7.710208 13.83168 -16.774144 18.269184 -27.078144C460.584448 158.498816 462.848 147.465216 462.848 135.92832 v-0.918528l-0.004096 -0.0128c-0.109568 -11.408896 -2.343936 -22.295552 -6.682624 -32.508416c-4.414464 -10.394112 -10.424832 -19.610112 -17.991168 -27.540992 c-7.599104 -7.967744 -16.625152 -14.266368 -26.949632 -18.82624c-10.366976 -4.586496 -21.507072 -6.923264 -33.233408 -6.936064c-0.040448 0 -0.078336 -0.03328 -0.114176 -0.03328h-0.01536 c-11.759616 0 -22.95552 2.336256 -33.44128 6.909952c-10.43456 4.553216 -19.579392 10.847744 -27.291648 18.80832c-7.686144 7.921664 -13.825024 17.131008 -18.360832 27.524096 c-4.598784 10.49856 -6.893568 21.723648 -6.893568 33.482752L291.862016 164.864h-0.134144c-0.01536 3.218432 -2.294272 5.874688 -5.325312 6.509568l-60.054016 -0.014336 c-2.582016 -0.564224 -4.608512 -2.593792 -5.134848 -5.18656l0.01024 -31.440384l-0.011264 -0.024064c-0.137728 -11.341312 -2.433536 -22.171136 -6.869504 -32.32768 c-4.530688 -10.393088 -10.657792 -19.603968 -18.345472 -27.532288c-7.71328 -7.958016 -16.84224 -14.23872 -27.270656 -18.802688c-10.450944 -4.56704 -21.626368 -6.867456 -33.321984 -6.889984 C135.32928 49.152 135.168 49.150464 135.168 49.150464v-0.003584c-11.776 0 -22.94016 2.300416 -33.4336 6.87872c-10.43456 4.551168 -19.56096 10.83648 -27.277312 18.797056 c-7.68512 7.913984 -13.810688 17.121792 -18.3552 27.519488c-4.567552 10.446336 -6.897664 21.60896 -6.921216 33.31584C49.18016 135.722496 49.152 135.7568 49.152 135.781376V135.68 h0.068096c0 0 0 0.083968 -0.003584 0.09472c-0.004608 11.75552 2.292224 22.949888 6.887424 33.335296c4.538368 10.301952 10.693632 19.321856 18.414592 26.922496 c7.708672 7.59808 16.837632 13.643264 27.242496 18.066432c10.489344 4.476928 21.68064 6.707712 33.435648 6.707712L165.376 220.820992V221.184c0 0 0.136704 0 0.140288 0 c3.70176 0 6.70464 2.957824 6.723072 6.656h0.150528l-0.01536 57.856h-0.135168c-0.013824 2.758144 -1.688576 5.102592 -4.073984 6.116864l-32.814592 -0.009728 c-0.130048 -0.004096 -0.250368 0 -0.351232 0c-11.685888 0.010752 -22.821376 2.247168 -33.26208 6.688768c-10.411008 4.422144 -19.538944 10.44736 -27.254272 18.046464 c-7.727104 7.590912 -13.884928 16.603136 -18.432 26.897408c-4.586496 10.358272 -6.884352 21.48864 -6.898688 33.207808c-0.001024 0.102912 0 0.138752 0 0.146944 c-0.00768 11.75552 2.284032 22.960128 6.875648 33.45664c4.530688 10.39616 10.681344 19.519488 18.397696 27.230208c7.704064 7.718912 16.825856 13.896192 27.224064 18.445824 c10.496 4.591104 21.71136 6.923776 33.475072 6.923776h2.955776l0.027136 -0.083968c10.681856 -0.349184 20.8896 -2.642432 30.499328 -6.838272 c10.405376 -4.544 19.52256 -10.69056 27.238912 -18.405888c7.716352 -7.71072 13.871104 -16.831488 18.41408 -27.23072c4.59008 -10.500096 6.892544 -21.710848 6.892544 -33.484288 L221.162496 348.16H221.184c0 0 0 -0.055808 0 -0.05888c0 -3.702272 2.957824 -6.705664 6.656 -6.724096v-0.407552l57.344 0.019968V341.504c0 0 -0.181248 0 -0.179712 0 c3.701248 0 6.705664 2.958336 6.723584 6.656h0.082944L291.84 376.827904v0.03584c0 11.750912 2.271232 22.9504 6.858752 33.444352 c4.533248 10.397696 10.673152 19.529216 18.382848 27.236352c7.710208 7.7184 16.820736 13.869568 27.227648 18.413056c10.461184 4.573184 21.633536 6.873088 33.360384 6.889984 h0.060928c0.015872 0 0.033792 0.002048 0.049664 0.002048l7.727104 0.003584l-0.161792 -0.326144c9.002496 -0.774144 17.618944 -2.961408 25.762816 -6.554624 c10.293248 -4.54912 19.31008 -10.696704 26.907648 -18.417152c7.605248 -7.7184 13.66272 -16.840704 18.094592 -27.247616C460.580352 399.8208 462.848 388.627968 462.848 376.87552 v-0.785408l-0.036864 -0.007168c-0.09728 -11.2512 -2.34752 -22.016 -6.709248 -32.155136c-4.425728 -10.304512 -10.530304 -19.378176 -18.241536 -27.087872 c-7.712768 -7.716352 -16.782848 -13.813248 -27.082752 -18.252288c-10.375168 -4.473344 -21.41184 -6.715392 -32.949248 -6.715392l-32.534016 -0.011264 c-1.964544 -0.792064 -3.460608 -2.479616 -3.983872 -4.563456l0.014848 -61.389312C342.240256 223.184896 344.928256 221.2096 347.935232 221.2096zM121.066496 168.48128 c-4.514304 -1.952768 -8.375296 -4.522496 -11.705344 -7.753216c-3.314688 -3.214848 -5.848064 -6.944256 -7.771648 -11.299328c-1.89696 -4.289536 -2.773504 -8.76544 -2.773504 -13.589504v-0.011264 c0 -5.336064 0.907776 -10.110976 2.797056 -14.485504c1.946112 -4.5184 4.509696 -8.468992 7.769088 -11.935232c3.177984 -3.365888 6.956544 -5.888512 11.509248 -7.82336 c4.52608 -1.910784 9.238016 -2.768896 14.322176 -2.768896h0.018432c5.333504 0 10.112 0.878592 14.483456 2.768896c4.45952 1.928704 8.369664 4.53376 11.823616 7.99232 c3.450368 3.45344 6.103552 7.338496 8.039936 11.807744c1.878528 4.370432 2.845184 9.137664 2.845184 14.47936L172.41088 164.864h-0.17152 c-0.015872 3.171328 -2.229248 5.792768 -5.193728 6.476288l-31.837184 -0.006656C130.123776 171.328512 125.45792 170.38336 121.066496 168.48128zM169.483264 391.148032 c-1.941504 4.571136 -4.591104 8.521728 -8.026624 11.95776c-3.452928 3.452928 -7.366656 6.103552 -11.82976 8.033792c-4.372992 1.888256 -9.150976 2.838528 -14.482944 2.847744 c-5.08672 -0.009728 -9.821184 -0.96 -14.347776 -2.871808c-4.561408 -1.929216 -8.3456 -4.544 -11.523072 -7.92064c-3.244032 -3.451392 -5.73184 -7.440384 -7.68512 -12.066816 c-1.842176 -4.352 -2.771456 -8.879616 -2.771456 -13.726208v-0.634368c0 -4.826112 0.845824 -9.367552 2.75968 -13.799424c1.930752 -4.46208 4.480512 -8.236544 7.7696 -11.429376 c3.338752 -3.227136 7.182848 -5.797376 11.69664 -7.750656c4.206592 -1.817088 8.656384 -2.766848 13.504 -2.843136L165.376 340.9536V341.504c0 0 0.136704 0 0.140288 0 c3.70176 0 6.705152 2.958336 6.723072 6.656h0.125952l-0.008192 28.631552C172.351488 381.876736 171.395584 386.609152 169.483264 391.148032zM291.727872 285.696 c-0.0128 2.788864 -1.725952 5.154816 -4.154368 6.151168l-62.346752 -0.018432c-2.404864 -1.03936 -4.042752 -3.513856 -4.042752 -6.3232c0 -0.002048 0 0.190464 0 0.190464h-0.007168 l0.013312 -57.893888c0.070656 -3.64032 2.996224 -6.572544 6.649344 -6.590976v-0.374272l57.344 0.019968V221.184c0 0 -0.181248 0 -0.179712 0c3.701248 0 6.706176 2.958336 6.723584 6.656 h0.1152l-0.016384 57.856H291.727872zM344.20736 121.416192c1.95072 -4.52608 4.539392 -8.470016 7.799296 -11.93728c3.172864 -3.365888 6.963712 -5.927424 11.524096 -7.858176 c4.3392 -1.83552 8.864768 -2.805248 13.71904 -2.805248h0.63488c4.791808 0 9.229824 0.933888 13.51424 2.912768c4.355584 2.034688 8.097792 4.708864 11.329024 8.131584 c3.25376 3.475456 5.8368 7.402496 7.792128 11.927552c1.895936 4.39552 2.841088 9.056256 2.848256 14.13632c-0.00768 4.824064 -0.9472 9.30816 -2.842112 13.590016 c-1.942528 4.390912 -4.496384 8.140288 -7.709696 11.346944c-3.226112 3.219456 -6.972928 5.830144 -11.359744 7.766528c-4.291584 1.892352 -8.756224 2.891776 -13.576704 2.891776 h-0.018432l-31.289344 -0.072192c-2.40896 -0.460288 -4.441088 -2.122752 -5.228544 -4.34688l0.009728 -31.192576C341.353984 130.574848 342.31552 125.779456 344.20736 121.416192zM391.417344 343.849984c4.376064 1.946624 8.12544 4.502016 11.346432 7.71584c3.18976 3.20256 5.742592 6.97856 7.691264 11.474944 c1.90208 4.42624 2.843648 9.183232 2.843648 13.791232h0.003584c-0.005632 5.12 -0.96 9.760768 -2.857984 14.1568c-1.953792 4.519936 -4.544512 8.477184 -7.80032 11.939328 c-3.229696 3.428864 -6.97344 6.130176 -11.334144 8.156672c-4.283392 1.987072 -8.717312 2.95936 -13.512704 2.966016c-5.090304 -0.006656 -9.818112 -0.953344 -14.354944 -2.86976 c-4.562432 -1.92512 -8.344576 -4.544 -11.510272 -7.919104c-3.250688 -3.447808 -5.834752 -7.4368 -7.780864 -12.068864c-1.912832 -4.52096 -2.859008 -9.22112 -2.865664 -14.278656 l0.010752 -30.793728c0.843776 -2.699776 3.359232 -4.617216 6.35904 -4.617216c-0.00256 0 -0.007168 0 -0.007168 0v-0.4992l30.16704 0.010752 C382.642176 341.016064 387.115008 341.958656 391.417344 343.849984zM227.871232 221.2096c-0.010752 0 -0.020992 0.001536 -0.031232 0.001536v0.000512C227.84 221.21216 227.87328 221.211136 227.871232 221.2096zM227.871232 341.375488c-0.010752 0 -0.020992 0.001536 -0.031232 0.001536v0.001024C227.84 341.378048 227.87328 341.377024 227.871232 341.375488zM172.240896 348.191744c0 -0.010752 -0.001536 -0.020992 -0.001536 -0.031744h-0.000512C172.238848 348.16 172.239872 348.193792 172.240896 348.191744zM172.240896 227.871744c0 -0.010752 -0.001536 -0.021504 -0.001536 -0.031744h-0.000512C172.238848 227.84 172.239872 227.873792 172.240896 227.871744zM172.238848 285.696L172.238848 285.696c0.000512 -0.010752 0.002048 -0.020992 0.002048 -0.031744C172.239872 285.661184 172.238848 285.696 172.238848 285.696zM172.238848 164.864L172.238848 164.864c0.000512 -0.010752 0.002048 -0.021504 0.002048 -0.032256C172.239872 164.829696 172.238848 164.864 172.238848 164.864zM291.726848 164.864h0.001024c0 -0.010752 0.001536 -0.021504 0.001536 -0.032256C291.729408 164.829696 291.726848 164.864 291.726848 164.864zM291.729408 227.872256c0 -0.010752 -0.001536 -0.021504 -0.001536 -0.032256h-0.001024C291.726848 227.84 291.729408 227.874304 291.729408 227.872256zM291.729408 348.192768c0 -0.010752 -0.001536 -0.022016 -0.001536 -0.032768h-0.001024C291.726848 348.16 291.729408 348.194816 291.729408 348.192768zM291.726848 285.696h0.001024c0 -0.010752 0.001536 -0.020992 0.001536 -0.031744C291.729408 285.661184 291.726848 285.696 291.726848 285.696z"/>
</svg>
