<?xml version="1.0" encoding="utf-8"?>
<!DOCTYPE svg PUBLIC "-//W3C//DTD SVG 1.1//EN" "http://www.w3.org/Graphics/SVG/1.1/DTD/svg11.dtd">
<svg
	version="1.1"
	id="Layer_1"
	xmlns="http://www.w3.org/2000/svg"
	xmlns:xlink="http://www.w3.org/1999/xlink"
	x="0px"
	y="0px"
	width="512px"
	height="512px"
	viewBox="0 0 512 512"
	enable-background="new 0 0 512 512"
	xml:space="preserve"
>
	<g id="Grid">
		<rect x="0" fill="none" stroke="#A9CCDB" stroke-miterlimit="10" width="512" height="512"/>
		<line fill="none" stroke="#A9CCDB" stroke-miterlimit="10" x1="0" y1="32" x2="512" y2="32"/>
		<line fill="none" stroke="#A9CCDB" stroke-miterlimit="10" x1="0" y1="64" x2="512" y2="64"/>
		<line fill="none" stroke="#A9CCDB" stroke-miterlimit="10" x1="0" y1="96" x2="512" y2="96"/>
		<line fill="none" stroke="#A9CCDB" stroke-miterlimit="10" x1="0" y1="128" x2="512" y2="128"/>
		<line fill="none" stroke="#A9CCDB" stroke-miterlimit="10" x1="0" y1="160" x2="512" y2="160"/>
		<line fill="none" stroke="#A9CCDB" stroke-miterlimit="10" x1="0" y1="192" x2="512" y2="192"/>
		<line fill="none" stroke="#A9CCDB" stroke-miterlimit="10" x1="0" y1="224" x2="512" y2="224"/>
		<line fill="none" stroke="#A9CCDB" stroke-miterlimit="10" x1="0" y1="256" x2="512" y2="256"/>
		<line fill="none" stroke="#A9CCDB" stroke-miterlimit="10" x1="0" y1="288" x2="512" y2="288"/>
		<line fill="none" stroke="#A9CCDB" stroke-miterlimit="10" x1="0" y1="320" x2="512" y2="320"/>
		<line fill="none" stroke="#A9CCDB" stroke-miterlimit="10" x1="0" y1="352" x2="512" y2="352"/>
		<line fill="none" stroke="#A9CCDB" stroke-miterlimit="10" x1="0" y1="384" x2="512" y2="384"/>
		<line fill="none" stroke="#A9CCDB" stroke-miterlimit="10" x1="0" y1="416" x2="512" y2="416"/>
		<line fill="none" stroke="#FF0000" stroke-miterlimit="10" x1="0" y1="448" x2="512" y2="448"/>
		<line fill="none" stroke="#A9CCDB" stroke-miterlimit="10" x1="0" y1="480" x2="512" y2="480"/>
		<line fill="none" stroke="#A9CCDB" stroke-miterlimit="10" x1="32" y1="0" x2="32" y2="512"/>
		<line fill="none" stroke="#A9CCDB" stroke-miterlimit="10" x1="64" y1="0" x2="64" y2="512"/>
		<line fill="none" stroke="#A9CCDB" stroke-miterlimit="10" x1="96" y1="0" x2="96" y2="512"/>
		<line fill="none" stroke="#A9CCDB" stroke-miterlimit="10" x1="128" y1="0" x2="128" y2="512"/>
		<line fill="none" stroke="#A9CCDB" stroke-miterlimit="10" x1="160" y1="0" x2="160" y2="512"/>
		<line fill="none" stroke="#A9CCDB" stroke-miterlimit="10" x1="192" y1="0" x2="192" y2="512"/>
		<line fill="none" stroke="#A9CCDB" stroke-miterlimit="10" x1="224" y1="0" x2="224" y2="512"/>
		<line fill="none" stroke="#A9CCDB" stroke-miterlimit="10" x1="256" y1="0" x2="256" y2="512"/>
		<line fill="none" stroke="#A9CCDB" stroke-miterlimit="10" x1="288" y1="0" x2="288" y2="512"/>
		<line fill="none" stroke="#A9CCDB" stroke-miterlimit="10" x1="320" y1="0" x2="320" y2="512"/>
		<line fill="none" stroke="#A9CCDB" stroke-miterlimit="10" x1="352" y1="0" x2="352" y2="512"/>
		<line fill="none" stroke="#A9CCDB" stroke-miterlimit="10" x1="384" y1="0" x2="384" y2="512"/>
		<line fill="none" stroke="#A9CCDB" stroke-miterlimit="10" x1="416" y1="0" x2="416" y2="512"/>
		<line fill="none" stroke="#A9CCDB" stroke-miterlimit="10" x1="448" y1="0" x2="448" y2="512"/>
		<line fill="none" stroke="#A9CCDB" stroke-miterlimit="10" x1="480" y1="0" x2="480" y2="512"/>
	</g>
	<path d="M510.254 255.759c0 -3.326 -0.29 -6.584 -0.837 -9.754c-11.971 -87.225 -188.083 -53.084 -232.008 -43.161 c-5.545 -2.37 -11.547 -3.885 -17.862 -4.376c0 0 0 -0.001 0 -0.002c-1.895 -0.165 -3.431 -1.79 -3.431 -3.773c0 -0.288 0.051 -0.568 0.113 -0.839 c-0.002 -0.001 0.004 -0.001 0.002 -0.002c16.509 -36.796 75.81 -77.013 75.817 -126.236C332.056 6.999 281.643 -1.1 259.224 0.14800000000002 C257.869 0.052999999999997 256.504 0 255.126 0c-5.258 0 -10.346 0.717 -15.18 2.054c-84.195 16.183 -49.261 196.439 -39.839 238.773 c-0.79 3.049 -1.331 6.199 -1.604 9.424c-0.272 1.825 -1.829 3.229 -3.73 3.229c-0.136 0 -0.269 -0.009 -0.402 -0.022 c-36.757 -16.6 -76.934 -75.742 -126.091 -75.747c-57.466 -0.007 -67.729 45.304 -67.578 69.118C0.241 249.737 0 252.72 0 255.759 c0 9.443 2.306 18.347 6.381 26.184c30.466 69.825 196.033 35.398 231.121 27.229c4.112 1.34 8.431 2.225 12.895 2.593 c1.684 0.329 2.962 1.757 3.048 3.516c-15.767 37.11 -76.311 77.652 -76.317 127.392c-0.008 61.354 51.649 68.903 73.639 67.417 c1.439 0.108 2.893 0.165 4.359 0.165c6.043 0 11.862 -0.947 17.325 -2.693c81.087 -19.873 45.032 -195.687 36.277 -233.508 c1.652 -4.68 2.711 -9.639 3.082 -14.788c0.13 -0.677 0.437 -1.286 0.875 -1.783c37.999 13.431 79.451 77.581 130.649 77.586 c66.294 0.01 69.77 -60.295 66.906 -78.325C510.247 256.416 510.254 256.088 510.254 255.759zM236.181 255.127 c0 -10.447 8.5 -18.945 18.945 -18.945c10.447 0 18.945 8.498 18.945 18.945c0 10.446 -8.498 18.945 -18.945 18.945 C244.681 274.072 236.181 265.573 236.181 255.127z"/>
</svg>
