<?xml version="1.0" encoding="utf-8"?>
<!DOCTYPE svg PUBLIC "-//W3C//DTD SVG 1.1//EN" "http://www.w3.org/Graphics/SVG/1.1/DTD/svg11.dtd">
<svg
	version="1.1"
	id="Layer_1"
	xmlns="http://www.w3.org/2000/svg"
	xmlns:xlink="http://www.w3.org/1999/xlink"
	x="0px"
	y="0px"
	width="512px"
	height="512px"
	viewBox="0 0 512 512"
	enable-background="new 0 0 512 512"
	xml:space="preserve"
>
	<g id="Grid">
		<rect x="0" fill="none" stroke="#A9CCDB" stroke-miterlimit="10" width="512" height="512"/>
		<line fill="none" stroke="#A9CCDB" stroke-miterlimit="10" x1="0" y1="32" x2="512" y2="32"/>
		<line fill="none" stroke="#A9CCDB" stroke-miterlimit="10" x1="0" y1="64" x2="512" y2="64"/>
		<line fill="none" stroke="#A9CCDB" stroke-miterlimit="10" x1="0" y1="96" x2="512" y2="96"/>
		<line fill="none" stroke="#A9CCDB" stroke-miterlimit="10" x1="0" y1="128" x2="512" y2="128"/>
		<line fill="none" stroke="#A9CCDB" stroke-miterlimit="10" x1="0" y1="160" x2="512" y2="160"/>
		<line fill="none" stroke="#A9CCDB" stroke-miterlimit="10" x1="0" y1="192" x2="512" y2="192"/>
		<line fill="none" stroke="#A9CCDB" stroke-miterlimit="10" x1="0" y1="224" x2="512" y2="224"/>
		<line fill="none" stroke="#A9CCDB" stroke-miterlimit="10" x1="0" y1="256" x2="512" y2="256"/>
		<line fill="none" stroke="#A9CCDB" stroke-miterlimit="10" x1="0" y1="288" x2="512" y2="288"/>
		<line fill="none" stroke="#A9CCDB" stroke-miterlimit="10" x1="0" y1="320" x2="512" y2="320"/>
		<line fill="none" stroke="#A9CCDB" stroke-miterlimit="10" x1="0" y1="352" x2="512" y2="352"/>
		<line fill="none" stroke="#A9CCDB" stroke-miterlimit="10" x1="0" y1="384" x2="512" y2="384"/>
		<line fill="none" stroke="#A9CCDB" stroke-miterlimit="10" x1="0" y1="416" x2="512" y2="416"/>
		<line fill="none" stroke="#FF0000" stroke-miterlimit="10" x1="0" y1="448" x2="512" y2="448"/>
		<line fill="none" stroke="#A9CCDB" stroke-miterlimit="10" x1="0" y1="480" x2="512" y2="480"/>
		<line fill="none" stroke="#A9CCDB" stroke-miterlimit="10" x1="32" y1="0" x2="32" y2="512"/>
		<line fill="none" stroke="#A9CCDB" stroke-miterlimit="10" x1="64" y1="0" x2="64" y2="512"/>
		<line fill="none" stroke="#A9CCDB" stroke-miterlimit="10" x1="96" y1="0" x2="96" y2="512"/>
		<line fill="none" stroke="#A9CCDB" stroke-miterlimit="10" x1="128" y1="0" x2="128" y2="512"/>
		<line fill="none" stroke="#A9CCDB" stroke-miterlimit="10" x1="160" y1="0" x2="160" y2="512"/>
		<line fill="none" stroke="#A9CCDB" stroke-miterlimit="10" x1="192" y1="0" x2="192" y2="512"/>
		<line fill="none" stroke="#A9CCDB" stroke-miterlimit="10" x1="224" y1="0" x2="224" y2="512"/>
		<line fill="none" stroke="#A9CCDB" stroke-miterlimit="10" x1="256" y1="0" x2="256" y2="512"/>
		<line fill="none" stroke="#A9CCDB" stroke-miterlimit="10" x1="288" y1="0" x2="288" y2="512"/>
		<line fill="none" stroke="#A9CCDB" stroke-miterlimit="10" x1="320" y1="0" x2="320" y2="512"/>
		<line fill="none" stroke="#A9CCDB" stroke-miterlimit="10" x1="352" y1="0" x2="352" y2="512"/>
		<line fill="none" stroke="#A9CCDB" stroke-miterlimit="10" x1="384" y1="0" x2="384" y2="512"/>
		<line fill="none" stroke="#A9CCDB" stroke-miterlimit="10" x1="416" y1="0" x2="416" y2="512"/>
		<line fill="none" stroke="#A9CCDB" stroke-miterlimit="10" x1="448" y1="0" x2="448" y2="512"/>
		<line fill="none" stroke="#A9CCDB" stroke-miterlimit="10" x1="480" y1="0" x2="480" y2="512"/>
	</g>
	<path d="M64 32L352 32L352 128L448 128L448 287.246L480 305.833L480 128L352 0L32 0L32 306.499L64 287.833ZM504.321 352.079c-30.729 -45.335 -142.751 -82.156 -247.662 -82.593v-0.012c-0.268 0 -0.535 0.012 -0.809 0.012 c-0.273 0 -0.535 -0.012 -0.803 -0.012v0.012c-104.911 0.437 -216.934 37.246 -247.665 82.593c-9.093 27.073 -7.257 46.337 -4.298 62.341 l7.26 27.107l0.137 0.536c0.876 3.212 3.777 5.592 7.263 5.592c0.459 0 1.734 -0.273 2.176 -0.354l116.208 -32.578l2.811 -0.896 c2.607 -1.182 3.853 -3.504 3.853 -6.56c0 -0.169 -0.046 -0.331 -0.059 -0.506c-0.046 -0.728 -0.233 -1.409 -0.465 -2.072 c0.023 0.053 0.064 0.117 0.093 0.175l-4.684 -27.207c-3.085 -11.517 -3.708 -21.347 -8.229 -28.818 c-2.09 -3.731 -4.557 -8.684 -12.908 -15.329c0 0 11.773 5.211 21.981 14.819c29.564 -10.08 82.5 -15.47 117.33 -15.562 c34.843 0.093 87.802 5.482 117.36 15.574c10.196 -9.62 21.981 -14.831 21.981 -14.831c-8.357 6.646 -10.808 11.593 -12.908 15.329 c0 0 -0.035 0.018 -0.041 0.023c-4.505 7.472 -5.139 17.289 -8.218 28.801l-4.685 27.201c0.035 -0.058 0.07 -0.116 0.093 -0.168 c-0.232 0.656 -0.412 1.344 -0.465 2.071c-0.012 0.175 -0.059 0.343 -0.059 0.506c0 3.062 1.246 5.378 3.858 6.565l2.812 0.896 l116.206 32.567c0.437 0.081 1.712 0.36 2.172 0.36c3.486 0 6.389 -2.374 7.258 -5.587l0.145 -0.541l7.257 -27.107 C511.572 398.416 513.412 379.146 504.321 352.079zM96.5 96.5l191.334 0l0 31.333l-191 0ZM95.833 159.833l320 0l0 32l-320 0ZM95.833 223.833l320 0l0 32l-320 0Z"/>
</svg>
