<?xml version="1.0" encoding="utf-8"?>
<!DOCTYPE svg PUBLIC "-//W3C//DTD SVG 1.1//EN" "http://www.w3.org/Graphics/SVG/1.1/DTD/svg11.dtd">
<svg
	version="1.1"
	id="Layer_1"
	xmlns="http://www.w3.org/2000/svg"
	xmlns:xlink="http://www.w3.org/1999/xlink"
	x="0px"
	y="0px"
	width="512px"
	height="512px"
	viewBox="0 0 512 512"
	enable-background="new 0 0 512 512"
	xml:space="preserve"
>
	<g id="Grid">
		<rect x="0" fill="none" stroke="#A9CCDB" stroke-miterlimit="10" width="512" height="512"/>
		<line fill="none" stroke="#A9CCDB" stroke-miterlimit="10" x1="0" y1="32" x2="512" y2="32"/>
		<line fill="none" stroke="#A9CCDB" stroke-miterlimit="10" x1="0" y1="64" x2="512" y2="64"/>
		<line fill="none" stroke="#A9CCDB" stroke-miterlimit="10" x1="0" y1="96" x2="512" y2="96"/>
		<line fill="none" stroke="#A9CCDB" stroke-miterlimit="10" x1="0" y1="128" x2="512" y2="128"/>
		<line fill="none" stroke="#A9CCDB" stroke-miterlimit="10" x1="0" y1="160" x2="512" y2="160"/>
		<line fill="none" stroke="#A9CCDB" stroke-miterlimit="10" x1="0" y1="192" x2="512" y2="192"/>
		<line fill="none" stroke="#A9CCDB" stroke-miterlimit="10" x1="0" y1="224" x2="512" y2="224"/>
		<line fill="none" stroke="#A9CCDB" stroke-miterlimit="10" x1="0" y1="256" x2="512" y2="256"/>
		<line fill="none" stroke="#A9CCDB" stroke-miterlimit="10" x1="0" y1="288" x2="512" y2="288"/>
		<line fill="none" stroke="#A9CCDB" stroke-miterlimit="10" x1="0" y1="320" x2="512" y2="320"/>
		<line fill="none" stroke="#A9CCDB" stroke-miterlimit="10" x1="0" y1="352" x2="512" y2="352"/>
		<line fill="none" stroke="#A9CCDB" stroke-miterlimit="10" x1="0" y1="384" x2="512" y2="384"/>
		<line fill="none" stroke="#A9CCDB" stroke-miterlimit="10" x1="0" y1="416" x2="512" y2="416"/>
		<line fill="none" stroke="#FF0000" stroke-miterlimit="10" x1="0" y1="448" x2="512" y2="448"/>
		<line fill="none" stroke="#A9CCDB" stroke-miterlimit="10" x1="0" y1="480" x2="512" y2="480"/>
		<line fill="none" stroke="#A9CCDB" stroke-miterlimit="10" x1="32" y1="0" x2="32" y2="512"/>
		<line fill="none" stroke="#A9CCDB" stroke-miterlimit="10" x1="64" y1="0" x2="64" y2="512"/>
		<line fill="none" stroke="#A9CCDB" stroke-miterlimit="10" x1="96" y1="0" x2="96" y2="512"/>
		<line fill="none" stroke="#A9CCDB" stroke-miterlimit="10" x1="128" y1="0" x2="128" y2="512"/>
		<line fill="none" stroke="#A9CCDB" stroke-miterlimit="10" x1="160" y1="0" x2="160" y2="512"/>
		<line fill="none" stroke="#A9CCDB" stroke-miterlimit="10" x1="192" y1="0" x2="192" y2="512"/>
		<line fill="none" stroke="#A9CCDB" stroke-miterlimit="10" x1="224" y1="0" x2="224" y2="512"/>
		<line fill="none" stroke="#A9CCDB" stroke-miterlimit="10" x1="256" y1="0" x2="256" y2="512"/>
		<line fill="none" stroke="#A9CCDB" stroke-miterlimit="10" x1="288" y1="0" x2="288" y2="512"/>
		<line fill="none" stroke="#A9CCDB" stroke-miterlimit="10" x1="320" y1="0" x2="320" y2="512"/>
		<line fill="none" stroke="#A9CCDB" stroke-miterlimit="10" x1="352" y1="0" x2="352" y2="512"/>
		<line fill="none" stroke="#A9CCDB" stroke-miterlimit="10" x1="384" y1="0" x2="384" y2="512"/>
		<line fill="none" stroke="#A9CCDB" stroke-miterlimit="10" x1="416" y1="0" x2="416" y2="512"/>
		<line fill="none" stroke="#A9CCDB" stroke-miterlimit="10" x1="448" y1="0" x2="448" y2="512"/>
		<line fill="none" stroke="#A9CCDB" stroke-miterlimit="10" x1="480" y1="0" x2="480" y2="512"/>
	</g>
	<path d="M183.251 415.688v-14.96c28.048 -4.207 31.32 -8.882 24.307 -28.984c-5.142 -15.426 -13.089 -37.397 -21.504 -59.835H93.028 c-6.077 16.828 -12.624 35.061 -18.233 53.759c-7.948 25.243 -5.61 31.319 28.516 35.061v14.96H0v-14.96 c30.387 -3.741 36.462 -8.414 52.357 -48.617l96.3 -241.686l20.568 -5.609c29.452 81.34 58.903 165.487 89.289 245.891 c15.428 41.139 21.502 46.747 51.422 50.021v14.96H183.251zM141.178 181.482h-0.936C126.217 217.477 113.596 253.94 100.505 289 h78.07L141.178 181.482zM465.252 421.297c-11.219 0 -20.568 -4.208 -26.178 -9.351c-6.543 -6.076 -9.816 -12.154 -11.688 -18.697 c-18.232 12.153 -40.67 28.048 -51.422 28.048c-37.396 0 -60.773 -29.919 -60.773 -58.901c0 -23.843 11.688 -35.996 36.465 -45.346 c27.58 -9.817 63.109 -21.504 73.861 -30.386v-12.155c0 -30.852 -12.623 -48.149 -32.256 -48.149c-7.48 0 -13.09 2.804 -17.766 8.415 c-5.139 6.545 -9.348 17.297 -13.555 31.789c-2.805 10.751 -8.885 14.024 -17.299 14.024c-10.75 0 -25.711 -10.284 -25.711 -21.972 c0 -7.947 5.611 -13.557 15.43 -21.036c16.359 -11.22 48.146 -28.049 74.793 -33.191c17.299 0 31.322 4.208 43.008 13.557 c19.168 14.491 23.375 34.126 23.375 59.836v80.406c0 21.504 7.48 27.58 15.428 27.58c5.607 0 11.686 -1.869 16.359 -4.207 L512 395.585L465.252 421.297zM425.518 303.96c-8.883 4.675 -21.971 11.221 -31.789 16.362 c-15.895 7.479 -24.307 16.361 -24.307 32.723c0 25.243 17.762 35.528 29.918 35.528c8.881 0 18.23 -4.207 26.178 -10.751V303.96z"/>
</svg>
