<?xml version="1.0" encoding="utf-8"?>
<!DOCTYPE svg PUBLIC "-//W3C//DTD SVG 1.1//EN" "http://www.w3.org/Graphics/SVG/1.1/DTD/svg11.dtd">
<svg
	version="1.1"
	id="Layer_1"
	xmlns="http://www.w3.org/2000/svg"
	xmlns:xlink="http://www.w3.org/1999/xlink"
	x="0px"
	y="0px"
	width="512px"
	height="512px"
	viewBox="0 0 512 512"
	enable-background="new 0 0 512 512"
	xml:space="preserve"
>
	<g id="Grid">
		<rect x="0" fill="none" stroke="#A9CCDB" stroke-miterlimit="10" width="512" height="512"/>
		<line fill="none" stroke="#A9CCDB" stroke-miterlimit="10" x1="0" y1="32" x2="512" y2="32"/>
		<line fill="none" stroke="#A9CCDB" stroke-miterlimit="10" x1="0" y1="64" x2="512" y2="64"/>
		<line fill="none" stroke="#A9CCDB" stroke-miterlimit="10" x1="0" y1="96" x2="512" y2="96"/>
		<line fill="none" stroke="#A9CCDB" stroke-miterlimit="10" x1="0" y1="128" x2="512" y2="128"/>
		<line fill="none" stroke="#A9CCDB" stroke-miterlimit="10" x1="0" y1="160" x2="512" y2="160"/>
		<line fill="none" stroke="#A9CCDB" stroke-miterlimit="10" x1="0" y1="192" x2="512" y2="192"/>
		<line fill="none" stroke="#A9CCDB" stroke-miterlimit="10" x1="0" y1="224" x2="512" y2="224"/>
		<line fill="none" stroke="#A9CCDB" stroke-miterlimit="10" x1="0" y1="256" x2="512" y2="256"/>
		<line fill="none" stroke="#A9CCDB" stroke-miterlimit="10" x1="0" y1="288" x2="512" y2="288"/>
		<line fill="none" stroke="#A9CCDB" stroke-miterlimit="10" x1="0" y1="320" x2="512" y2="320"/>
		<line fill="none" stroke="#A9CCDB" stroke-miterlimit="10" x1="0" y1="352" x2="512" y2="352"/>
		<line fill="none" stroke="#A9CCDB" stroke-miterlimit="10" x1="0" y1="384" x2="512" y2="384"/>
		<line fill="none" stroke="#A9CCDB" stroke-miterlimit="10" x1="0" y1="416" x2="512" y2="416"/>
		<line fill="none" stroke="#FF0000" stroke-miterlimit="10" x1="0" y1="448" x2="512" y2="448"/>
		<line fill="none" stroke="#A9CCDB" stroke-miterlimit="10" x1="0" y1="480" x2="512" y2="480"/>
		<line fill="none" stroke="#A9CCDB" stroke-miterlimit="10" x1="32" y1="0" x2="32" y2="512"/>
		<line fill="none" stroke="#A9CCDB" stroke-miterlimit="10" x1="64" y1="0" x2="64" y2="512"/>
		<line fill="none" stroke="#A9CCDB" stroke-miterlimit="10" x1="96" y1="0" x2="96" y2="512"/>
		<line fill="none" stroke="#A9CCDB" stroke-miterlimit="10" x1="128" y1="0" x2="128" y2="512"/>
		<line fill="none" stroke="#A9CCDB" stroke-miterlimit="10" x1="160" y1="0" x2="160" y2="512"/>
		<line fill="none" stroke="#A9CCDB" stroke-miterlimit="10" x1="192" y1="0" x2="192" y2="512"/>
		<line fill="none" stroke="#A9CCDB" stroke-miterlimit="10" x1="224" y1="0" x2="224" y2="512"/>
		<line fill="none" stroke="#A9CCDB" stroke-miterlimit="10" x1="256" y1="0" x2="256" y2="512"/>
		<line fill="none" stroke="#A9CCDB" stroke-miterlimit="10" x1="288" y1="0" x2="288" y2="512"/>
		<line fill="none" stroke="#A9CCDB" stroke-miterlimit="10" x1="320" y1="0" x2="320" y2="512"/>
		<line fill="none" stroke="#A9CCDB" stroke-miterlimit="10" x1="352" y1="0" x2="352" y2="512"/>
		<line fill="none" stroke="#A9CCDB" stroke-miterlimit="10" x1="384" y1="0" x2="384" y2="512"/>
		<line fill="none" stroke="#A9CCDB" stroke-miterlimit="10" x1="416" y1="0" x2="416" y2="512"/>
		<line fill="none" stroke="#A9CCDB" stroke-miterlimit="10" x1="448" y1="0" x2="448" y2="512"/>
		<line fill="none" stroke="#A9CCDB" stroke-miterlimit="10" x1="480" y1="0" x2="480" y2="512"/>
	</g>
	<path d="M312.041 142.526h41.596c-4.65 -6.888 -12.23 -11.62 -20.797 -11.62C324.27 130.906 316.691 135.638 312.041 142.526zM39.631 314.751c0 1.927 1.161 3.426 2.93 3.426h30.602v-75.562l-33.531 27.737V314.751zM32.672 319.401V103.859c0 -3.85 2.618 -6.795 6.154 -6.795h354.308c3.537 0 6.48 2.946 6.48 6.795v38.667h31.633v-64.81 c0 -7.7 -5.428 -13.716 -12.5 -13.716H13.213C6.14 64 0.407 70.016 0.407 77.716v268.409c0 7.7 5.733 14.067 12.807 14.067h59.949 v-33.75H38.827C35.291 326.442 32.672 323.251 32.672 319.401zM357.227 294.103v-0.034c0 -0.708 -1.281 -1.172 -2.227 -1.172c-0.488 0 -0.875 0.112 -1.289 0.327l-1.012 0.861l-59.727 49.295 l34.35 40.768c0.596 0.708 0.559 1.812 -0.094 2.463c-0.652 0.65 -1.66 0.602 -2.258 -0.106l-33.656 -39.957l-19.836 -23.324 l-42.826 -50.74l-1.202 -1.423c-0.484 -0.323 -1.052 -0.511 -1.662 -0.511c-0.544 0 -1.055 0.149 -1.502 0.41l-0.83 0.659l-104.11 85.878 v44.401c0 1.925 1.486 3.76 3.255 3.76h328.93l-93.535 -110.834L357.227 294.103zM498.789 150.792H93.56c-7.072 0 -12.805 6.242 -12.805 13.943v268.308c0 7.7 5.732 13.943 12.805 13.943h405.229 c7.072 0 12.805 -6.243 12.805 -13.943V164.735C511.594 157.034 505.861 150.792 498.789 150.792zM479.33 406.264 c0 3.849 -2.869 6.971 -6.406 6.971H118.791c-3.536 0 -6.403 -3.122 -6.403 -6.971V190.827c0 -3.85 2.867 -6.971 6.403 -6.971h354.133 c3.537 0 6.406 3.122 6.406 6.971V406.264zM385 246.199C385 231.08831175 397.08831175 219 412.102 219C426.91168825 219 439 231.08831175 439 246.199C439 260.91168825 426.91168825 273 412.102 273C397.08831175 273 385 260.91168825 385 246.199Z"/>
</svg>
