<?xml version="1.0" encoding="utf-8"?>
<!DOCTYPE svg PUBLIC "-//W3C//DTD SVG 1.1//EN" "http://www.w3.org/Graphics/SVG/1.1/DTD/svg11.dtd">
<svg
	version="1.1"
	id="Layer_1"
	xmlns="http://www.w3.org/2000/svg"
	xmlns:xlink="http://www.w3.org/1999/xlink"
	x="0px"
	y="0px"
	width="512px"
	height="512px"
	viewBox="0 0 512 512"
	enable-background="new 0 0 512 512"
	xml:space="preserve"
>
	<g id="Grid">
		<rect x="0" fill="none" stroke="#A9CCDB" stroke-miterlimit="10" width="512" height="512"/>
		<line fill="none" stroke="#A9CCDB" stroke-miterlimit="10" x1="0" y1="32" x2="512" y2="32"/>
		<line fill="none" stroke="#A9CCDB" stroke-miterlimit="10" x1="0" y1="64" x2="512" y2="64"/>
		<line fill="none" stroke="#A9CCDB" stroke-miterlimit="10" x1="0" y1="96" x2="512" y2="96"/>
		<line fill="none" stroke="#A9CCDB" stroke-miterlimit="10" x1="0" y1="128" x2="512" y2="128"/>
		<line fill="none" stroke="#A9CCDB" stroke-miterlimit="10" x1="0" y1="160" x2="512" y2="160"/>
		<line fill="none" stroke="#A9CCDB" stroke-miterlimit="10" x1="0" y1="192" x2="512" y2="192"/>
		<line fill="none" stroke="#A9CCDB" stroke-miterlimit="10" x1="0" y1="224" x2="512" y2="224"/>
		<line fill="none" stroke="#A9CCDB" stroke-miterlimit="10" x1="0" y1="256" x2="512" y2="256"/>
		<line fill="none" stroke="#A9CCDB" stroke-miterlimit="10" x1="0" y1="288" x2="512" y2="288"/>
		<line fill="none" stroke="#A9CCDB" stroke-miterlimit="10" x1="0" y1="320" x2="512" y2="320"/>
		<line fill="none" stroke="#A9CCDB" stroke-miterlimit="10" x1="0" y1="352" x2="512" y2="352"/>
		<line fill="none" stroke="#A9CCDB" stroke-miterlimit="10" x1="0" y1="384" x2="512" y2="384"/>
		<line fill="none" stroke="#A9CCDB" stroke-miterlimit="10" x1="0" y1="416" x2="512" y2="416"/>
		<line fill="none" stroke="#FF0000" stroke-miterlimit="10" x1="0" y1="448" x2="512" y2="448"/>
		<line fill="none" stroke="#A9CCDB" stroke-miterlimit="10" x1="0" y1="480" x2="512" y2="480"/>
		<line fill="none" stroke="#A9CCDB" stroke-miterlimit="10" x1="32" y1="0" x2="32" y2="512"/>
		<line fill="none" stroke="#A9CCDB" stroke-miterlimit="10" x1="64" y1="0" x2="64" y2="512"/>
		<line fill="none" stroke="#A9CCDB" stroke-miterlimit="10" x1="96" y1="0" x2="96" y2="512"/>
		<line fill="none" stroke="#A9CCDB" stroke-miterlimit="10" x1="128" y1="0" x2="128" y2="512"/>
		<line fill="none" stroke="#A9CCDB" stroke-miterlimit="10" x1="160" y1="0" x2="160" y2="512"/>
		<line fill="none" stroke="#A9CCDB" stroke-miterlimit="10" x1="192" y1="0" x2="192" y2="512"/>
		<line fill="none" stroke="#A9CCDB" stroke-miterlimit="10" x1="224" y1="0" x2="224" y2="512"/>
		<line fill="none" stroke="#A9CCDB" stroke-miterlimit="10" x1="256" y1="0" x2="256" y2="512"/>
		<line fill="none" stroke="#A9CCDB" stroke-miterlimit="10" x1="288" y1="0" x2="288" y2="512"/>
		<line fill="none" stroke="#A9CCDB" stroke-miterlimit="10" x1="320" y1="0" x2="320" y2="512"/>
		<line fill="none" stroke="#A9CCDB" stroke-miterlimit="10" x1="352" y1="0" x2="352" y2="512"/>
		<line fill="none" stroke="#A9CCDB" stroke-miterlimit="10" x1="384" y1="0" x2="384" y2="512"/>
		<line fill="none" stroke="#A9CCDB" stroke-miterlimit="10" x1="416" y1="0" x2="416" y2="512"/>
		<line fill="none" stroke="#A9CCDB" stroke-miterlimit="10" x1="448" y1="0" x2="448" y2="512"/>
		<line fill="none" stroke="#A9CCDB" stroke-miterlimit="10" x1="480" y1="0" x2="480" y2="512"/>
	</g>
	<path d="M247.919 213.008c0.024 -0.044 0.061 -0.084 0.085 -0.128c-0.14 -0.494 -0.256 -0.93 -0.317 -1.241 C247.767 212.094 247.848 212.549 247.919 213.008zM353.414 313.192c0.005 0 0.005 -0.004 0.004 -0.007 c-0.014 -0.006 -0.059 -0.002 -0.069 -0.017C353.363 313.183 353.399 313.181 353.414 313.192zM355.945 313.331 c-0.613 -0.054 -1.964 0.219 -2.531 -0.139C353.162 314.363 353.695 314.764 355.945 313.331zM238.176 0.78800000000001 C97.224 10.631 -9.056 132.872 0.787 273.822c9.843 140.949 132.083 247.233 273.035 237.39 c140.949 -9.842 247.234 -132.085 237.393 -273.034C501.37 97.228 379.125 -9.055 238.176 0.78800000000001zM408.155 89.102 c-8.774 0.878 -14.896 1.323 -21.622 6.693c-2.708 2.164 -4.457 4.907 -8 6.174c-3.175 1.136 -6.729 0.583 -9.864 1.896 c-11.322 4.744 -7.749 29.452 -23.291 26.77c-7.302 -1.261 -12.95 -9.389 -16.95 -14.674c-3.521 -4.651 -9.598 -8.277 -6.107 -14.647 c-1.755 0.584 -3.696 0.193 -5.43 0.652c2.073 -5.55 10.313 -5.651 11.486 -8.493c2.922 -7.123 -9.893 -6.95 -13.575 -7.651 c4.031 -4.949 6.673 1.102 10.898 -0.252c4.063 -1.304 -2.633 -6.307 -5.152 -6.745c-0.906 -0.158 -15.164 5.1 -7.268 -3.026 c-10.861 -5.901 -21.718 -11.804 -32.58 -17.709c-1.236 7.497 14.646 10.598 19.92 12.843c-0.577 3.099 -5.004 7.866 -8.723 6.819 c-3.501 -0.986 -2.51 -6.744 -7.628 -5.816c-3.086 8.821 8.21 5.518 9.642 10.69c1.63 5.894 -4.095 3.75 -6.235 3.793 c-0.511 0.011 -4.773 -3.829 -4.771 -0.697c0 3.717 6.501 1.815 7.226 5.519c-7.665 0.847 -11.785 -1.654 -18.333 -5.374 c-7.643 -4.338 -11.361 -3.639 -20.308 -3.014c2.6 -1.286 6.228 -2.359 8.394 -4.289c1.182 -1.055 5.754 -6.165 6.003 -7.253 c1.066 -4.687 -0.371 -4.238 -4.976 -6.941c-4.091 -2.399 -9.164 -6.865 -13.964 -7.48c-17.389 -2.227 -4.208 15.853 -17.044 19.37 c0.223 -0.005 0.466 -0.011 0.658 -0.024l-0.746 0.052c0.031 -0.005 0.059 -0.019 0.087 -0.028c-3.02 0.102 -8.712 -0.238 -10.544 1.488 c-1.292 1.215 -1.093 5.716 -2.51 7.449c-2.522 3.094 -6.543 3.959 -9.648 6.281c-3.031 2.267 -9.663 8.006 -11.278 11.698 c-5.955 13.605 16.681 16.119 25.42 19.362c3.949 1.467 15.303 3.059 17.589 5.81c3.066 3.696 -1.883 7.707 4.145 10.033 c1.923 0.74 5.78 0.648 7.259 -1.269c2.404 -3.119 -1.312 -3.527 -2.174 -6.879c-1.666 -6.453 0.509 -3.995 3.626 -6.653 c6.355 -5.415 4.825 -5.61 1.864 -13.327c-1.376 -3.592 -6.312 -13.538 -2.789 -16.505c4.598 -3.875 15.308 0.854 19.054 1.051 c4.36 0.229 7.231 6.046 9.759 8.331c1.678 1.516 4.717 4.773 7.425 4.207c4.298 -0.895 2.217 -4.562 4.61 -6.485 c6.424 -5.156 8.646 1.08 11.78 7.254c2.947 5.797 5.497 7.847 10.27 11.365c2.218 1.639 11.83 7.366 11.24 11.349 c-0.403 2.685 -10.596 7.425 -13.334 8.509c-10.012 3.957 -29.812 -3.252 -30.741 13.126c3.867 -1.757 14.52 -11.776 18.215 -7.638 c1.685 1.878 -0.885 4.961 -0.095 6.888c2.346 5.774 6.759 3.398 11.471 2.107c-0.31 0.226 -0.633 0.427 -0.974 0.608 c6.295 -3.812 5.666 -3.062 8.281 -8.717c0.854 -1.845 2.01 -6.251 3.299 -7.62c4.443 -4.698 5.383 -1.743 8.558 1.422 c0.833 0.833 8.834 10.794 6.21 10.453c-8.575 -1.106 -16.678 -0.312 -23.369 4.801c-3.854 2.952 -7.426 6.82 -12.128 8.931 c-1.127 0.503 -9.635 1.913 -8.725 0.38c1.328 -2.23 6.318 -3.998 8.165 -6.435c-5.724 -1.902 -10.011 3.479 -14.176 6.743 c-4.485 2.519 -5.279 6.684 -8.979 10.546c-1.616 1.685 -4.857 2.177 -6.405 4.354c-1.505 2.111 -1.491 5.264 -2.914 7.27 c-0.998 1.402 -3.854 0.795 -4.854 2.876c-1.302 2.719 1.711 4.944 1.22 6.873c-0.902 3.5 -7.206 6.854 -9.536 9.494 c0.312 -0.345 0.621 -0.698 0.925 -1.056c-2.325 2.805 -5.363 4.962 -7.109 8.145c1.2 4.235 4.749 14.288 4.125 16.702 c-2.066 7.944 -7.969 -3.684 -10.239 -6.635c-7.802 -10.145 -21.413 -2.04 -30.989 -0.486c-12.246 1.989 -23.202 18.828 -14.693 31.283 c4.085 5.972 10.392 7.952 17.335 6.018c6.177 -1.72 7.447 -10.62 13.337 -11.19c10.826 -1.047 0.982 10.611 0.323 14.683 c-0.608 3.772 1.636 3.962 5.52 4.612c2.869 0.479 6.733 -1.682 9.291 -0.241c1.612 0.909 1.926 6.484 3.924 4.579 c-3.931 3.749 -2.384 11.879 2.1 14.546c4.973 2.957 10.344 -0.48 15.396 0.437c9.54 1.739 4.849 -1.055 12.734 -6.6 c5.321 -3.737 6.511 0.179 10.308 -0.071c2.585 -0.17 3.967 -4.01 8.365 -3.226c3.583 0.639 5.165 3.261 9.414 3.593 c1.742 0.133 3.459 -0.892 5.116 -0.826c7.838 0.32 14.139 4.874 20.584 8.94c5.309 3.345 8.601 2.363 14.618 3.638 c4.398 0.928 12.786 6.609 12.762 12.115c-0.005 0.983 -3.428 6.174 -3.917 8.436c1.158 0.688 8.708 -1.562 10.94 -1.883 c-0.677 0.911 -5.644 4.947 -5.78 2.999c0.07 0.996 3.909 2.79 4.854 3.367c2.105 -9.038 6.98 -3.657 12.519 -1.843 c4.71 1.544 10.354 1.252 15.319 2.072c4.216 0.7 13.556 2.859 16.865 6.035c3.983 3.819 1.888 10.623 -0.565 14.873 c-3.208 5.569 -8.462 7.992 -10.259 14.404c-1.418 5.086 0.257 10.004 -0.368 15.575c-0.844 7.536 -2.117 5.003 -6.594 9.881 c-3.767 4.104 0.152 3.164 -5.167 5.984c-5.347 2.838 -10.254 2.447 -13.65 8.764c0.126 -0.39 0.225 -0.781 0.302 -1.186 c-1.452 2.368 -1.937 7.044 -2.595 8.609c-1.655 4.002 -4.14 6.627 -6.959 10.06c-1.082 1.315 -10.788 16.722 -11.489 15.587 c-0.905 -1.475 -9.148 2.185 -9.706 0.028c0.465 1.812 0.006 1.226 2.181 2.138c-1.105 12.183 -6.074 14.332 -17.895 15.282 c1.421 5.72 -3.963 4.933 -6.211 8.218c-1.313 1.92 -1.645 7.077 -2.479 9.503c-0.521 1.521 -4.725 7.765 -4.643 8.943 c0.07 1.079 1.738 2.555 3.304 3.972c-8.224 2.231 -16.647 3.977 -25.234 5.28c1.474 -2.149 1.737 -3.967 -3.429 -3.853 c1.115 -3.84 4.202 -6.203 5.321 -9.924c0.53 -1.757 -0.056 -2.396 0.378 -4.13c1.475 -5.984 0.812 -3.72 -0.567 -8.193 c-3.232 -10.479 -0.063 -13.629 2.16 -23.587c2.281 -10.235 1.096 -23.213 2.251 -34.145c0.547 -5.231 1.282 -16.085 -0.854 -20.846 c-2.405 -5.36 -11.605 -9.072 -15.938 -12.488c-6.133 -4.851 -9.596 -10.316 -14.331 -16.513c-2.406 -3.146 -5.11 -6.209 -7.056 -9.681 c-4.163 -7.413 -0.214 -3.101 0.079 -7.672c0.279 -4.415 -1.099 -8.244 0.318 -12.958c1.565 -5.21 6.139 -8.706 7.355 -13.935 c1.101 -4.653 -0.378 -10.305 -5.165 -11.497c-2.667 -0.669 -5.406 1.491 -8.057 1.245c-3.697 -0.337 -8.023 -2.775 -11.043 -4.759 c-4.216 -2.769 -6.063 -7.621 -10.529 -10.214c-3.736 -2.162 -6.174 -0.542 -10.07 -1.402c-4.064 -0.896 -6.864 -5.636 -10.184 -6.95 c-4.981 -1.969 -7.466 1.531 -12.601 1.219c-4.367 -0.266 -11.301 -4.602 -15.471 -6.129c-8.478 -3.105 -13.769 -6.816 -17.638 -14.931 c-3.315 -6.959 -7.652 -10.01 -12.902 -15.633c-5.318 -5.696 -7.21 -10.733 -14.871 -11.817c-0.899 -0.13 2.29 6.213 2.608 6.714 c3.046 4.807 7.414 9.086 10.996 13.507c5.271 6.515 3.319 7.943 -2.019 1.66c-6.104 -7.187 -13.1 -14.27 -18.498 -21.954 c-2.041 -2.906 -1.826 -4.891 -5.042 -7.561c-3.109 -2.577 -7.017 -3.665 -10.136 -6.104c-11.219 -8.758 -14.024 -21.298 -13.765 -34.917 c0.083 -4.437 1.431 -8.078 0.432 -12.269c-0.826 -3.48 -3.11 -6.247 -5.887 -8.662c-0.931 -1.271 -3.26 -4.409 -3.397 -4.609 c-2.674 -3.812 -4.812 -7.6 -8.848 -10.601c-2.314 -1.726 -8.273 -5.73 -13.853 -9.043c21.827 -31.486 51.46 -57.303 86.325 -74.482 c0.411 1.783 1.311 3.531 2.593 5.173c3.258 4.17 6.045 3.628 11.889 4.438c-0.15 6.727 -7.961 7.326 -13.301 6.969 c-6.374 -0.422 -13.163 -2.057 -18.246 3.858c3.147 1.606 11.932 8.101 10.316 0.786c6.026 -0.725 11.86 -1.314 17.829 -1.005 c2.392 0.127 10.521 2.237 12.59 0.872c0.867 -0.574 1.52 -5.099 2.378 -6.536c-1.686 0.127 -3.555 -0.598 -5.223 -0.319 c3.569 -5.291 7.748 -1.63 12.896 0.33c-5.258 3.72 -1.444 11.488 3.471 4.617c4.036 -5.649 -1.723 -9.141 -7.539 -11.862 c5.152 -7.454 8.589 -8.336 14.457 -0.736c0.533 -4.978 4.636 -3.286 8.809 -3.214l-0.085 -1.228c-1.823 0.169 -3.845 -0.744 -5.638 -0.427 c3.752 -7.034 0.948 -8.385 6.833 -11.006c4.687 -2.087 18.518 -1.416 19.892 -6.053c-9.47 2.538 -21.036 3.792 -29.394 8.763 c-3.602 2.143 -7.636 8.395 -11.636 4.791c-4.099 -3.692 2.013 -10.521 5.232 -12.698l-0.803 0.056 c14.965 -4.29 30.575 -7.123 46.714 -8.25c10.43 -0.729 20.732 -0.674 30.888 -0.001c-3.354 2.072 -0.692 3.127 -3.099 5.172 c-4.593 3.899 -12.982 7.471 -18.588 10.125c7.324 -0.532 25.538 5.118 28.232 -5.396c-2.392 -0.195 -4.775 -0.396 -7.163 -0.595 c4.21 -3.235 8.968 -5.947 14.017 -8.046c47.29 5.985 90.434 26.747 124.313 57.744C408.597 89.07 408.371 89.079 408.155 89.102zM455.716 175.82c0.357 -0.925 1.317 -1.29 1.672 -2.059c0.743 -1.617 0.48 -2.659 1.438 -4.067c1.023 -1.52 2.515 -1.98 3.688 -3.195 c0.475 -0.491 0.727 -0.929 0.932 -1.375c4.496 10.244 8.255 20.895 11.217 31.896c-0.061 0.084 -0.09 0.208 -0.168 0.281 c-0.517 0.472 -4.057 1.253 -4.789 1.329c-2.585 0.282 -4.628 -1.303 -6.601 -2.792c-2.007 -1.511 -4.388 -3.554 -5.882 -5.587 c-1.595 -2.172 -0.87 -4.568 -0.949 -7.172C456.207 180.89 454.928 177.852 455.716 175.82zM466.809 292.634 c-4.65 -3.504 -10.179 -8.248 -13.64 -12.965c-3.696 -5.026 -2.022 -10.581 -2.201 -16.621c-0.15 -5.082 -3.13 -12.119 -1.294 -16.831 c0.842 -2.15 3.062 -2.999 3.873 -4.771c1.731 -3.75 1.12 -6.162 3.336 -9.438c2.377 -3.52 5.83 -4.585 8.553 -7.403 c2.854 -2.956 2.618 -5.115 4.301 -8.764c1.229 -2.667 4.246 -7.185 7.229 -9.644c2.481 11.039 4.167 22.4 4.979 34.025 c1.404 20.111 0.091 39.79 -3.569 58.71C474.074 298.136 470.386 295.334 466.809 292.634z"/>
</svg>
