<?xml version="1.0" encoding="utf-8"?>
<!DOCTYPE svg PUBLIC "-//W3C//DTD SVG 1.1//EN" "http://www.w3.org/Graphics/SVG/1.1/DTD/svg11.dtd">
<svg
	version="1.1"
	id="Layer_1"
	xmlns="http://www.w3.org/2000/svg"
	xmlns:xlink="http://www.w3.org/1999/xlink"
	x="0px"
	y="0px"
	width="512px"
	height="512px"
	viewBox="0 0 512 512"
	enable-background="new 0 0 512 512"
	xml:space="preserve"
>
	<g id="Grid">
		<rect x="0" fill="none" stroke="#A9CCDB" stroke-miterlimit="10" width="512" height="512"/>
		<line fill="none" stroke="#A9CCDB" stroke-miterlimit="10" x1="0" y1="32" x2="512" y2="32"/>
		<line fill="none" stroke="#A9CCDB" stroke-miterlimit="10" x1="0" y1="64" x2="512" y2="64"/>
		<line fill="none" stroke="#A9CCDB" stroke-miterlimit="10" x1="0" y1="96" x2="512" y2="96"/>
		<line fill="none" stroke="#A9CCDB" stroke-miterlimit="10" x1="0" y1="128" x2="512" y2="128"/>
		<line fill="none" stroke="#A9CCDB" stroke-miterlimit="10" x1="0" y1="160" x2="512" y2="160"/>
		<line fill="none" stroke="#A9CCDB" stroke-miterlimit="10" x1="0" y1="192" x2="512" y2="192"/>
		<line fill="none" stroke="#A9CCDB" stroke-miterlimit="10" x1="0" y1="224" x2="512" y2="224"/>
		<line fill="none" stroke="#A9CCDB" stroke-miterlimit="10" x1="0" y1="256" x2="512" y2="256"/>
		<line fill="none" stroke="#A9CCDB" stroke-miterlimit="10" x1="0" y1="288" x2="512" y2="288"/>
		<line fill="none" stroke="#A9CCDB" stroke-miterlimit="10" x1="0" y1="320" x2="512" y2="320"/>
		<line fill="none" stroke="#A9CCDB" stroke-miterlimit="10" x1="0" y1="352" x2="512" y2="352"/>
		<line fill="none" stroke="#A9CCDB" stroke-miterlimit="10" x1="0" y1="384" x2="512" y2="384"/>
		<line fill="none" stroke="#A9CCDB" stroke-miterlimit="10" x1="0" y1="416" x2="512" y2="416"/>
		<line fill="none" stroke="#FF0000" stroke-miterlimit="10" x1="0" y1="448" x2="512" y2="448"/>
		<line fill="none" stroke="#A9CCDB" stroke-miterlimit="10" x1="0" y1="480" x2="512" y2="480"/>
		<line fill="none" stroke="#A9CCDB" stroke-miterlimit="10" x1="32" y1="0" x2="32" y2="512"/>
		<line fill="none" stroke="#A9CCDB" stroke-miterlimit="10" x1="64" y1="0" x2="64" y2="512"/>
		<line fill="none" stroke="#A9CCDB" stroke-miterlimit="10" x1="96" y1="0" x2="96" y2="512"/>
		<line fill="none" stroke="#A9CCDB" stroke-miterlimit="10" x1="128" y1="0" x2="128" y2="512"/>
		<line fill="none" stroke="#A9CCDB" stroke-miterlimit="10" x1="160" y1="0" x2="160" y2="512"/>
		<line fill="none" stroke="#A9CCDB" stroke-miterlimit="10" x1="192" y1="0" x2="192" y2="512"/>
		<line fill="none" stroke="#A9CCDB" stroke-miterlimit="10" x1="224" y1="0" x2="224" y2="512"/>
		<line fill="none" stroke="#A9CCDB" stroke-miterlimit="10" x1="256" y1="0" x2="256" y2="512"/>
		<line fill="none" stroke="#A9CCDB" stroke-miterlimit="10" x1="288" y1="0" x2="288" y2="512"/>
		<line fill="none" stroke="#A9CCDB" stroke-miterlimit="10" x1="320" y1="0" x2="320" y2="512"/>
		<line fill="none" stroke="#A9CCDB" stroke-miterlimit="10" x1="352" y1="0" x2="352" y2="512"/>
		<line fill="none" stroke="#A9CCDB" stroke-miterlimit="10" x1="384" y1="0" x2="384" y2="512"/>
		<line fill="none" stroke="#A9CCDB" stroke-miterlimit="10" x1="416" y1="0" x2="416" y2="512"/>
		<line fill="none" stroke="#A9CCDB" stroke-miterlimit="10" x1="448" y1="0" x2="448" y2="512"/>
		<line fill="none" stroke="#A9CCDB" stroke-miterlimit="10" x1="480" y1="0" x2="480" y2="512"/>
	</g>
	<path d="M127.46 415.463c-35.346 0.033 -67.52 -14.284 -90.436 -37.383l0 0C14.048 355.04 -0.024 322.968 0 288.009l0 0 c0.007 -35.643 15.332 -67.599 38.515 -90.32l0 0c23.187 -22.749 54.742 -37.091 88.945 -37.151l0 0 c25.52 -0.074 48.598 6.879 67.836 18.027l0 0c19.317 11.12 34.953 25.957 48.554 41.726l0 0c4.858 5.677 9.495 11.502 13.959 17.38 l0 0c3.172 -4.243 6.417 -8.454 9.761 -12.6l0 0c17.187 -21.127 37.502 -41.266 64.848 -53.548l0 0 c15.546 -6.97 33.23 -11.013 52.188 -10.977l0 0c69.549 0.192 127.212 56.665 127.464 127.465l0 0 c-0.032 35.966 -15.975 67.867 -39.252 90.427l0 0c-23.344 22.569 -54.569 36.921 -88.212 37.027l0 0c-0.152 0 -0.307 0 -0.458 0l0 0 c-24.747 0 -47.176 -7.088 -65.749 -18.251l0 0c-18.765 -11.212 -33.876 -26.035 -47.129 -41.742l0 0c-4.668 -5.59 -9.146 -11.309 -13.471 -17.09 l0 0c-3.269 4.308 -6.631 8.587 -10.095 12.8l0 0c-17.623 21.225 -38.696 41.349 -66.782 53.472l0 0 C164.957 411.542 146.883 415.496 127.46 415.463L127.46 415.463 M127.46 357.258c15.442 -0.067 27.272 -3.714 38.838 -10.284l0 0 c11.492 -6.572 22.555 -16.562 33.477 -29.254l0 0c7.707 -8.853 15.176 -18.951 22.73 -29.701l0 0 c-6.531 -9.303 -13.001 -18.11 -19.639 -26.052l0 0c-14.552 -17.61 -29.175 -30.419 -44.92 -37.129l0 0 c-9.074 -3.87 -18.702 -6.059 -30.487 -6.086l0 0c-17.483 -0.053 -35.11 7.613 -48.171 20.465l0 0 c-13.077 12.888 -21.094 30.098 -21.08 48.792l0 0C58.341 326.517 88.452 357.156 127.46 357.258L127.46 357.258 M312.733 314.275 c14.306 17.7 28.532 30.505 43.377 37.06l0 0c8.558 3.782 17.493 5.885 28.496 5.923l0 0c16.381 0.107 34.326 -7.562 47.663 -20.583 l0 0c13.394 -13.041 21.618 -30.313 21.591 -48.666l0 0c-0.009 -19.025 -7.812 -36.186 -20.578 -48.909l0 0 c-12.792 -12.68 -30.098 -20.362 -48.676 -20.348l0 0c-14.393 0.081 -25.346 3.564 -36.374 10.037l0 0 c-10.933 6.495 -21.686 16.487 -32.403 29.241l0 0c-7.596 8.935 -15.012 19.14 -22.58 30.003l0 0 C299.773 297.4 306.19 306.278 312.733 314.275L312.733 314.275z"/>
</svg>
