<?xml version="1.0" encoding="utf-8"?>
<!DOCTYPE svg PUBLIC "-//W3C//DTD SVG 1.1//EN" "http://www.w3.org/Graphics/SVG/1.1/DTD/svg11.dtd">
<svg
	version="1.1"
	id="Layer_1"
	xmlns="http://www.w3.org/2000/svg"
	xmlns:xlink="http://www.w3.org/1999/xlink"
	x="0px"
	y="0px"
	width="512px"
	height="512px"
	viewBox="0 0 512 512"
	enable-background="new 0 0 512 512"
	xml:space="preserve"
>
	<g id="Grid">
		<rect x="0" fill="none" stroke="#A9CCDB" stroke-miterlimit="10" width="512" height="512"/>
		<line fill="none" stroke="#A9CCDB" stroke-miterlimit="10" x1="0" y1="32" x2="512" y2="32"/>
		<line fill="none" stroke="#A9CCDB" stroke-miterlimit="10" x1="0" y1="64" x2="512" y2="64"/>
		<line fill="none" stroke="#A9CCDB" stroke-miterlimit="10" x1="0" y1="96" x2="512" y2="96"/>
		<line fill="none" stroke="#A9CCDB" stroke-miterlimit="10" x1="0" y1="128" x2="512" y2="128"/>
		<line fill="none" stroke="#A9CCDB" stroke-miterlimit="10" x1="0" y1="160" x2="512" y2="160"/>
		<line fill="none" stroke="#A9CCDB" stroke-miterlimit="10" x1="0" y1="192" x2="512" y2="192"/>
		<line fill="none" stroke="#A9CCDB" stroke-miterlimit="10" x1="0" y1="224" x2="512" y2="224"/>
		<line fill="none" stroke="#A9CCDB" stroke-miterlimit="10" x1="0" y1="256" x2="512" y2="256"/>
		<line fill="none" stroke="#A9CCDB" stroke-miterlimit="10" x1="0" y1="288" x2="512" y2="288"/>
		<line fill="none" stroke="#A9CCDB" stroke-miterlimit="10" x1="0" y1="320" x2="512" y2="320"/>
		<line fill="none" stroke="#A9CCDB" stroke-miterlimit="10" x1="0" y1="352" x2="512" y2="352"/>
		<line fill="none" stroke="#A9CCDB" stroke-miterlimit="10" x1="0" y1="384" x2="512" y2="384"/>
		<line fill="none" stroke="#A9CCDB" stroke-miterlimit="10" x1="0" y1="416" x2="512" y2="416"/>
		<line fill="none" stroke="#FF0000" stroke-miterlimit="10" x1="0" y1="448" x2="512" y2="448"/>
		<line fill="none" stroke="#A9CCDB" stroke-miterlimit="10" x1="0" y1="480" x2="512" y2="480"/>
		<line fill="none" stroke="#A9CCDB" stroke-miterlimit="10" x1="32" y1="0" x2="32" y2="512"/>
		<line fill="none" stroke="#A9CCDB" stroke-miterlimit="10" x1="64" y1="0" x2="64" y2="512"/>
		<line fill="none" stroke="#A9CCDB" stroke-miterlimit="10" x1="96" y1="0" x2="96" y2="512"/>
		<line fill="none" stroke="#A9CCDB" stroke-miterlimit="10" x1="128" y1="0" x2="128" y2="512"/>
		<line fill="none" stroke="#A9CCDB" stroke-miterlimit="10" x1="160" y1="0" x2="160" y2="512"/>
		<line fill="none" stroke="#A9CCDB" stroke-miterlimit="10" x1="192" y1="0" x2="192" y2="512"/>
		<line fill="none" stroke="#A9CCDB" stroke-miterlimit="10" x1="224" y1="0" x2="224" y2="512"/>
		<line fill="none" stroke="#A9CCDB" stroke-miterlimit="10" x1="256" y1="0" x2="256" y2="512"/>
		<line fill="none" stroke="#A9CCDB" stroke-miterlimit="10" x1="288" y1="0" x2="288" y2="512"/>
		<line fill="none" stroke="#A9CCDB" stroke-miterlimit="10" x1="320" y1="0" x2="320" y2="512"/>
		<line fill="none" stroke="#A9CCDB" stroke-miterlimit="10" x1="352" y1="0" x2="352" y2="512"/>
		<line fill="none" stroke="#A9CCDB" stroke-miterlimit="10" x1="384" y1="0" x2="384" y2="512"/>
		<line fill="none" stroke="#A9CCDB" stroke-miterlimit="10" x1="416" y1="0" x2="416" y2="512"/>
		<line fill="none" stroke="#A9CCDB" stroke-miterlimit="10" x1="448" y1="0" x2="448" y2="512"/>
		<line fill="none" stroke="#A9CCDB" stroke-miterlimit="10" x1="480" y1="0" x2="480" y2="512"/>
	</g>
	<path d="M155.847 20.351c0.262 -0.112 0.523 -0.226 0.786 -0.336C156.371 20.125 156.109 20.239 155.847 20.351zM276.308 0.80099999999999c1.719 0.135 3.433 0.288 5.142 0.457C279.739 1.091 278.027 0.93400000000003 276.308 0.80099999999999zM269.734 0.36900000000003c1.419 0.075 2.831 0.171 4.243 0.269C272.565 0.541 271.153 0.44200000000001 269.734 0.36900000000003zM262.955 0.09699999999998c1.071 0.029 2.138 0.08 3.205 0.122C265.092 0.178 264.027 0.125 262.955 0.09699999999998zM256.027 0c-0.004 0 -0.009 0 -0.014 0c0.092 0 0.183 0.003 0.275 0.004C256.202 0.0029999999999859 256.115 0 256.027 0zM79.274 70.814c0.091 -0.086 0.182 -0.173 0.273 -0.26C79.457 70.641 79.366 70.728 79.274 70.814zM234.712 0.88999999999999c0.733 -0.06 1.465 -0.126 2.2 -0.181C236.177 0.76400000000001 235.445 0.82999999999998 234.712 0.88999999999999zM215.977 3.126c0.696 -0.109 1.392 -0.216 2.09 -0.32C217.369 2.91 216.672 3.017 215.977 3.126zM161.774 17.914c0.17 -0.067 0.339 -0.138 0.51 -0.205C162.113 17.776 161.944 17.847 161.774 17.914zM222.152 2.234c0.724 -0.096 1.447 -0.191 2.172 -0.281C223.599 2.043 222.875 2.139 222.152 2.234zM30.894 134.035c0.025 -0.047 0.051 -0.094 0.077 -0.141C30.945 133.94 30.919 133.987 30.894 134.035zM33.887 128.677c0.04 -0.069 0.079 -0.138 0.119 -0.206C33.966 128.539 33.927 128.608 33.887 128.677zM37.036 123.345c0.032 -0.052 0.063 -0.105 0.095 -0.157C37.1 123.24 37.068 123.292 37.036 123.345zM209.86 4.162c0.653 -0.119 1.307 -0.233 1.961 -0.347C211.167 3.928 210.513 4.042 209.86 4.162zM203.798 5.34c0.591 -0.123 1.184 -0.239 1.776 -0.357C204.981 5.101 204.389 5.217 203.798 5.34zM191.852 8.113c0.315 -0.082 0.633 -0.157 0.949 -0.237C192.485 7.956 192.167 8.031 191.852 8.113zM228.395 1.488c0.736 -0.079 1.471 -0.161 2.208 -0.233C229.865 1.328 229.13 1.409 228.395 1.488zM197.798 6.657c0.488 -0.114 0.979 -0.22 1.467 -0.331C198.777 6.437 198.286 6.543 197.798 6.657zM241.162 0.44c0.695 -0.04 1.388 -0.088 2.084 -0.122C242.549 0.35300000000001 241.856 0.39999999999998 241.162 0.44zM74.939 75.052c0.058 -0.059 0.117 -0.117 0.176 -0.175C75.056 74.935 74.997 74.993 74.939 75.052zM150.138 22.865c0.297 -0.135 0.592 -0.271 0.889 -0.405C150.73 22.594 150.435 22.729 150.138 22.865zM247.9 0.142c0.572 -0.018 1.141 -0.046 1.714 -0.061C249.041 0.095000000000027 248.472 0.12400000000002 247.9 0.142zM503.799 191.5H512V32.027l-59.332 59.332C411.041 41.735 350.789 8.323 282.597 1.37 C389.794 12.436 477.362 89.647 503.799 191.5zM133.755 31.036c0.218 -0.119 0.438 -0.236 0.657 -0.354C134.193 30.8 133.974 30.917 133.755 31.036zM128.495 33.98c0.118 -0.068 0.237 -0.134 0.355 -0.202C128.731 33.846 128.613 33.913 128.495 33.98zM139.11 28.203c0.275 -0.141 0.55 -0.281 0.826 -0.422C139.66 27.922 139.385 28.062 139.11 28.203zM88.374 62.534c0.065 -0.057 0.129 -0.113 0.195 -0.17C88.503 62.42 88.438 62.477 88.374 62.534zM256.014 62c-0.004 0 -0.009 0 -0.014 0c-51.819 0 -100.537 20.18 -137.179 56.821c-20.863 20.863 -36.379 45.642 -45.878 72.679 h0.023c9.503 -27.036 25.02 -51.816 45.882 -72.679C155.487 82.183 204.2 62.004 256.014 62zM144.565 25.481c0.3 -0.146 0.6 -0.291 0.901 -0.435C145.166 25.19 144.865 25.335 144.565 25.481zM83.745 66.648c0.094 -0.086 0.188 -0.172 0.283 -0.258C83.933 66.476 83.839 66.562 83.745 66.648zM439.061 191.5c-7.047 -20.047 -17.405 -38.849 -30.795 -55.737L352.527 191.5H439.061zM37.131 123.188c10.665 -17.54 23.378 -33.695 37.808 -48.136C60.508 89.493 47.797 105.647 37.131 123.188zM75.115 74.877c1.371 -1.37 2.758 -2.724 4.16 -4.062C77.873 72.153 76.486 73.507 75.115 74.877zM84.028 66.39c1.434 -1.301 2.882 -2.587 4.346 -3.856C86.91 63.803 85.462 65.088 84.028 66.39zM79.548 70.555c1.384 -1.318 2.783 -2.62 4.197 -3.907C82.331 67.935 80.932 69.237 79.548 70.555zM34.006 128.471c0.991 -1.721 2.001 -3.43 3.03 -5.126C36.007 125.041 34.997 126.749 34.006 128.471zM30.971 133.894c0.952 -1.751 1.925 -3.49 2.917 -5.217C32.896 130.403 31.923 132.142 30.971 133.894zM88.568 62.364c12.334 -10.676 25.7 -20.194 39.926 -28.383C114.267 42.17 100.904 51.688 88.568 62.364zM151.027 22.46c1.598 -0.72 3.206 -1.421 4.82 -2.109C154.232 21.039 152.625 21.74 151.027 22.46zM408.266 135.763l0.09 -0.09c-4.685 -5.817 -9.732 -11.435 -15.149 -16.851C356.564 82.18 307.847 62 256.027 62 c-0.004 0 -0.009 0 -0.014 0c51.814 0.004 100.526 20.183 137.165 56.821C398.571 124.214 403.598 129.875 408.266 135.763zM281.449 1.257c0.383 0.037 0.766 0.074 1.147 0.113C282.215 1.331 281.832 1.295 281.449 1.257zM30.894 134.035c-9.754 17.966 -17.42 37.228 -22.673 57.465h0.007C13.48 171.265 21.141 152 30.894 134.035zM134.412 30.682c1.556 -0.842 3.122 -1.668 4.698 -2.479C137.534 29.013 135.969 29.84 134.412 30.682zM162.284 17.709c9.586 -3.774 19.457 -6.986 29.568 -9.597C181.74 10.723 171.871 13.936 162.284 17.709zM192.801 7.876c1.66 -0.422 3.325 -0.83 4.997 -1.219C196.125 7.045 194.461 7.455 192.801 7.876zM199.266 6.326c1.506 -0.341 3.016 -0.672 4.532 -0.986C202.281 5.654 200.772 5.985 199.266 6.326zM156.633 20.015c1.704 -0.719 3.418 -1.418 5.141 -2.101C160.051 18.597 158.337 19.296 156.633 20.015zM139.936 27.781c1.534 -0.782 3.078 -1.549 4.63 -2.3C143.013 26.232 141.47 27 139.936 27.781zM205.574 4.983c1.425 -0.285 2.853 -0.56 4.286 -0.821C208.427 4.422 206.999 4.698 205.574 4.983zM128.85 33.778c1.624 -0.932 3.259 -1.846 4.906 -2.742C132.109 31.933 130.474 32.847 128.85 33.778zM145.466 25.046c1.548 -0.743 3.106 -1.469 4.671 -2.181C148.572 23.577 147.015 24.303 145.466 25.046zM256 0c-2.135 0 -4.264 0.029 -6.386 0.081c2.127 -0.052 4.26 -0.081 6.4 -0.081C256.009 0 256.004 0 256 0zM243.246 0.31799999999998c1.547 -0.076 3.1 -0.128 4.654 -0.177C246.346 0.18900000000002 244.793 0.24200000000002 243.246 0.31799999999998zM256.289 0.0040000000000191c2.229 0.002 4.451 0.035 6.666 0.093C260.74 0.038000000000011 258.518 0.0059999999999718 256.289 0.0040000000000191zM273.978 0.63799999999998c0.776 0.053 1.555 0.103 2.33 0.163C275.532 0.74000000000001 274.754 0.69099999999997 273.978 0.63799999999998zM211.821 3.814c1.381 -0.24 2.767 -0.47 4.155 -0.688C214.588 3.344 213.203 3.574 211.821 3.814zM266.16 0.21899999999999c1.192 0.046 2.387 0.088 3.574 0.15C268.547 0.30599999999998 267.353 0.26499999999999 266.16 0.21899999999999zM224.324 1.954c1.354 -0.167 2.711 -0.319 4.07 -0.465C227.035 1.634 225.678 1.787 224.324 1.954zM218.066 2.806c1.358 -0.202 2.721 -0.391 4.085 -0.572C220.787 2.415 219.425 2.604 218.066 2.806zM230.603 1.255c1.366 -0.134 2.737 -0.251 4.11 -0.365C233.34 1.003 231.969 1.121 230.603 1.255zM236.912 0.709c1.413 -0.104 2.831 -0.188 4.25 -0.269C239.743 0.52100000000002 238.325 0.60500000000002 236.912 0.709zM72.943 191.5c9.499 -27.037 25.015 -51.816 45.878 -72.679C155.463 82.18 204.181 62 256 62c0.004 0 0.009 0 0.014 0 s0.009 0 0.014 0c51.819 0 100.537 20.18 137.179 56.821c5.417 5.417 10.465 11.034 15.149 16.851l-0.09 0.09 c13.39 16.888 23.748 35.69 30.795 55.737h64.738C477.362 89.647 389.794 12.436 282.597 1.37 c-0.382 -0.039 -0.765 -0.076 -1.147 -0.113c-1.709 -0.168 -3.423 -0.322 -5.142 -0.457c-0.775 -0.06 -1.554 -0.11 -2.33 -0.163 c-1.412 -0.098 -2.824 -0.194 -4.243 -0.269c-1.188 -0.062 -2.382 -0.104 -3.574 -0.15c-1.067 -0.042 -2.134 -0.093 -3.205 -0.122 c-2.215 -0.058 -4.437 -0.091 -6.666 -0.093c-0.092 0 -0.184 -0.004 -0.275 -0.004c-2.14 0 -4.273 0.029 -6.4 0.081 c-0.573 0.014 -1.142 0.042 -1.714 0.061c-1.554 0.048 -3.107 0.101 -4.654 0.177c-0.696 0.034 -1.389 0.082 -2.084 0.122 c-1.418 0.081 -2.837 0.165 -4.25 0.269c-0.735 0.054 -1.467 0.121 -2.2 0.181c-1.373 0.113 -2.744 0.23 -4.11 0.365 c-0.737 0.073 -1.472 0.155 -2.208 0.233c-1.359 0.146 -2.717 0.298 -4.07 0.465c-0.725 0.089 -1.449 0.185 -2.172 0.281 c-1.365 0.181 -2.728 0.37 -4.085 0.572c-0.698 0.104 -1.394 0.21 -2.09 0.32c-1.389 0.218 -2.774 0.448 -4.155 0.688 c-0.654 0.114 -1.309 0.229 -1.961 0.347c-1.433 0.261 -2.861 0.536 -4.286 0.821c-0.592 0.118 -1.185 0.234 -1.776 0.357 c-1.516 0.314 -3.026 0.646 -4.532 0.986c-0.489 0.111 -0.979 0.217 -1.467 0.331c-1.672 0.389 -3.337 0.797 -4.997 1.219 c-0.316 0.08 -0.634 0.155 -0.949 0.237c-10.112 2.61 -19.982 5.822 -29.568 9.597c-0.17 0.067 -0.339 0.137 -0.51 0.205 c-1.723 0.683 -3.437 1.382 -5.141 2.101c-0.263 0.111 -0.524 0.225 -0.786 0.336c-1.615 0.688 -3.222 1.389 -4.82 2.109 c-0.297 0.134 -0.592 0.27 -0.889 0.405c-1.565 0.712 -3.123 1.438 -4.671 2.181c-0.301 0.144 -0.601 0.29 -0.901 0.435 c-1.552 0.751 -3.096 1.519 -4.63 2.3c-0.275 0.141 -0.551 0.281 -0.826 0.422c-1.576 0.811 -3.142 1.637 -4.698 2.479 c-0.219 0.119 -0.438 0.235 -0.657 0.354c-1.646 0.896 -3.282 1.811 -4.906 2.742c-0.118 0.068 -0.237 0.134 -0.355 0.202 c-14.227 8.189 -27.592 17.707 -39.926 28.383c-0.065 0.057 -0.13 0.113 -0.195 0.17c-1.463 1.269 -2.912 2.555 -4.346 3.856 c-0.095 0.086 -0.189 0.172 -0.283 0.258c-1.414 1.287 -2.812 2.589 -4.197 3.907c-0.091 0.086 -0.182 0.173 -0.273 0.26 c-1.401 1.339 -2.789 2.692 -4.16 4.062c-0.059 0.058 -0.118 0.116 -0.176 0.175c-14.43 14.44 -27.143 30.596 -37.808 48.136 c-0.032 0.052 -0.063 0.105 -0.095 0.157c-1.029 1.696 -2.04 3.405 -3.03 5.126c-0.04 0.068 -0.079 0.137 -0.119 0.206 c-0.992 1.727 -1.964 3.465 -2.917 5.217c-0.025 0.047 -0.051 0.094 -0.077 0.141C21.141 152 13.48 171.265 8.228 191.5H72.943zM573.5 191.5H512v0.333h-8.11 M503.89 191.833H512V191.5h-8.201C503.828 191.611 503.86 191.721 503.89 191.833zM352.195 191.833h86.979c-0.038 -0.111 -0.075 -0.222 -0.114 -0.333h-86.533L352.195 191.833zM8.068 192.099c0.011 -0.044 0.022 -0.088 0.034 -0.132C8.09 192.011 8.079 192.055 8.068 192.099zM72.967 191.5h-0.023 M503.89 191.833h-64.715 M8.228 191.5H8.221c-0.04 0.155 -0.079 0.312 -0.119 0.467C8.142 191.811 8.188 191.656 8.228 191.5zM503.89 191.833c-0.029 -0.111 -0.062 -0.221 -0.091 -0.333h-64.738c0.039 0.11 0.076 0.222 0.114 0.333H503.89zM357.721 491.648c-0.263 0.111 -0.523 0.226 -0.786 0.336C357.197 491.874 357.458 491.76 357.721 491.648zM237.26 511.199c-1.719 -0.135 -3.433 -0.289 -5.142 -0.457C233.828 510.908 235.54 511.065 237.26 511.199zM243.833 511.631c-1.419 -0.075 -2.831 -0.171 -4.243 -0.27C241.002 511.459 242.414 511.557 243.833 511.631zM250.612 511.902c-1.071 -0.028 -2.138 -0.08 -3.205 -0.121C248.476 511.822 249.54 511.875 250.612 511.902zM257.54 512c0.005 0 0.01 0 0.014 0c-0.092 0 -0.183 -0.004 -0.275 -0.004C257.366 511.996 257.453 512 257.54 512zM434.293 441.186c-0.091 0.086 -0.182 0.173 -0.273 0.26C434.111 441.358 434.202 441.271 434.293 441.186zM278.855 511.109c-0.733 0.061 -1.465 0.127 -2.2 0.181C277.391 511.236 278.122 511.17 278.855 511.109zM297.591 508.873c-0.695 0.109 -1.392 0.217 -2.09 0.32C296.199 509.09 296.896 508.982 297.591 508.873zM351.794 494.086c-0.171 0.066 -0.34 0.137 -0.51 0.204C351.454 494.223 351.623 494.152 351.794 494.086zM291.416 509.766c-0.724 0.096 -1.447 0.191 -2.173 0.28C289.969 509.956 290.692 509.861 291.416 509.766zM482.674 377.965c-0.025 0.047 -0.052 0.094 -0.077 0.141C482.622 378.059 482.648 378.012 482.674 377.965zM479.681 383.322c-0.04 0.069 -0.079 0.139 -0.119 0.207C479.602 383.461 479.641 383.392 479.681 383.322zM476.531 388.654c-0.031 0.053 -0.063 0.105 -0.095 0.158C476.468 388.76 476.5 388.707 476.531 388.654zM303.708 507.838c-0.653 0.119 -1.308 0.233 -1.962 0.348C302.4 508.071 303.055 507.957 303.708 507.838zM309.77 506.66c-0.591 0.122 -1.184 0.238 -1.775 0.356C308.586 506.898 309.179 506.782 309.77 506.66zM321.716 503.887c-0.315 0.082 -0.634 0.156 -0.949 0.236C321.082 504.043 321.4 503.969 321.716 503.887zM285.173 510.512c-0.735 0.078 -1.471 0.16 -2.208 0.232C283.702 510.672 284.438 510.59 285.173 510.512zM315.77 505.343c-0.488 0.114 -0.979 0.22 -1.468 0.331C314.791 505.562 315.281 505.457 315.77 505.343zM272.406 511.559c-0.695 0.041 -1.388 0.088 -2.084 0.123C271.019 511.646 271.711 511.6 272.406 511.559zM438.629 436.947c-0.059 0.059 -0.117 0.117 -0.176 0.176C438.512 437.064 438.57 437.006 438.629 436.947zM363.43 489.135c-0.297 0.135 -0.592 0.271 -0.889 0.404C362.838 489.406 363.133 489.27 363.43 489.135zM265.668 511.857c-0.572 0.019 -1.142 0.047 -1.714 0.061C264.526 511.904 265.096 511.876 265.668 511.857zM9.769 320.5H1.568v159.473L60.9 420.641c41.627 49.623 101.879 83.035 170.071 89.988 C123.774 499.563 36.206 422.352 9.769 320.5zM379.812 480.963c-0.219 0.119 -0.438 0.236 -0.657 0.355C379.374 481.199 379.594 481.082 379.812 480.963zM385.073 478.02c-0.118 0.067 -0.237 0.134 -0.355 0.201C384.836 478.153 384.955 478.087 385.073 478.02zM374.458 483.797c-0.275 0.141 -0.551 0.281 -0.826 0.422C373.907 484.078 374.183 483.938 374.458 483.797zM425.194 449.466c-0.065 0.057 -0.13 0.113 -0.195 0.17C425.064 449.579 425.129 449.522 425.194 449.466zM257.554 450c0.005 0 0.01 0 0.014 0c51.819 0 100.537 -20.18 137.179 -56.822c20.863 -20.862 36.379 -45.642 45.878 -72.678 h-0.023c-9.503 27.035 -25.02 51.816 -45.882 72.678C358.081 429.816 309.368 449.996 257.554 450zM369.002 486.519c-0.3 0.146 -0.6 0.291 -0.9 0.435C368.402 486.81 368.702 486.664 369.002 486.519zM429.823 445.352c-0.095 0.086 -0.188 0.172 -0.283 0.258C429.635 445.523 429.729 445.438 429.823 445.352zM74.507 320.5c7.047 20.047 17.405 38.849 30.795 55.736l55.738 -55.736H74.507zM476.437 388.812c-10.665 17.539 -23.378 33.695 -37.808 48.135C453.06 422.507 465.771 406.352 476.437 388.812zM438.453 437.123c-1.371 1.369 -2.759 2.723 -4.16 4.062C435.695 439.846 437.082 438.492 438.453 437.123zM429.54 445.609c-1.434 1.302 -2.883 2.588 -4.346 3.856C426.657 448.197 428.105 446.911 429.54 445.609zM434.02 441.445c-1.384 1.317 -2.783 2.619 -4.196 3.906C431.236 444.064 432.636 442.763 434.02 441.445zM479.562 383.529c-0.99 1.721 -2.001 3.43 -3.03 5.125C477.561 386.959 478.571 385.25 479.562 383.529zM482.597 378.105c-0.952 1.752 -1.925 3.49 -2.916 5.217C480.672 381.596 481.645 379.857 482.597 378.105zM424.999 449.636c-12.334 10.677 -25.699 20.194 -39.926 28.384C399.301 469.83 412.664 460.312 424.999 449.636zM362.541 489.539c-1.599 0.721 -3.206 1.422 -4.82 2.109C359.335 490.961 360.942 490.26 362.541 489.539zM105.302 376.236l-0.09 0.091c4.685 5.817 9.732 11.435 15.149 16.851C157.003 429.82 205.721 450 257.54 450 c0.005 0 0.01 0 0.014 0c-51.814 -0.004 -100.526 -20.184 -137.165 -56.822C114.997 387.785 109.97 382.125 105.302 376.236zM232.118 510.742c-0.383 -0.037 -0.766 -0.074 -1.147 -0.113C231.353 510.669 231.735 510.705 232.118 510.742zM482.674 377.965c9.754 -17.967 17.42 -37.229 22.674 -57.465h-0.008C500.088 340.734 492.428 360 482.674 377.965zM379.155 481.318c-1.556 0.842 -3.122 1.668 -4.697 2.479C376.033 482.986 377.599 482.16 379.155 481.318zM351.284 494.29c-9.587 3.774 -19.457 6.986 -29.568 9.597C331.828 501.277 341.696 498.064 351.284 494.29zM320.767 504.123c-1.66 0.422 -3.325 0.83 -4.997 1.22C317.442 504.954 319.106 504.545 320.767 504.123zM314.302 505.674c-1.506 0.34 -3.016 0.672 -4.532 0.986C311.286 506.346 312.796 506.014 314.302 505.674zM356.935 491.984c-1.704 0.719 -3.418 1.418 -5.141 2.102C353.517 493.402 355.23 492.703 356.935 491.984zM373.632 484.219c-1.534 0.781 -3.077 1.549 -4.63 2.3C370.555 485.768 372.098 485 373.632 484.219zM307.994 507.017c-1.425 0.285 -2.854 0.56 -4.286 0.821C305.141 507.577 306.569 507.301 307.994 507.017zM384.718 478.221c-1.624 0.932 -3.259 1.846 -4.905 2.742C381.459 480.066 383.094 479.152 384.718 478.221zM368.102 486.953c-1.549 0.743 -3.106 1.47 -4.672 2.182C364.995 488.423 366.553 487.696 368.102 486.953zM257.567 512c2.136 0 4.264 -0.029 6.387 -0.082c-2.127 0.053 -4.261 0.081 -6.4 0.082C257.559 512 257.563 512 257.567 512zM270.322 511.682c-1.547 0.076 -3.101 0.128 -4.654 0.176C267.222 511.811 268.774 511.758 270.322 511.682zM257.278 511.996c-2.229 -0.002 -4.451 -0.035 -6.666 -0.094C252.827 511.962 255.05 511.994 257.278 511.996zM239.59 511.361c-0.776 -0.053 -1.555 -0.103 -2.33 -0.162C238.035 511.26 238.813 511.309 239.59 511.361zM301.746 508.186c-1.381 0.24 -2.767 0.47 -4.155 0.688C298.979 508.655 300.364 508.426 301.746 508.186zM247.407 511.781c-1.192 -0.047 -2.387 -0.088 -3.574 -0.15C245.021 511.693 246.215 511.734 247.407 511.781zM289.243 510.046c-1.354 0.167 -2.711 0.319 -4.07 0.466C286.532 510.365 287.89 510.213 289.243 510.046zM295.501 509.193c-1.357 0.201 -2.721 0.391 -4.085 0.572C292.781 509.584 294.143 509.395 295.501 509.193zM282.965 510.744c-1.366 0.135 -2.737 0.252 -4.109 0.365C280.228 510.996 281.599 510.879 282.965 510.744zM276.655 511.29c-1.412 0.104 -2.831 0.188 -4.249 0.269C273.824 511.479 275.242 511.395 276.655 511.29zM440.624 320.5c-9.499 27.036 -25.015 51.815 -45.878 72.678C358.104 429.82 309.387 450 257.567 450 c-0.004 0 -0.009 0 -0.014 0c-0.004 0 -0.009 0 -0.014 0c-51.819 0 -100.537 -20.18 -137.178 -56.822 c-5.417 -5.416 -10.465 -11.033 -15.149 -16.851l0.09 -0.091c-13.39 -16.888 -23.748 -35.689 -30.795 -55.736H9.769 c26.437 101.852 114.005 179.063 221.202 190.129c0.382 0.039 0.765 0.076 1.147 0.113c1.709 0.168 3.423 0.322 5.142 0.457 c0.775 0.06 1.554 0.109 2.33 0.162c1.412 0.099 2.824 0.194 4.243 0.27c1.188 0.062 2.382 0.104 3.574 0.15 c1.067 0.041 2.134 0.093 3.205 0.121c2.215 0.059 4.437 0.092 6.666 0.094c0.093 0 0.184 0.004 0.275 0.004 c2.14 -0.001 4.273 -0.029 6.4 -0.082c0.572 -0.014 1.142 -0.042 1.714 -0.061c1.554 -0.048 3.107 -0.1 4.654 -0.176 c0.696 -0.035 1.389 -0.082 2.084 -0.123c1.418 -0.08 2.837 -0.164 4.249 -0.269c0.735 -0.054 1.467 -0.12 2.2 -0.181 c1.372 -0.113 2.743 -0.23 4.109 -0.365c0.737 -0.072 1.473 -0.154 2.208 -0.232c1.359 -0.146 2.717 -0.299 4.07 -0.466 c0.726 -0.089 1.449 -0.185 2.173 -0.28c1.364 -0.182 2.728 -0.371 4.085 -0.572c0.698 -0.104 1.395 -0.211 2.09 -0.32 c1.389 -0.218 2.774 -0.447 4.155 -0.688c0.654 -0.114 1.309 -0.229 1.962 -0.348c1.433 -0.262 2.861 -0.536 4.286 -0.821 c0.592 -0.118 1.185 -0.234 1.775 -0.356c1.517 -0.314 3.026 -0.646 4.532 -0.986c0.489 -0.111 0.979 -0.217 1.468 -0.331 c1.672 -0.39 3.337 -0.798 4.997 -1.22c0.315 -0.08 0.634 -0.154 0.949 -0.236c10.111 -2.61 19.981 -5.822 29.568 -9.597 c0.17 -0.067 0.339 -0.138 0.51 -0.204c1.723 -0.684 3.437 -1.383 5.141 -2.102c0.263 -0.11 0.523 -0.225 0.786 -0.336 c1.614 -0.688 3.222 -1.389 4.82 -2.109c0.297 -0.133 0.592 -0.27 0.889 -0.404c1.565 -0.712 3.123 -1.438 4.672 -2.182 c0.301 -0.144 0.601 -0.289 0.9 -0.435c1.553 -0.751 3.096 -1.519 4.63 -2.3c0.275 -0.141 0.551 -0.281 0.826 -0.422 c1.575 -0.811 3.142 -1.637 4.697 -2.479c0.219 -0.119 0.438 -0.236 0.657 -0.355c1.646 -0.896 3.281 -1.811 4.905 -2.742 c0.118 -0.067 0.237 -0.134 0.355 -0.201c14.227 -8.189 27.592 -17.707 39.926 -28.384c0.065 -0.057 0.13 -0.113 0.195 -0.17 c1.463 -1.269 2.912 -2.555 4.346 -3.856c0.095 -0.086 0.188 -0.172 0.283 -0.258c1.413 -1.287 2.812 -2.589 4.196 -3.906 c0.092 -0.087 0.183 -0.174 0.273 -0.26c1.401 -1.34 2.789 -2.693 4.16 -4.062c0.059 -0.059 0.117 -0.117 0.176 -0.176 c14.43 -14.439 27.143 -30.596 37.808 -48.135c0.031 -0.053 0.063 -0.105 0.095 -0.158c1.029 -1.695 2.04 -3.404 3.03 -5.125 c0.04 -0.068 0.079 -0.138 0.119 -0.207c0.991 -1.727 1.964 -3.465 2.916 -5.217c0.025 -0.047 0.052 -0.094 0.077 -0.141 c9.754 -17.965 17.414 -37.23 22.666 -57.465H440.624zM-59.932 320.5h61.5v-0.333h8.11 M9.678 320.167h-8.11v0.333h8.201C9.74 320.389 9.708 320.278 9.678 320.167zM161.373 320.167H74.393c0.038 0.11 0.075 0.222 0.114 0.333h86.533L161.373 320.167zM505.5 319.9c-0.012 0.044 -0.022 0.088 -0.033 0.132C505.478 319.988 505.488 319.944 505.5 319.9zM440.601 320.5h0.023 M9.678 320.167h64.715 M505.34 320.5h0.008c0.039 -0.156 0.078 -0.312 0.119 -0.468C505.426 320.188 505.381 320.344 505.34 320.5zM9.678 320.167c0.029 0.111 0.062 0.222 0.091 0.333h64.738c-0.039 -0.111 -0.076 -0.223 -0.114 -0.333H9.678z"/>
</svg>
