<?xml version="1.0" encoding="utf-8"?>
<!DOCTYPE svg PUBLIC "-//W3C//DTD SVG 1.1//EN" "http://www.w3.org/Graphics/SVG/1.1/DTD/svg11.dtd">
<svg
	version="1.1"
	id="Layer_1"
	xmlns="http://www.w3.org/2000/svg"
	xmlns:xlink="http://www.w3.org/1999/xlink"
	x="0px"
	y="0px"
	width="512px"
	height="512px"
	viewBox="0 0 512 512"
	enable-background="new 0 0 512 512"
	xml:space="preserve"
>
	<g id="Grid">
		<rect x="0" fill="none" stroke="#A9CCDB" stroke-miterlimit="10" width="512" height="512"/>
		<line fill="none" stroke="#A9CCDB" stroke-miterlimit="10" x1="0" y1="32" x2="512" y2="32"/>
		<line fill="none" stroke="#A9CCDB" stroke-miterlimit="10" x1="0" y1="64" x2="512" y2="64"/>
		<line fill="none" stroke="#A9CCDB" stroke-miterlimit="10" x1="0" y1="96" x2="512" y2="96"/>
		<line fill="none" stroke="#A9CCDB" stroke-miterlimit="10" x1="0" y1="128" x2="512" y2="128"/>
		<line fill="none" stroke="#A9CCDB" stroke-miterlimit="10" x1="0" y1="160" x2="512" y2="160"/>
		<line fill="none" stroke="#A9CCDB" stroke-miterlimit="10" x1="0" y1="192" x2="512" y2="192"/>
		<line fill="none" stroke="#A9CCDB" stroke-miterlimit="10" x1="0" y1="224" x2="512" y2="224"/>
		<line fill="none" stroke="#A9CCDB" stroke-miterlimit="10" x1="0" y1="256" x2="512" y2="256"/>
		<line fill="none" stroke="#A9CCDB" stroke-miterlimit="10" x1="0" y1="288" x2="512" y2="288"/>
		<line fill="none" stroke="#A9CCDB" stroke-miterlimit="10" x1="0" y1="320" x2="512" y2="320"/>
		<line fill="none" stroke="#A9CCDB" stroke-miterlimit="10" x1="0" y1="352" x2="512" y2="352"/>
		<line fill="none" stroke="#A9CCDB" stroke-miterlimit="10" x1="0" y1="384" x2="512" y2="384"/>
		<line fill="none" stroke="#A9CCDB" stroke-miterlimit="10" x1="0" y1="416" x2="512" y2="416"/>
		<line fill="none" stroke="#FF0000" stroke-miterlimit="10" x1="0" y1="448" x2="512" y2="448"/>
		<line fill="none" stroke="#A9CCDB" stroke-miterlimit="10" x1="0" y1="480" x2="512" y2="480"/>
		<line fill="none" stroke="#A9CCDB" stroke-miterlimit="10" x1="32" y1="0" x2="32" y2="512"/>
		<line fill="none" stroke="#A9CCDB" stroke-miterlimit="10" x1="64" y1="0" x2="64" y2="512"/>
		<line fill="none" stroke="#A9CCDB" stroke-miterlimit="10" x1="96" y1="0" x2="96" y2="512"/>
		<line fill="none" stroke="#A9CCDB" stroke-miterlimit="10" x1="128" y1="0" x2="128" y2="512"/>
		<line fill="none" stroke="#A9CCDB" stroke-miterlimit="10" x1="160" y1="0" x2="160" y2="512"/>
		<line fill="none" stroke="#A9CCDB" stroke-miterlimit="10" x1="192" y1="0" x2="192" y2="512"/>
		<line fill="none" stroke="#A9CCDB" stroke-miterlimit="10" x1="224" y1="0" x2="224" y2="512"/>
		<line fill="none" stroke="#A9CCDB" stroke-miterlimit="10" x1="256" y1="0" x2="256" y2="512"/>
		<line fill="none" stroke="#A9CCDB" stroke-miterlimit="10" x1="288" y1="0" x2="288" y2="512"/>
		<line fill="none" stroke="#A9CCDB" stroke-miterlimit="10" x1="320" y1="0" x2="320" y2="512"/>
		<line fill="none" stroke="#A9CCDB" stroke-miterlimit="10" x1="352" y1="0" x2="352" y2="512"/>
		<line fill="none" stroke="#A9CCDB" stroke-miterlimit="10" x1="384" y1="0" x2="384" y2="512"/>
		<line fill="none" stroke="#A9CCDB" stroke-miterlimit="10" x1="416" y1="0" x2="416" y2="512"/>
		<line fill="none" stroke="#A9CCDB" stroke-miterlimit="10" x1="448" y1="0" x2="448" y2="512"/>
		<line fill="none" stroke="#A9CCDB" stroke-miterlimit="10" x1="480" y1="0" x2="480" y2="512"/>
	</g>
	<path d="M107.66 157.492l-0.77 -0.178c0 0 -0.319 0.164 -0.775 0.399c0.511 -0.07 1.016 -0.138 1.527 -0.208 C107.642 157.504 107.648 157.493 107.66 157.492zM193.605 370.146c0 0 -22.275 -22.812 6.048 -41.313c0 0 146.55 30.349 211.104 100.518c2.179 2.94 4.415 5.534 6.717 7.779 c0.121 0.163 0.286 0.314 0.406 0.484c1.435 1.809 3.198 3.136 5.134 4.136c4.836 3.374 9.862 5.233 15.044 5.308 c39.307 0.546 72.382 -99.094 73.891 -222.537c1.491 -123.463 -29.152 -223.98 -68.462 -224.517c-17.078 -0.242 -32.974 18.467 -45.62 49.808 c-24.678 19.546 -122.709 89.657 -278.234 106.259c-3.958 0.42 -7.962 0.908 -11.993 1.446C9.457 221.502 80.251 315.284 80.251 315.284 l-0.078 -0.019c0.715 0.227 1.434 0.444 2.167 0.687c11.629 3.971 34.178 10.917 37.496 25.827c0 0 17.836 41.335 8.164 106.221 c0 0 -3.637 58.151 69.534 64C197.534 512 258.045 515.125 193.605 370.146zM360.7 371.734 c-14.818 -8.545 -30.415 -15.487 -46.198 -21.711c-32.258 -12.705 -66.853 -25.387 -100.634 -32.246c-9.576 -1.943 -22.48 -13.633 -29.117 -20.885 c-7.999 -8.787 -14.127 -15.183 -18.004 -26.719c-10.045 -29.882 -4.692 -60.866 13.496 -85.599c9.035 -12.278 19.201 -19.105 32.858 -25.354 c18.203 -8.329 38.025 -11.144 56.594 -18.415c31.255 -12.219 61.661 -26.811 91.339 -42.884c5.991 -3.258 19.362 -6.312 22.146 -13.838 l0.734 0.997c-3.204 8.658 -1.2 4.226 -3.746 12.976c-31.548 112.833 -2.83 219.312 9.406 273.461 c3.072 12.151 -1.94 11.021 -1.94 11.021c-0.202 -0.529 -1.875 -0.81 -2.16 -1.351 M417.427 362.359c-1.428 0.022 -2.818 -0.528 -4.205 -1.355 c-0.036 0.007 -0.057 0.021 -0.099 0.028c-16.369 0.292 -28.568 -57.037 -29.723 -128.073c-1.16 -71.033 9.169 -128.851 25.531 -129.164 c1.423 -0.026 2.819 0.531 4.205 1.352c0.042 0.003 0.069 -0.019 0.098 -0.022c16.354 -0.295 33.562 57.041 34.723 128.083 C449.113 304.23 433.778 362.057 417.427 362.359zM75.568 313.873c-29.733 -6.837 -46.769 -47.341 -38.052 -90.458c8.368 -41.429 37.472 -70.112 66.111 -66.239 c-5.852 -4.249 -12.366 -7.383 -19.492 -9.022c-35.768 -8.231 -72.438 23.04 -81.891 69.829c-9.459 46.794 11.87 91.404 47.641 99.634 c10.935 2.512 21.936 1.303 32.233 -2.867C79.935 314.627 77.75 314.373 75.568 313.873z"/>
</svg>
