<?xml version="1.0" encoding="utf-8"?>
<!DOCTYPE svg PUBLIC "-//W3C//DTD SVG 1.1//EN" "http://www.w3.org/Graphics/SVG/1.1/DTD/svg11.dtd">
<svg
	version="1.1"
	id="Layer_1"
	xmlns="http://www.w3.org/2000/svg"
	xmlns:xlink="http://www.w3.org/1999/xlink"
	x="0px"
	y="0px"
	width="449px"
	height="512px"
	viewBox="0 0 449 512"
	enable-background="new 0 0 512 512"
	xml:space="preserve"
>
	<g id="Grid">
		<rect x="0" fill="none" stroke="#A9CCDB" stroke-miterlimit="10" width="512" height="512"/>
		<line fill="none" stroke="#A9CCDB" stroke-miterlimit="10" x1="0" y1="32" x2="512" y2="32"/>
		<line fill="none" stroke="#A9CCDB" stroke-miterlimit="10" x1="0" y1="64" x2="512" y2="64"/>
		<line fill="none" stroke="#A9CCDB" stroke-miterlimit="10" x1="0" y1="96" x2="512" y2="96"/>
		<line fill="none" stroke="#A9CCDB" stroke-miterlimit="10" x1="0" y1="128" x2="512" y2="128"/>
		<line fill="none" stroke="#A9CCDB" stroke-miterlimit="10" x1="0" y1="160" x2="512" y2="160"/>
		<line fill="none" stroke="#A9CCDB" stroke-miterlimit="10" x1="0" y1="192" x2="512" y2="192"/>
		<line fill="none" stroke="#A9CCDB" stroke-miterlimit="10" x1="0" y1="224" x2="512" y2="224"/>
		<line fill="none" stroke="#A9CCDB" stroke-miterlimit="10" x1="0" y1="256" x2="512" y2="256"/>
		<line fill="none" stroke="#A9CCDB" stroke-miterlimit="10" x1="0" y1="288" x2="512" y2="288"/>
		<line fill="none" stroke="#A9CCDB" stroke-miterlimit="10" x1="0" y1="320" x2="512" y2="320"/>
		<line fill="none" stroke="#A9CCDB" stroke-miterlimit="10" x1="0" y1="352" x2="512" y2="352"/>
		<line fill="none" stroke="#A9CCDB" stroke-miterlimit="10" x1="0" y1="384" x2="512" y2="384"/>
		<line fill="none" stroke="#A9CCDB" stroke-miterlimit="10" x1="0" y1="416" x2="512" y2="416"/>
		<line fill="none" stroke="#FF0000" stroke-miterlimit="10" x1="0" y1="448" x2="512" y2="448"/>
		<line fill="none" stroke="#A9CCDB" stroke-miterlimit="10" x1="0" y1="480" x2="512" y2="480"/>
		<line fill="none" stroke="#A9CCDB" stroke-miterlimit="10" x1="32" y1="0" x2="32" y2="512"/>
		<line fill="none" stroke="#A9CCDB" stroke-miterlimit="10" x1="64" y1="0" x2="64" y2="512"/>
		<line fill="none" stroke="#A9CCDB" stroke-miterlimit="10" x1="96" y1="0" x2="96" y2="512"/>
		<line fill="none" stroke="#A9CCDB" stroke-miterlimit="10" x1="128" y1="0" x2="128" y2="512"/>
		<line fill="none" stroke="#A9CCDB" stroke-miterlimit="10" x1="160" y1="0" x2="160" y2="512"/>
		<line fill="none" stroke="#A9CCDB" stroke-miterlimit="10" x1="192" y1="0" x2="192" y2="512"/>
		<line fill="none" stroke="#A9CCDB" stroke-miterlimit="10" x1="224" y1="0" x2="224" y2="512"/>
		<line fill="none" stroke="#A9CCDB" stroke-miterlimit="10" x1="256" y1="0" x2="256" y2="512"/>
		<line fill="none" stroke="#A9CCDB" stroke-miterlimit="10" x1="288" y1="0" x2="288" y2="512"/>
		<line fill="none" stroke="#A9CCDB" stroke-miterlimit="10" x1="320" y1="0" x2="320" y2="512"/>
		<line fill="none" stroke="#A9CCDB" stroke-miterlimit="10" x1="352" y1="0" x2="352" y2="512"/>
		<line fill="none" stroke="#A9CCDB" stroke-miterlimit="10" x1="384" y1="0" x2="384" y2="512"/>
		<line fill="none" stroke="#A9CCDB" stroke-miterlimit="10" x1="416" y1="0" x2="416" y2="512"/>
		<line fill="none" stroke="#A9CCDB" stroke-miterlimit="10" x1="448" y1="0" x2="448" y2="512"/>
		<line fill="none" stroke="#A9CCDB" stroke-miterlimit="10" x1="480" y1="0" x2="480" y2="512"/>
	</g>
	<path d="M176.43004824259 512c-47.138901071361 0 -91.438882275547 -18.412881398409 -124.73604410751 -51.758160516258C18.364764112524 426.91259946119 0 382.67677463818 0 335.50579537623 c0.032078190589562 -47.122861976067 18.364764112524 -91.406804084957 51.694004135079 -124.70396591692L230.30536933776 36.05588622267c47.988973121985 -48.021051312574 132.7555917549 -48.213520456112 181.19365954514 0.2566255247165c49.993860033832 50.058016415012 49.993860033832 131.44038594073 0 181.43424597456 l-160.71173485371 156.78215650648c-30.955453918927 30.955453918927 -81.831464193973 31.019610300107 -113.0916609235 -0.2566255247165c-31.260196729528 -31.324353110707 -31.260196729528 -82.168285195163 0 -113.42848192469l62.215650648456 -62.215650648456l45.358561493641 45.358561493641l-62.215650648456 62.215650648456 c-4.1060083954639 4.1060083954639 -4.6994549213708 8.8696196980139 -4.6994549213708 11.33964037341s0.5934465259069 7.2336319779462 4.6994549213708 11.371718564c8.2120167909279 8.1478604097488 14.467263955892 8.1478604097488 22.67928074682 0l160.64757847253 -156.81423469707 c24.748324039847 -24.716245849258 24.748324039847 -65.407430612117 -0.2566255247165 -90.44445836727c-24.251112085709 -24.251112085709 -66.482049996867 -24.251112085709 -90.717122987281 0L96.795940104004 256.40097738237C75.848881649019 277.36407493265 64.156381179124 305.52872627028 64.156381179124 335.50579537623 c0 30.009147296535 11.692500469895 58.20587682476 32.896184449596 79.377482613871c42.423407054696 42.47152434058 116.34759726834 42.47152434058 158.75496522774 0l80.195476473905 -80.195476473905l45.358561493641 45.358561493641l-80.195476473905 80.195476473905C267.83685232755 493.5710795063 223.55291021866 512 176.43004824259 512z"/>
</svg>
