<?xml version="1.0" encoding="utf-8"?>
<!DOCTYPE svg PUBLIC "-//W3C//DTD SVG 1.1//EN" "http://www.w3.org/Graphics/SVG/1.1/DTD/svg11.dtd">
<svg
	version="1.1"
	id="Layer_1"
	xmlns="http://www.w3.org/2000/svg"
	xmlns:xlink="http://www.w3.org/1999/xlink"
	x="0px"
	y="0px"
	width="512px"
	height="512px"
	viewBox="0 0 512 512"
	enable-background="new 0 0 512 512"
	xml:space="preserve"
>
	<g id="Grid">
		<rect x="0" fill="none" stroke="#A9CCDB" stroke-miterlimit="10" width="512" height="512"/>
		<line fill="none" stroke="#A9CCDB" stroke-miterlimit="10" x1="0" y1="32" x2="512" y2="32"/>
		<line fill="none" stroke="#A9CCDB" stroke-miterlimit="10" x1="0" y1="64" x2="512" y2="64"/>
		<line fill="none" stroke="#A9CCDB" stroke-miterlimit="10" x1="0" y1="96" x2="512" y2="96"/>
		<line fill="none" stroke="#A9CCDB" stroke-miterlimit="10" x1="0" y1="128" x2="512" y2="128"/>
		<line fill="none" stroke="#A9CCDB" stroke-miterlimit="10" x1="0" y1="160" x2="512" y2="160"/>
		<line fill="none" stroke="#A9CCDB" stroke-miterlimit="10" x1="0" y1="192" x2="512" y2="192"/>
		<line fill="none" stroke="#A9CCDB" stroke-miterlimit="10" x1="0" y1="224" x2="512" y2="224"/>
		<line fill="none" stroke="#A9CCDB" stroke-miterlimit="10" x1="0" y1="256" x2="512" y2="256"/>
		<line fill="none" stroke="#A9CCDB" stroke-miterlimit="10" x1="0" y1="288" x2="512" y2="288"/>
		<line fill="none" stroke="#A9CCDB" stroke-miterlimit="10" x1="0" y1="320" x2="512" y2="320"/>
		<line fill="none" stroke="#A9CCDB" stroke-miterlimit="10" x1="0" y1="352" x2="512" y2="352"/>
		<line fill="none" stroke="#A9CCDB" stroke-miterlimit="10" x1="0" y1="384" x2="512" y2="384"/>
		<line fill="none" stroke="#A9CCDB" stroke-miterlimit="10" x1="0" y1="416" x2="512" y2="416"/>
		<line fill="none" stroke="#FF0000" stroke-miterlimit="10" x1="0" y1="448" x2="512" y2="448"/>
		<line fill="none" stroke="#A9CCDB" stroke-miterlimit="10" x1="0" y1="480" x2="512" y2="480"/>
		<line fill="none" stroke="#A9CCDB" stroke-miterlimit="10" x1="32" y1="0" x2="32" y2="512"/>
		<line fill="none" stroke="#A9CCDB" stroke-miterlimit="10" x1="64" y1="0" x2="64" y2="512"/>
		<line fill="none" stroke="#A9CCDB" stroke-miterlimit="10" x1="96" y1="0" x2="96" y2="512"/>
		<line fill="none" stroke="#A9CCDB" stroke-miterlimit="10" x1="128" y1="0" x2="128" y2="512"/>
		<line fill="none" stroke="#A9CCDB" stroke-miterlimit="10" x1="160" y1="0" x2="160" y2="512"/>
		<line fill="none" stroke="#A9CCDB" stroke-miterlimit="10" x1="192" y1="0" x2="192" y2="512"/>
		<line fill="none" stroke="#A9CCDB" stroke-miterlimit="10" x1="224" y1="0" x2="224" y2="512"/>
		<line fill="none" stroke="#A9CCDB" stroke-miterlimit="10" x1="256" y1="0" x2="256" y2="512"/>
		<line fill="none" stroke="#A9CCDB" stroke-miterlimit="10" x1="288" y1="0" x2="288" y2="512"/>
		<line fill="none" stroke="#A9CCDB" stroke-miterlimit="10" x1="320" y1="0" x2="320" y2="512"/>
		<line fill="none" stroke="#A9CCDB" stroke-miterlimit="10" x1="352" y1="0" x2="352" y2="512"/>
		<line fill="none" stroke="#A9CCDB" stroke-miterlimit="10" x1="384" y1="0" x2="384" y2="512"/>
		<line fill="none" stroke="#A9CCDB" stroke-miterlimit="10" x1="416" y1="0" x2="416" y2="512"/>
		<line fill="none" stroke="#A9CCDB" stroke-miterlimit="10" x1="448" y1="0" x2="448" y2="512"/>
		<line fill="none" stroke="#A9CCDB" stroke-miterlimit="10" x1="480" y1="0" x2="480" y2="512"/>
	</g>
	<path d="M508.616 209.132l-7.257 27.108l-0.146 0.541c-0.869 3.213 -3.771 5.587 -7.258 5.587c-0.46 0 -1.735 -0.279 -2.172 -0.36 L375.579 209.44l-2.812 -0.896c-2.611 -1.188 -3.857 -3.503 -3.857 -6.565c0 -0.163 0.047 -0.331 0.059 -0.506 c0.054 -0.728 0.232 -1.415 0.465 -2.072c-0.021 0.052 -0.058 0.111 -0.093 0.168l4.686 -27.201c3.078 -11.511 3.713 -21.329 8.218 -28.801 c0.006 -0.006 0.041 -0.023 0.041 -0.023c2.101 -3.736 4.551 -8.683 12.908 -15.329c0 0 -11.785 5.211 -21.981 14.831 c-29.558 -10.091 -82.518 -15.481 -117.36 -15.575c-34.83 0.093 -87.766 5.483 -117.33 15.563c-10.208 -9.609 -21.981 -14.82 -21.981 -14.82 c8.352 6.646 10.818 11.598 12.908 15.329c4.521 7.472 5.145 17.302 8.229 28.819l4.684 27.207c-0.029 -0.058 -0.07 -0.122 -0.093 -0.175 c0.232 0.664 0.419 1.344 0.465 2.072c0.012 0.175 0.059 0.337 0.059 0.506c0 3.055 -1.246 5.377 -3.853 6.559l-2.811 0.896 L19.921 242.008c-0.442 0.081 -1.717 0.354 -2.176 0.354c-3.486 0 -6.387 -2.38 -7.263 -5.592l-0.137 -0.536l-7.26 -27.108 c-2.959 -16.004 -4.795 -35.268 4.298 -62.34c30.73 -45.347 142.753 -82.156 247.665 -82.593v-0.012c0.268 0 0.53 0.012 0.803 0.012 c0.274 0 0.542 -0.012 0.809 -0.012v0.012c104.911 0.437 216.934 37.258 247.662 82.593 C513.412 173.853 511.572 193.123 508.616 209.132zM443.482 385.286c2.274 2.28 3.689 5.424 3.685 8.881v40.89 c0 6.938 -5.668 12.605 -12.605 12.605H77.105c-6.926 0 -12.605 -5.668 -12.605 -12.605v-40.89c0 -3.457 1.414 -6.601 3.69 -8.881 l67.781 -84.692l4.237 25.706l4.702 -51.5l13.921 -104.633c0.623 -4.772 5.075 -8.683 9.888 -8.683h174.264 c4.812 0 9.271 3.91 9.888 8.683l13.723 103.099l4.844 53.034l4.836 -29.396L443.482 385.286zM319.166 287.833 c0 -34.978 -28.354 -63.333 -63.333 -63.333c-34.979 0 -63.333 28.355 -63.333 63.333c0 34.978 28.355 63.333 63.333 63.333 C290.811 351.166 319.166 322.811 319.166 287.833z"/>
</svg>
