<?xml version="1.0" encoding="utf-8"?>
<!DOCTYPE svg PUBLIC "-//W3C//DTD SVG 1.1//EN" "http://www.w3.org/Graphics/SVG/1.1/DTD/svg11.dtd">
<svg
	version="1.1"
	id="Layer_1"
	xmlns="http://www.w3.org/2000/svg"
	xmlns:xlink="http://www.w3.org/1999/xlink"
	x="0px"
	y="0px"
	width="512px"
	height="512px"
	viewBox="0 0 512 512"
	enable-background="new 0 0 512 512"
	xml:space="preserve"
>
	<g id="Grid">
		<rect x="0" fill="none" stroke="#A9CCDB" stroke-miterlimit="10" width="512" height="512"/>
		<line fill="none" stroke="#A9CCDB" stroke-miterlimit="10" x1="0" y1="32" x2="512" y2="32"/>
		<line fill="none" stroke="#A9CCDB" stroke-miterlimit="10" x1="0" y1="64" x2="512" y2="64"/>
		<line fill="none" stroke="#A9CCDB" stroke-miterlimit="10" x1="0" y1="96" x2="512" y2="96"/>
		<line fill="none" stroke="#A9CCDB" stroke-miterlimit="10" x1="0" y1="128" x2="512" y2="128"/>
		<line fill="none" stroke="#A9CCDB" stroke-miterlimit="10" x1="0" y1="160" x2="512" y2="160"/>
		<line fill="none" stroke="#A9CCDB" stroke-miterlimit="10" x1="0" y1="192" x2="512" y2="192"/>
		<line fill="none" stroke="#A9CCDB" stroke-miterlimit="10" x1="0" y1="224" x2="512" y2="224"/>
		<line fill="none" stroke="#A9CCDB" stroke-miterlimit="10" x1="0" y1="256" x2="512" y2="256"/>
		<line fill="none" stroke="#A9CCDB" stroke-miterlimit="10" x1="0" y1="288" x2="512" y2="288"/>
		<line fill="none" stroke="#A9CCDB" stroke-miterlimit="10" x1="0" y1="320" x2="512" y2="320"/>
		<line fill="none" stroke="#A9CCDB" stroke-miterlimit="10" x1="0" y1="352" x2="512" y2="352"/>
		<line fill="none" stroke="#A9CCDB" stroke-miterlimit="10" x1="0" y1="384" x2="512" y2="384"/>
		<line fill="none" stroke="#A9CCDB" stroke-miterlimit="10" x1="0" y1="416" x2="512" y2="416"/>
		<line fill="none" stroke="#FF0000" stroke-miterlimit="10" x1="0" y1="448" x2="512" y2="448"/>
		<line fill="none" stroke="#A9CCDB" stroke-miterlimit="10" x1="0" y1="480" x2="512" y2="480"/>
		<line fill="none" stroke="#A9CCDB" stroke-miterlimit="10" x1="32" y1="0" x2="32" y2="512"/>
		<line fill="none" stroke="#A9CCDB" stroke-miterlimit="10" x1="64" y1="0" x2="64" y2="512"/>
		<line fill="none" stroke="#A9CCDB" stroke-miterlimit="10" x1="96" y1="0" x2="96" y2="512"/>
		<line fill="none" stroke="#A9CCDB" stroke-miterlimit="10" x1="128" y1="0" x2="128" y2="512"/>
		<line fill="none" stroke="#A9CCDB" stroke-miterlimit="10" x1="160" y1="0" x2="160" y2="512"/>
		<line fill="none" stroke="#A9CCDB" stroke-miterlimit="10" x1="192" y1="0" x2="192" y2="512"/>
		<line fill="none" stroke="#A9CCDB" stroke-miterlimit="10" x1="224" y1="0" x2="224" y2="512"/>
		<line fill="none" stroke="#A9CCDB" stroke-miterlimit="10" x1="256" y1="0" x2="256" y2="512"/>
		<line fill="none" stroke="#A9CCDB" stroke-miterlimit="10" x1="288" y1="0" x2="288" y2="512"/>
		<line fill="none" stroke="#A9CCDB" stroke-miterlimit="10" x1="320" y1="0" x2="320" y2="512"/>
		<line fill="none" stroke="#A9CCDB" stroke-miterlimit="10" x1="352" y1="0" x2="352" y2="512"/>
		<line fill="none" stroke="#A9CCDB" stroke-miterlimit="10" x1="384" y1="0" x2="384" y2="512"/>
		<line fill="none" stroke="#A9CCDB" stroke-miterlimit="10" x1="416" y1="0" x2="416" y2="512"/>
		<line fill="none" stroke="#A9CCDB" stroke-miterlimit="10" x1="448" y1="0" x2="448" y2="512"/>
		<line fill="none" stroke="#A9CCDB" stroke-miterlimit="10" x1="480" y1="0" x2="480" y2="512"/>
	</g>
	<path d="M348.222464 379.804672 M165.269504 380.701696c-0.510976 -0.303104 -1.01632 -0.613376 -1.524224 -0.9216C164.220416 380.1344 164.729856 380.443136 165.269504 380.701696zM299.008 260.096h-15.485952c-1.62304 -0.068096 -2.919424 -1.536 -2.940928 -3.072c-0.001536 0 -0.003584 0 -0.00512 0v-18.944c0.000512 0 0.000512 0 0.001024 0 c0.009728 -1.024 0.533504 -1.87136 1.330688 -2.420736l-0.001536 0.039424C294.082048 227.405824 302.08 213.454336 302.08 197.61152c0 -25.449472 -20.630528 -46.06976 -46.08 -46.06976 s-46.08 20.635648 -46.08 46.08512c0 15.842304 7.997952 29.816832 20.173312 38.110208l-0.001536 -0.078848c0.796672 0.548864 1.321472 1.39776 1.330688 2.42176 c0.000512 0 0.001024 0 0.001536 0v18.944c-0.000512 0 -0.001024 0 -0.002048 0c-0.021504 1.536 -1.533952 3.018752 -3.069952 3.067392V260.096h-15.36c-10.179584 0 -18.432 8.252416 -18.432 18.432v184.32 h122.88V278.528C317.44 268.348416 309.187584 260.096 299.008 260.096zM335.927808 293.963776c-0.014336 0.016896 -0.0128 0.046592 -0.009728 0.077824c-1.472 1.632768 -2.376192 3.7888 -2.376192 6.160896c0 5.08928 4.126208 9.216 9.216 9.216 c2.772992 0 5.254144 -1.230336 6.943744 -3.168768c0.018944 0 0.041984 0.003584 0.050688 -0.006656C367.919104 284.824576 378.88 257.102336 378.88 226.816 c0 -67.865088 -55.014912 -122.88 -122.88 -122.88S133.12 158.950912 133.12 226.816c0 30.237184 10.925056 57.918464 29.039104 79.323648c0.078336 0.092672 0.1664 0.165888 0.255488 0.238592 c1.686016 1.863168 4.115968 3.040768 6.827008 3.040768c5.089792 0 9.216 -4.12672 9.216 -9.216c0 -2.262016 -0.817664 -4.330496 -2.169856 -5.934592 c-0.027136 -0.05376 -0.050688 -0.111616 -0.089088 -0.157696C160.832 275.92192 151.552 252.435968 151.552 226.816c0 -57.592832 46.855168 -104.448 104.448 -104.448 c57.592832 0 104.448 46.855168 104.448 104.448C360.448 252.366336 351.2192 275.795968 335.927808 293.963776zM256 49.152c-98.40384 0 -178.176 79.77216 -178.176 178.176c0 64.63232 34.418176 121.219584 85.92128 152.452096c0.507904 0.308224 1.013248 0.618496 1.524224 0.9216 c1.204224 0.577024 2.547712 0.909312 3.972096 0.909312c5.089792 0 9.216 -4.12672 9.216 -9.216c0 -3.404288 -1.85088 -6.369792 -4.596224 -7.966208 c-0.161792 -0.115712 -0.357888 -0.2432 -0.600064 -0.390144c-10.85952 -6.596608 -21.003264 -14.5408 -30.217216 -23.754752C112.872448 310.112256 96.256 269.997056 96.256 227.328 c0 -42.669056 16.616448 -82.784256 46.788096 -112.955904C173.215744 84.200448 213.330944 67.584 256 67.584c42.669056 0 82.784256 16.616448 112.955904 46.788096 C399.127552 144.543744 415.744 184.658944 415.744 227.328c0 42.669056 -16.616448 82.784256 -46.788096 112.955904c-9.389568 9.389568 -19.745792 17.458688 -30.840832 24.125952 l0.097792 -0.026112c-2.786816 1.585152 -4.670464 4.575744 -4.670464 8.010752c0 5.08928 4.126208 9.216 9.216 9.216c1.414656 0 2.74944 -0.328192 3.94752 -0.897536 c0.50688 -0.300544 1.012736 -0.603648 1.516544 -0.9088C399.744512 348.575744 434.176 291.975168 434.176 227.328C434.176 128.92416 354.40384 49.152 256 49.152z"/>
</svg>
