<?xml version="1.0" encoding="utf-8"?>
<!DOCTYPE svg PUBLIC "-//W3C//DTD SVG 1.1//EN" "http://www.w3.org/Graphics/SVG/1.1/DTD/svg11.dtd">
<svg
	version="1.1"
	id="Layer_1"
	xmlns="http://www.w3.org/2000/svg"
	xmlns:xlink="http://www.w3.org/1999/xlink"
	x="0px"
	y="0px"
	width="512px"
	height="512px"
	viewBox="0 0 512 512"
	enable-background="new 0 0 512 512"
	xml:space="preserve"
>
	<g id="Grid">
		<rect x="0" fill="none" stroke="#A9CCDB" stroke-miterlimit="10" width="512" height="512"/>
		<line fill="none" stroke="#A9CCDB" stroke-miterlimit="10" x1="0" y1="32" x2="512" y2="32"/>
		<line fill="none" stroke="#A9CCDB" stroke-miterlimit="10" x1="0" y1="64" x2="512" y2="64"/>
		<line fill="none" stroke="#A9CCDB" stroke-miterlimit="10" x1="0" y1="96" x2="512" y2="96"/>
		<line fill="none" stroke="#A9CCDB" stroke-miterlimit="10" x1="0" y1="128" x2="512" y2="128"/>
		<line fill="none" stroke="#A9CCDB" stroke-miterlimit="10" x1="0" y1="160" x2="512" y2="160"/>
		<line fill="none" stroke="#A9CCDB" stroke-miterlimit="10" x1="0" y1="192" x2="512" y2="192"/>
		<line fill="none" stroke="#A9CCDB" stroke-miterlimit="10" x1="0" y1="224" x2="512" y2="224"/>
		<line fill="none" stroke="#A9CCDB" stroke-miterlimit="10" x1="0" y1="256" x2="512" y2="256"/>
		<line fill="none" stroke="#A9CCDB" stroke-miterlimit="10" x1="0" y1="288" x2="512" y2="288"/>
		<line fill="none" stroke="#A9CCDB" stroke-miterlimit="10" x1="0" y1="320" x2="512" y2="320"/>
		<line fill="none" stroke="#A9CCDB" stroke-miterlimit="10" x1="0" y1="352" x2="512" y2="352"/>
		<line fill="none" stroke="#A9CCDB" stroke-miterlimit="10" x1="0" y1="384" x2="512" y2="384"/>
		<line fill="none" stroke="#A9CCDB" stroke-miterlimit="10" x1="0" y1="416" x2="512" y2="416"/>
		<line fill="none" stroke="#FF0000" stroke-miterlimit="10" x1="0" y1="448" x2="512" y2="448"/>
		<line fill="none" stroke="#A9CCDB" stroke-miterlimit="10" x1="0" y1="480" x2="512" y2="480"/>
		<line fill="none" stroke="#A9CCDB" stroke-miterlimit="10" x1="32" y1="0" x2="32" y2="512"/>
		<line fill="none" stroke="#A9CCDB" stroke-miterlimit="10" x1="64" y1="0" x2="64" y2="512"/>
		<line fill="none" stroke="#A9CCDB" stroke-miterlimit="10" x1="96" y1="0" x2="96" y2="512"/>
		<line fill="none" stroke="#A9CCDB" stroke-miterlimit="10" x1="128" y1="0" x2="128" y2="512"/>
		<line fill="none" stroke="#A9CCDB" stroke-miterlimit="10" x1="160" y1="0" x2="160" y2="512"/>
		<line fill="none" stroke="#A9CCDB" stroke-miterlimit="10" x1="192" y1="0" x2="192" y2="512"/>
		<line fill="none" stroke="#A9CCDB" stroke-miterlimit="10" x1="224" y1="0" x2="224" y2="512"/>
		<line fill="none" stroke="#A9CCDB" stroke-miterlimit="10" x1="256" y1="0" x2="256" y2="512"/>
		<line fill="none" stroke="#A9CCDB" stroke-miterlimit="10" x1="288" y1="0" x2="288" y2="512"/>
		<line fill="none" stroke="#A9CCDB" stroke-miterlimit="10" x1="320" y1="0" x2="320" y2="512"/>
		<line fill="none" stroke="#A9CCDB" stroke-miterlimit="10" x1="352" y1="0" x2="352" y2="512"/>
		<line fill="none" stroke="#A9CCDB" stroke-miterlimit="10" x1="384" y1="0" x2="384" y2="512"/>
		<line fill="none" stroke="#A9CCDB" stroke-miterlimit="10" x1="416" y1="0" x2="416" y2="512"/>
		<line fill="none" stroke="#A9CCDB" stroke-miterlimit="10" x1="448" y1="0" x2="448" y2="512"/>
		<line fill="none" stroke="#A9CCDB" stroke-miterlimit="10" x1="480" y1="0" x2="480" y2="512"/>
	</g>
	<path d="M400.66816 108.159488c-0.011776 0.006656 -0.024064 0.013312 -0.03584 0.019968c-5.512704 -5.25568 -12.970496 -8.48896 -21.18912 -8.48896 c-16.966144 0 -30.72 13.753344 -30.72 30.72c0 8.314368 3.308544 15.852032 8.673792 21.383168c0.444928 0.45824 0.89856 0.907776 1.371136 1.337856 c0.016896 0.016896 0.033792 0.032768 0.0512 0.049664C386.283008 180.644864 401.408 217.160192 401.408 256c0 38.839808 -15.124992 75.355136 -42.589184 102.818816 S294.839808 401.408 256 401.408c-38.839808 0 -75.355136 -15.124992 -102.818816 -42.589184S110.592 294.839808 110.592 256c0 -38.839808 15.124992 -75.355136 42.589184 -102.818816 c0.456192 -0.456192 0.921088 -0.899584 1.381888 -1.34912c-0.003584 -0.003584 -0.00768 -0.00768 -0.011264 -0.011264c1.345024 -1.382912 2.561024 -2.890752 3.628032 -4.506624 c0.002048 -0.003584 0.004608 -0.007168 0.006656 -0.010752c0.263168 -0.398848 0.517632 -0.80384 0.76288 -1.215488c0.008192 -0.013824 0.015872 -0.02816 0.024064 -0.041984 c0.23808 -0.40192 0.467968 -0.808448 0.688128 -1.221632c0.014848 -0.02816 0.028672 -0.056832 0.04352 -0.084992c0.211456 -0.400384 0.415744 -0.804352 0.609792 -1.214976 c0.021504 -0.04608 0.041472 -0.093696 0.063488 -0.139776c0.183808 -0.39424 0.362496 -0.79104 0.52992 -1.194496c0.028672 -0.06912 0.05376 -0.139776 0.082432 -0.208896 c0.15616 -0.383488 0.308224 -0.769024 0.448512 -1.15968c0.034304 -0.09472 0.064 -0.190976 0.096768 -0.285696c0.129024 -0.369152 0.255488 -0.73984 0.370688 -1.115136 c0.037888 -0.124416 0.070144 -0.251392 0.106496 -0.37632c0.1024 -0.350208 0.204288 -0.700416 0.2944 -1.055744c0.040448 -0.159232 0.073216 -0.321024 0.111104 -0.480768 c0.0768 -0.326144 0.155648 -0.651264 0.22272 -0.981504c0.039936 -0.19712 0.070656 -0.397824 0.106496 -0.59648c0.05376 -0.297472 0.111616 -0.59392 0.157184 -0.894464 c0.036352 -0.241152 0.061952 -0.485376 0.092672 -0.728576c0.03328 -0.263168 0.072192 -0.524288 0.098816 -0.789504c0.03072 -0.303616 0.048128 -0.610816 0.069632 -0.916992 c0.014848 -0.208896 0.036352 -0.415744 0.046592 -0.625664c0.026112 -0.518144 0.039424 -1.039872 0.039424 -1.565184c0 -16.966656 -13.753856 -30.72 -30.72 -30.72 c-0.52736 0 -1.051648 0.013312 -1.572352 0.039936c-0.20992 0.010752 -0.416256 0.032256 -0.625152 0.047104c-0.308736 0.022016 -0.618496 0.039424 -0.924672 0.070656 c-0.274944 0.027648 -0.546304 0.068096 -0.8192 0.102912c-0.235008 0.030208 -0.472576 0.054272 -0.706048 0.0896c-0.31744 0.048128 -0.62976 0.109056 -0.944128 0.166912 c-0.184832 0.033792 -0.372224 0.061952 -0.55552 0.099328c-0.349696 0.071168 -0.69376 0.154624 -1.038848 0.237568c-0.143872 0.034304 -0.289792 0.063488 -0.433152 0.09984 c-0.372736 0.095232 -0.73984 0.202752 -1.106944 0.311296c-0.111616 0.032768 -0.22528 0.06144 -0.336384 0.095744c-0.397312 0.122368 -0.788992 0.257024 -1.179136 0.395264 c-0.0768 0.027136 -0.155136 0.050688 -0.231936 0.078336c-0.411648 0.149504 -0.817152 0.310272 -1.220608 0.47616c-0.052736 0.021504 -0.107008 0.04096 -0.159744 0.063488 c-0.422912 0.177152 -0.840192 0.365056 -1.252864 0.560128c-0.03072 0.014336 -0.062464 0.027648 -0.092672 0.041984c-0.428544 0.204288 -0.850944 0.418816 -1.267712 0.642048 c-0.014336 0.00768 -0.028672 0.014336 -0.043008 0.022016c-2.591232 1.391616 -4.958208 3.144704 -7.036928 5.191168c-0.003072 -0.003072 -0.006144 -0.006144 -0.009216 -0.009216 C72.817152 146.037248 49.152 198.25408 49.152 256c0 114.238976 92.609024 206.848 206.848 206.848s206.848 -92.609024 206.848 -206.848 C462.848 198.073856 439.035904 145.709568 400.66816 108.159488zM256 256c16.966144 0 30.72 -13.753856 30.72 -30.72V79.872c0 -16.966656 -13.753856 -30.72 -30.72 -30.72c-16.966144 0 -30.72 13.753344 -30.72 30.72v145.408 C225.28 242.246144 239.033856 256 256 256z"/>
</svg>
