<?xml version="1.0" encoding="utf-8"?>
<!DOCTYPE svg PUBLIC "-//W3C//DTD SVG 1.1//EN" "http://www.w3.org/Graphics/SVG/1.1/DTD/svg11.dtd">
<svg
	version="1.1"
	id="Layer_1"
	xmlns="http://www.w3.org/2000/svg"
	xmlns:xlink="http://www.w3.org/1999/xlink"
	x="0px"
	y="0px"
	width="512px"
	height="512px"
	viewBox="0 0 512 512"
	enable-background="new 0 0 512 512"
	xml:space="preserve"
>
	<g id="Grid">
		<rect x="0" fill="none" stroke="#A9CCDB" stroke-miterlimit="10" width="512" height="512"/>
		<line fill="none" stroke="#A9CCDB" stroke-miterlimit="10" x1="0" y1="32" x2="512" y2="32"/>
		<line fill="none" stroke="#A9CCDB" stroke-miterlimit="10" x1="0" y1="64" x2="512" y2="64"/>
		<line fill="none" stroke="#A9CCDB" stroke-miterlimit="10" x1="0" y1="96" x2="512" y2="96"/>
		<line fill="none" stroke="#A9CCDB" stroke-miterlimit="10" x1="0" y1="128" x2="512" y2="128"/>
		<line fill="none" stroke="#A9CCDB" stroke-miterlimit="10" x1="0" y1="160" x2="512" y2="160"/>
		<line fill="none" stroke="#A9CCDB" stroke-miterlimit="10" x1="0" y1="192" x2="512" y2="192"/>
		<line fill="none" stroke="#A9CCDB" stroke-miterlimit="10" x1="0" y1="224" x2="512" y2="224"/>
		<line fill="none" stroke="#A9CCDB" stroke-miterlimit="10" x1="0" y1="256" x2="512" y2="256"/>
		<line fill="none" stroke="#A9CCDB" stroke-miterlimit="10" x1="0" y1="288" x2="512" y2="288"/>
		<line fill="none" stroke="#A9CCDB" stroke-miterlimit="10" x1="0" y1="320" x2="512" y2="320"/>
		<line fill="none" stroke="#A9CCDB" stroke-miterlimit="10" x1="0" y1="352" x2="512" y2="352"/>
		<line fill="none" stroke="#A9CCDB" stroke-miterlimit="10" x1="0" y1="384" x2="512" y2="384"/>
		<line fill="none" stroke="#A9CCDB" stroke-miterlimit="10" x1="0" y1="416" x2="512" y2="416"/>
		<line fill="none" stroke="#FF0000" stroke-miterlimit="10" x1="0" y1="448" x2="512" y2="448"/>
		<line fill="none" stroke="#A9CCDB" stroke-miterlimit="10" x1="0" y1="480" x2="512" y2="480"/>
		<line fill="none" stroke="#A9CCDB" stroke-miterlimit="10" x1="32" y1="0" x2="32" y2="512"/>
		<line fill="none" stroke="#A9CCDB" stroke-miterlimit="10" x1="64" y1="0" x2="64" y2="512"/>
		<line fill="none" stroke="#A9CCDB" stroke-miterlimit="10" x1="96" y1="0" x2="96" y2="512"/>
		<line fill="none" stroke="#A9CCDB" stroke-miterlimit="10" x1="128" y1="0" x2="128" y2="512"/>
		<line fill="none" stroke="#A9CCDB" stroke-miterlimit="10" x1="160" y1="0" x2="160" y2="512"/>
		<line fill="none" stroke="#A9CCDB" stroke-miterlimit="10" x1="192" y1="0" x2="192" y2="512"/>
		<line fill="none" stroke="#A9CCDB" stroke-miterlimit="10" x1="224" y1="0" x2="224" y2="512"/>
		<line fill="none" stroke="#A9CCDB" stroke-miterlimit="10" x1="256" y1="0" x2="256" y2="512"/>
		<line fill="none" stroke="#A9CCDB" stroke-miterlimit="10" x1="288" y1="0" x2="288" y2="512"/>
		<line fill="none" stroke="#A9CCDB" stroke-miterlimit="10" x1="320" y1="0" x2="320" y2="512"/>
		<line fill="none" stroke="#A9CCDB" stroke-miterlimit="10" x1="352" y1="0" x2="352" y2="512"/>
		<line fill="none" stroke="#A9CCDB" stroke-miterlimit="10" x1="384" y1="0" x2="384" y2="512"/>
		<line fill="none" stroke="#A9CCDB" stroke-miterlimit="10" x1="416" y1="0" x2="416" y2="512"/>
		<line fill="none" stroke="#A9CCDB" stroke-miterlimit="10" x1="448" y1="0" x2="448" y2="512"/>
		<line fill="none" stroke="#A9CCDB" stroke-miterlimit="10" x1="480" y1="0" x2="480" y2="512"/>
	</g>
	<path d="M255.741 446.969c1.115 -1.303 0.616 -3.023 -0.174 -4.42C256.393 443.971 256.934 445.697 255.741 446.969zM344.363 445.178c-0.791 0.895 -2.372 1.521 -5.155 1.736c-0.474 0.053 -1.161 0.053 -1.999 0.107 c-2.156 0.057 -5.469 0.107 -9.68 0.211c-2.312 0 -4.838 0 -7.622 0.057c-4.263 0 -22.097 0 -28.979 0.057 c-10.169 0.057 -21.405 0.057 -32.555 0.057c-19.248 0 -50.019 -0.057 -61.749 -0.113c-3.261 0 -5.947 -0.057 -7.992 -0.057 c-6.789 -0.062 -11.939 -0.154 -14.569 -0.266c-0.37 0 -0.791 0 -1.207 -0.053c-0.478 -0.061 -0.894 -0.113 -1.263 -0.164 c-9.101 -1.254 -1.896 -9.51 -1.896 -9.51s11.046 -3.633 16.511 -12.246c0 0 1.632 -0.057 3.153 -13.357 c2.105 -18.828 2.944 -27.443 2.944 -27.443h127.45c0 0 0.798 8.615 2.944 27.443c1.469 13.301 3.112 13.357 3.112 13.357 c5.146 8.1 15.145 12.197 16.394 13.203c0.066 0 0.112 0.059 0.112 0.059s0.37 0.357 0.842 0.986 C344.302 440.65 345.925 443.336 344.363 445.178zM255.481 440.422c0.339 0.412 0.713 0.939 1.037 1.521C256.195 441.371 255.82 440.842 255.481 440.422zM500.187 64.599H257.686h-3.358H11.806c0 0 -11.806 3.544 -11.806 12.993v281.96c0 0 0.795 11.035 11.811 11.811 c10.603 0.756 228.203 0.066 244.868 0c9.966 0.029 50.266 0.156 95.321 0.248V320H32V96h448v224h-31.457v51.702 c28.019 -0.024 48.567 -0.119 51.644 -0.339c11.021 -0.77 11.813 -11.811 11.813 -11.811V77.592 C512 68.144 500.187 64.599 500.187 64.599zM448.543 271.046c0 -8.311 -6.65 -15.046 -14.854 -15.046h-66.836c-8.202 0 -14.854 6.735 -14.854 15.046V320v51.611v61.343 c0 8.309 6.651 15.046 14.854 15.046h66.836c8.203 0 14.854 -6.737 14.854 -15.046v-61.252V320V271.046zM392.969 271.965h14.607 c1.091 0 1.978 0.897 1.978 2.005c0 1.104 -0.887 2.002 -1.978 2.002h-14.607c-1.096 0 -1.981 -0.897 -1.981 -2.002 C390.987 272.862 391.873 271.965 392.969 271.965zM384.454 271.196c1.301 0 2.358 1.069 2.358 2.391 c0 1.318 -1.058 2.387 -2.358 2.387c-1.304 0 -2.358 -1.068 -2.358 -2.387C382.096 272.266 383.152 271.196 384.454 271.196zM400.271 439.882c-5.127 0 -9.284 -4.207 -9.284 -9.402c0 -5.193 4.157 -9.405 9.284 -9.405s9.282 4.212 9.282 9.405 C409.554 435.675 405.398 439.882 400.271 439.882zM441.115 414.379h-81.688v-42.753V320v-30.378h81.688V320v51.707V414.379z"/>
</svg>
