<?xml version="1.0" encoding="utf-8"?>
<!DOCTYPE svg PUBLIC "-//W3C//DTD SVG 1.1//EN" "http://www.w3.org/Graphics/SVG/1.1/DTD/svg11.dtd">
<svg
	version="1.1"
	id="Layer_1"
	xmlns="http://www.w3.org/2000/svg"
	xmlns:xlink="http://www.w3.org/1999/xlink"
	x="0px"
	y="0px"
	width="512px"
	height="512px"
	viewBox="0 0 512 512"
	enable-background="new 0 0 512 512"
	xml:space="preserve"
>
	<g id="Grid">
		<rect x="0" fill="none" stroke="#A9CCDB" stroke-miterlimit="10" width="512" height="512"/>
		<line fill="none" stroke="#A9CCDB" stroke-miterlimit="10" x1="0" y1="32" x2="512" y2="32"/>
		<line fill="none" stroke="#A9CCDB" stroke-miterlimit="10" x1="0" y1="64" x2="512" y2="64"/>
		<line fill="none" stroke="#A9CCDB" stroke-miterlimit="10" x1="0" y1="96" x2="512" y2="96"/>
		<line fill="none" stroke="#A9CCDB" stroke-miterlimit="10" x1="0" y1="128" x2="512" y2="128"/>
		<line fill="none" stroke="#A9CCDB" stroke-miterlimit="10" x1="0" y1="160" x2="512" y2="160"/>
		<line fill="none" stroke="#A9CCDB" stroke-miterlimit="10" x1="0" y1="192" x2="512" y2="192"/>
		<line fill="none" stroke="#A9CCDB" stroke-miterlimit="10" x1="0" y1="224" x2="512" y2="224"/>
		<line fill="none" stroke="#A9CCDB" stroke-miterlimit="10" x1="0" y1="256" x2="512" y2="256"/>
		<line fill="none" stroke="#A9CCDB" stroke-miterlimit="10" x1="0" y1="288" x2="512" y2="288"/>
		<line fill="none" stroke="#A9CCDB" stroke-miterlimit="10" x1="0" y1="320" x2="512" y2="320"/>
		<line fill="none" stroke="#A9CCDB" stroke-miterlimit="10" x1="0" y1="352" x2="512" y2="352"/>
		<line fill="none" stroke="#A9CCDB" stroke-miterlimit="10" x1="0" y1="384" x2="512" y2="384"/>
		<line fill="none" stroke="#A9CCDB" stroke-miterlimit="10" x1="0" y1="416" x2="512" y2="416"/>
		<line fill="none" stroke="#FF0000" stroke-miterlimit="10" x1="0" y1="448" x2="512" y2="448"/>
		<line fill="none" stroke="#A9CCDB" stroke-miterlimit="10" x1="0" y1="480" x2="512" y2="480"/>
		<line fill="none" stroke="#A9CCDB" stroke-miterlimit="10" x1="32" y1="0" x2="32" y2="512"/>
		<line fill="none" stroke="#A9CCDB" stroke-miterlimit="10" x1="64" y1="0" x2="64" y2="512"/>
		<line fill="none" stroke="#A9CCDB" stroke-miterlimit="10" x1="96" y1="0" x2="96" y2="512"/>
		<line fill="none" stroke="#A9CCDB" stroke-miterlimit="10" x1="128" y1="0" x2="128" y2="512"/>
		<line fill="none" stroke="#A9CCDB" stroke-miterlimit="10" x1="160" y1="0" x2="160" y2="512"/>
		<line fill="none" stroke="#A9CCDB" stroke-miterlimit="10" x1="192" y1="0" x2="192" y2="512"/>
		<line fill="none" stroke="#A9CCDB" stroke-miterlimit="10" x1="224" y1="0" x2="224" y2="512"/>
		<line fill="none" stroke="#A9CCDB" stroke-miterlimit="10" x1="256" y1="0" x2="256" y2="512"/>
		<line fill="none" stroke="#A9CCDB" stroke-miterlimit="10" x1="288" y1="0" x2="288" y2="512"/>
		<line fill="none" stroke="#A9CCDB" stroke-miterlimit="10" x1="320" y1="0" x2="320" y2="512"/>
		<line fill="none" stroke="#A9CCDB" stroke-miterlimit="10" x1="352" y1="0" x2="352" y2="512"/>
		<line fill="none" stroke="#A9CCDB" stroke-miterlimit="10" x1="384" y1="0" x2="384" y2="512"/>
		<line fill="none" stroke="#A9CCDB" stroke-miterlimit="10" x1="416" y1="0" x2="416" y2="512"/>
		<line fill="none" stroke="#A9CCDB" stroke-miterlimit="10" x1="448" y1="0" x2="448" y2="512"/>
		<line fill="none" stroke="#A9CCDB" stroke-miterlimit="10" x1="480" y1="0" x2="480" y2="512"/>
	</g>
	<path d="M142.108 211.863c-3.02 0.761 -6.085 1.431 -9.275 1.896c-38.249 5.62 -72.648 -12.92 -76.826 -41.405l138.507 -20.333 c1.771 11.966 -2.157 23.761 -10.059 33.866c16.894 -7.084 35.194 -11.398 54.381 -12.419c4.791 -16.349 6.29 -33.946 3.656 -51.906 C232.717 54.965 170.786 8.906 104.189 18.681C37.593 28.467 -8.467 90.375 1.308 156.983c7.97 54.256 50.544 94.866 102.064 102.767 C113.181 241.404 126.373 225.169 142.108 211.863zM154.574 75.173c10.876 -1.589 20.981 5.926 22.593 16.803 c1.589 10.876 -5.927 21.002 -16.814 22.592c-10.887 1.612 -20.992 -5.915 -22.593 -16.802C136.159 86.89 143.686 76.774 154.574 75.173zM72.185 87.275c10.887 -1.6 20.992 5.927 22.581 16.803c1.612 10.888 -5.927 21.003 -16.802 22.592 c-10.876 1.601 -20.992 -5.926 -22.593 -16.802C53.782 98.992 61.297 88.865 72.185 87.275zM402.853 18.057 c-66.948 -7.039 -126.915 41.529 -133.965 108.478c-1.782 16.939 0.057 33.435 4.802 48.75c51.917 8.298 95.57 40.961 119.026 85.805 c60.521 -1.227 112.121 -47.296 118.604 -109.068C518.369 85.073 469.802 25.095 402.853 18.057zM415.772 103 c1.146 -10.933 10.933 -18.868 21.878 -17.722c10.943 1.158 18.868 10.944 17.733 21.889c-1.158 10.933 -10.944 18.868 -21.89 17.71 C422.551 123.742 414.614 113.933 415.772 103zM332.953 94.292c1.157 -10.944 10.955 -18.869 21.889 -17.722 c10.943 1.146 18.867 10.944 17.722 21.877c-1.147 10.944 -10.945 18.88 -21.889 17.722 C339.731 115.022 331.817 105.225 332.953 94.292zM382.235 214.146c-38.451 -4.042 -67.175 -30.528 -64.166 -59.161l139.222 14.646 C454.282 198.251 420.666 218.187 382.235 214.146zM248.758 193.585c-79.084 -1.021 -144.036 62.26 -145.057 141.346 c-1.033 79.085 62.271 144.024 141.356 145.058c79.074 1.01 144.024 -62.271 145.047 -141.345 C391.126 259.558 327.845 194.607 248.758 193.585zM296.714 268.492c12.92 0.159 23.239 10.774 23.093 23.694 c-0.172 12.92 -10.786 23.262 -23.706 23.093c-12.92 -0.172 -23.263 -10.775 -23.092 -23.694 C273.19 278.654 283.794 268.322 296.714 268.492zM198.885 267.221c12.919 0.159 23.25 10.774 23.08 23.705 c-0.159 12.92 -10.763 23.252 -23.683 23.08c-12.942 -0.169 -23.262 -10.773 -23.092 -23.693 C175.35 277.393 185.965 267.051 198.885 267.221zM245.761 425.222c-45.423 -0.579 -81.888 -28.485 -81.446 -62.295l164.459 2.135 C328.344 398.871 291.174 425.812 245.761 425.222z"/>
</svg>
