<?xml version="1.0" encoding="utf-8"?>
<!DOCTYPE svg PUBLIC "-//W3C//DTD SVG 1.1//EN" "http://www.w3.org/Graphics/SVG/1.1/DTD/svg11.dtd">
<svg
	version="1.1"
	id="Layer_1"
	xmlns="http://www.w3.org/2000/svg"
	xmlns:xlink="http://www.w3.org/1999/xlink"
	x="0px"
	y="0px"
	width="512px"
	height="512px"
	viewBox="0 0 512 512"
	enable-background="new 0 0 512 512"
	xml:space="preserve"
>
	<g id="Grid">
		<rect x="0" fill="none" stroke="#A9CCDB" stroke-miterlimit="10" width="512" height="512"/>
		<line fill="none" stroke="#A9CCDB" stroke-miterlimit="10" x1="0" y1="32" x2="512" y2="32"/>
		<line fill="none" stroke="#A9CCDB" stroke-miterlimit="10" x1="0" y1="64" x2="512" y2="64"/>
		<line fill="none" stroke="#A9CCDB" stroke-miterlimit="10" x1="0" y1="96" x2="512" y2="96"/>
		<line fill="none" stroke="#A9CCDB" stroke-miterlimit="10" x1="0" y1="128" x2="512" y2="128"/>
		<line fill="none" stroke="#A9CCDB" stroke-miterlimit="10" x1="0" y1="160" x2="512" y2="160"/>
		<line fill="none" stroke="#A9CCDB" stroke-miterlimit="10" x1="0" y1="192" x2="512" y2="192"/>
		<line fill="none" stroke="#A9CCDB" stroke-miterlimit="10" x1="0" y1="224" x2="512" y2="224"/>
		<line fill="none" stroke="#A9CCDB" stroke-miterlimit="10" x1="0" y1="256" x2="512" y2="256"/>
		<line fill="none" stroke="#A9CCDB" stroke-miterlimit="10" x1="0" y1="288" x2="512" y2="288"/>
		<line fill="none" stroke="#A9CCDB" stroke-miterlimit="10" x1="0" y1="320" x2="512" y2="320"/>
		<line fill="none" stroke="#A9CCDB" stroke-miterlimit="10" x1="0" y1="352" x2="512" y2="352"/>
		<line fill="none" stroke="#A9CCDB" stroke-miterlimit="10" x1="0" y1="384" x2="512" y2="384"/>
		<line fill="none" stroke="#A9CCDB" stroke-miterlimit="10" x1="0" y1="416" x2="512" y2="416"/>
		<line fill="none" stroke="#FF0000" stroke-miterlimit="10" x1="0" y1="448" x2="512" y2="448"/>
		<line fill="none" stroke="#A9CCDB" stroke-miterlimit="10" x1="0" y1="480" x2="512" y2="480"/>
		<line fill="none" stroke="#A9CCDB" stroke-miterlimit="10" x1="32" y1="0" x2="32" y2="512"/>
		<line fill="none" stroke="#A9CCDB" stroke-miterlimit="10" x1="64" y1="0" x2="64" y2="512"/>
		<line fill="none" stroke="#A9CCDB" stroke-miterlimit="10" x1="96" y1="0" x2="96" y2="512"/>
		<line fill="none" stroke="#A9CCDB" stroke-miterlimit="10" x1="128" y1="0" x2="128" y2="512"/>
		<line fill="none" stroke="#A9CCDB" stroke-miterlimit="10" x1="160" y1="0" x2="160" y2="512"/>
		<line fill="none" stroke="#A9CCDB" stroke-miterlimit="10" x1="192" y1="0" x2="192" y2="512"/>
		<line fill="none" stroke="#A9CCDB" stroke-miterlimit="10" x1="224" y1="0" x2="224" y2="512"/>
		<line fill="none" stroke="#A9CCDB" stroke-miterlimit="10" x1="256" y1="0" x2="256" y2="512"/>
		<line fill="none" stroke="#A9CCDB" stroke-miterlimit="10" x1="288" y1="0" x2="288" y2="512"/>
		<line fill="none" stroke="#A9CCDB" stroke-miterlimit="10" x1="320" y1="0" x2="320" y2="512"/>
		<line fill="none" stroke="#A9CCDB" stroke-miterlimit="10" x1="352" y1="0" x2="352" y2="512"/>
		<line fill="none" stroke="#A9CCDB" stroke-miterlimit="10" x1="384" y1="0" x2="384" y2="512"/>
		<line fill="none" stroke="#A9CCDB" stroke-miterlimit="10" x1="416" y1="0" x2="416" y2="512"/>
		<line fill="none" stroke="#A9CCDB" stroke-miterlimit="10" x1="448" y1="0" x2="448" y2="512"/>
		<line fill="none" stroke="#A9CCDB" stroke-miterlimit="10" x1="480" y1="0" x2="480" y2="512"/>
	</g>
	<path d="M256 0.66699999999997C114.984 0.66699999999997 0.667 114.985 0.667 256c0 141.032 114.318 255.333 255.333 255.333 c141.014 0 255.334 -114.301 255.334 -255.333C511.334 114.985 397.014 0.66699999999997 256 0.66699999999997zM256 460.266 C143.36 460.266 51.733 368.64 51.733 256C51.733 143.378 143.36 51.733 256 51.733c112.624 0 204.266 91.645 204.266 204.267 C460.266 368.64 368.623 460.266 256 460.266zM248.153 102.966V77.434c0 -4.705 3.808 -8.512 8.512 -8.512 c4.687 0 8.511 3.807 8.511 8.512v25.533c0 4.688 -3.824 8.511 -8.511 8.511C251.96 111.478 248.153 107.655 248.153 102.966zM443.775 256.033c0 4.705 -3.807 8.511 -8.512 8.511h-25.531c-4.689 0 -8.512 -3.806 -8.512 -8.511c0 -4.687 3.822 -8.511 8.512 -8.511 h25.531C439.969 247.522 443.775 251.346 443.775 256.033zM103.581 264.544H78.047c-4.704 0 -8.51 -3.806 -8.51 -8.511 c0 -4.687 3.806 -8.511 8.51 -8.511h25.534c4.705 0 8.511 3.824 8.511 8.511C112.092 260.738 108.286 264.544 103.581 264.544zM394.904 189.757l23.604 -9.742c4.34 -1.812 9.311 0.266 11.105 4.605c1.797 4.339 -0.266 9.326 -4.621 11.122l-23.588 9.74 c-4.34 1.796 -9.326 -0.282 -11.121 -4.621C388.488 196.522 390.564 191.552 394.904 189.757zM123.03 311.206 c1.795 4.338 -0.267 9.325 -4.605 11.121l-23.604 9.74c-4.356 1.797 -9.327 -0.282 -11.122 -4.621c-1.796 -4.338 0.266 -9.309 4.622 -11.104 l23.605 -9.758C116.265 304.806 121.251 306.866 123.03 311.206zM307.998 111.578l9.875 -23.555 c1.809 -4.339 6.797 -6.367 11.135 -4.555c4.322 1.812 6.385 6.799 4.557 11.138l-9.875 23.555c-1.812 4.322 -6.797 6.366 -11.137 4.554 C308.229 120.903 306.186 115.917 307.998 111.578zM388.303 135.764l-18.051 18.054c-3.326 3.324 -8.713 3.324 -12.035 0 c-3.324 -3.325 -3.324 -8.711 0 -12.036l18.051 -18.053c3.328 -3.324 8.729 -3.324 12.035 0 C391.627 127.037 391.627 132.439 388.303 135.764zM123.03 200.861c-1.779 4.339 -6.766 6.417 -11.104 4.621l-23.605 -9.74 c-4.356 -1.795 -6.417 -6.782 -4.622 -11.122c1.795 -4.339 6.766 -6.417 11.122 -4.605l23.604 9.742 C122.764 191.552 124.826 196.522 123.03 200.861zM429.613 327.446c-1.795 4.339 -6.766 6.418 -11.105 4.621l-23.604 -9.74 c-4.34 -1.796 -6.416 -6.783 -4.621 -11.121c1.795 -4.34 6.781 -6.4 11.121 -4.621l23.588 9.758 C429.348 318.138 431.41 323.108 429.613 327.446zM189.623 118.161l-9.874 -23.555c-1.812 -4.339 0.232 -9.326 4.555 -11.138 c4.339 -1.812 9.327 0.216 11.154 4.555l9.874 23.555c1.812 4.339 -0.232 9.326 -4.571 11.137 C196.438 124.527 191.435 122.482 189.623 118.161zM155.096 141.781c3.325 3.325 3.325 8.711 0 12.036 c-3.308 3.324 -8.71 3.324 -12.035 0l-18.053 -18.054c-3.324 -3.324 -3.324 -8.727 0 -12.035c3.326 -3.324 8.711 -3.324 12.036 0 L155.096 141.781zM319.773 378.251v12.044c0 14.112 -11.438 25.532 -25.533 25.532h-77.152c-14.114 0 -25.534 -11.42 -25.534 -25.532 v-12.044c0 -14.096 11.42 -25.533 25.534 -25.533h77.152C308.336 352.718 319.773 364.155 319.773 378.251zM373.405 177.179 c1.963 3.649 0.99 8.094 -2.1 10.636l-73.518 60.638c1.34 7.535 0.787 15.512 -2.259 23.137 c-8.719 21.828 -33.477 32.453 -55.306 23.734c-21.828 -8.717 -32.454 -33.475 -23.735 -55.304c8.712 -21.812 33.476 -32.453 55.305 -23.734 c1.914 0.764 3.628 1.807 5.375 2.809l84.657 -45.413C365.995 171.446 371.167 173.009 373.405 177.179z"/>
</svg>
