<?xml version="1.0" encoding="utf-8"?>
<!DOCTYPE svg PUBLIC "-//W3C//DTD SVG 1.1//EN" "http://www.w3.org/Graphics/SVG/1.1/DTD/svg11.dtd">
<svg
	version="1.1"
	id="Layer_1"
	xmlns="http://www.w3.org/2000/svg"
	xmlns:xlink="http://www.w3.org/1999/xlink"
	x="0px"
	y="0px"
	width="512px"
	height="512px"
	viewBox="0 0 512 512"
	enable-background="new 0 0 512 512"
	xml:space="preserve"
>
	<g id="Grid">
		<rect x="0" fill="none" stroke="#A9CCDB" stroke-miterlimit="10" width="512" height="512"/>
		<line fill="none" stroke="#A9CCDB" stroke-miterlimit="10" x1="0" y1="32" x2="512" y2="32"/>
		<line fill="none" stroke="#A9CCDB" stroke-miterlimit="10" x1="0" y1="64" x2="512" y2="64"/>
		<line fill="none" stroke="#A9CCDB" stroke-miterlimit="10" x1="0" y1="96" x2="512" y2="96"/>
		<line fill="none" stroke="#A9CCDB" stroke-miterlimit="10" x1="0" y1="128" x2="512" y2="128"/>
		<line fill="none" stroke="#A9CCDB" stroke-miterlimit="10" x1="0" y1="160" x2="512" y2="160"/>
		<line fill="none" stroke="#A9CCDB" stroke-miterlimit="10" x1="0" y1="192" x2="512" y2="192"/>
		<line fill="none" stroke="#A9CCDB" stroke-miterlimit="10" x1="0" y1="224" x2="512" y2="224"/>
		<line fill="none" stroke="#A9CCDB" stroke-miterlimit="10" x1="0" y1="256" x2="512" y2="256"/>
		<line fill="none" stroke="#A9CCDB" stroke-miterlimit="10" x1="0" y1="288" x2="512" y2="288"/>
		<line fill="none" stroke="#A9CCDB" stroke-miterlimit="10" x1="0" y1="320" x2="512" y2="320"/>
		<line fill="none" stroke="#A9CCDB" stroke-miterlimit="10" x1="0" y1="352" x2="512" y2="352"/>
		<line fill="none" stroke="#A9CCDB" stroke-miterlimit="10" x1="0" y1="384" x2="512" y2="384"/>
		<line fill="none" stroke="#A9CCDB" stroke-miterlimit="10" x1="0" y1="416" x2="512" y2="416"/>
		<line fill="none" stroke="#FF0000" stroke-miterlimit="10" x1="0" y1="448" x2="512" y2="448"/>
		<line fill="none" stroke="#A9CCDB" stroke-miterlimit="10" x1="0" y1="480" x2="512" y2="480"/>
		<line fill="none" stroke="#A9CCDB" stroke-miterlimit="10" x1="32" y1="0" x2="32" y2="512"/>
		<line fill="none" stroke="#A9CCDB" stroke-miterlimit="10" x1="64" y1="0" x2="64" y2="512"/>
		<line fill="none" stroke="#A9CCDB" stroke-miterlimit="10" x1="96" y1="0" x2="96" y2="512"/>
		<line fill="none" stroke="#A9CCDB" stroke-miterlimit="10" x1="128" y1="0" x2="128" y2="512"/>
		<line fill="none" stroke="#A9CCDB" stroke-miterlimit="10" x1="160" y1="0" x2="160" y2="512"/>
		<line fill="none" stroke="#A9CCDB" stroke-miterlimit="10" x1="192" y1="0" x2="192" y2="512"/>
		<line fill="none" stroke="#A9CCDB" stroke-miterlimit="10" x1="224" y1="0" x2="224" y2="512"/>
		<line fill="none" stroke="#A9CCDB" stroke-miterlimit="10" x1="256" y1="0" x2="256" y2="512"/>
		<line fill="none" stroke="#A9CCDB" stroke-miterlimit="10" x1="288" y1="0" x2="288" y2="512"/>
		<line fill="none" stroke="#A9CCDB" stroke-miterlimit="10" x1="320" y1="0" x2="320" y2="512"/>
		<line fill="none" stroke="#A9CCDB" stroke-miterlimit="10" x1="352" y1="0" x2="352" y2="512"/>
		<line fill="none" stroke="#A9CCDB" stroke-miterlimit="10" x1="384" y1="0" x2="384" y2="512"/>
		<line fill="none" stroke="#A9CCDB" stroke-miterlimit="10" x1="416" y1="0" x2="416" y2="512"/>
		<line fill="none" stroke="#A9CCDB" stroke-miterlimit="10" x1="448" y1="0" x2="448" y2="512"/>
		<line fill="none" stroke="#A9CCDB" stroke-miterlimit="10" x1="480" y1="0" x2="480" y2="512"/>
	</g>
	<path d="M492.909 109.114c24.705 -24.697 24.705 -64.756 0 -89.461c-24.681 -24.697 -64.772 -24.697 -89.445 0 l-32.047 32.031l89.453 89.461L492.909 109.114zM504.896 403.461l-27.096 -27.095l-46.483 46.484c-1.653 1.653 -3.819 2.48 -5.985 2.48 c-2.167 0 -4.333 -0.827 -5.986 -2.48c-3.308 -3.308 -3.308 -8.666 0 -11.973l46.483 -46.484l-30.36 -30.36l-21.084 21.084 c-1.654 1.654 -3.82 2.48 -5.986 2.48s-4.332 -0.826 -5.986 -2.48c-3.307 -3.307 -3.307 -8.665 0 -11.972l21.084 -21.084l-30.36 -30.36 l-46.483 46.483c-1.654 1.653 -3.82 2.48 -5.986 2.48s-4.333 -0.827 -5.986 -2.48c-3.307 -3.308 -3.307 -8.665 0 -11.973l46.482 -46.483 l-29.922 -29.922l94.778 -94.777l-89.453 -89.461l-94.786 94.785l-33.742 -33.75l-50.717 50.717c-1.653 1.654 -3.82 2.48 -5.986 2.48 c-2.167 0 -4.333 -0.827 -5.986 -2.48c-3.307 -3.307 -3.307 -8.665 0 -11.972l50.717 -50.717L185.704 84.27l-25.317 25.317 c-1.654 1.653 -3.82 2.48 -5.986 2.48c-2.167 0 -4.333 -0.827 -5.986 -2.48c-3.307 -3.308 -3.307 -8.665 0 -11.972l25.317 -25.317 l-30.36 -30.36L92.655 92.654c-1.654 1.653 -3.82 2.48 -5.986 2.48c-2.166 0 -4.333 -0.827 -5.986 -2.48 c-3.308 -3.308 -3.308 -8.665 0 -11.973l50.717 -50.717L108.539 7.103c-6.797 -6.805 -17.827 -6.805 -24.624 0L7.104 83.906 c-6.797 6.813 -6.797 17.834 0 24.639l153.241 153.242L46.146 375.994c-7.764 7.765 -13.08 17.032 -15.966 26.863 c-0.579 1.902 -23.34 76.629 -26.979 87.229c-3.704 10.73 5.192 22.736 18.537 19.314c23.167 -5.945 85.583 -27.607 85.583 -27.607 l-0.041 -0.042c10.368 -2.777 20.174 -8.177 28.31 -16.305l114.216 -114.208l153.655 153.664c6.796 6.796 17.826 6.796 24.622 0 l76.812 -76.812C511.692 421.287 511.692 410.266 504.896 403.461zM125.281 370.811c-2.48 2.48 -5.729 3.721 -8.979 3.721 c-3.249 0 -6.499 -1.24 -8.979 -3.721c-4.961 -4.961 -4.961 -12.998 0 -17.958l211.664 -211.665c4.961 -4.961 12.998 -4.961 17.959 0 s4.961 12.998 0 17.958L125.281 370.811z"/>
</svg>
