<?xml version="1.0" encoding="utf-8"?>
<!DOCTYPE svg PUBLIC "-//W3C//DTD SVG 1.1//EN" "http://www.w3.org/Graphics/SVG/1.1/DTD/svg11.dtd">
<svg
	version="1.1"
	id="Layer_1"
	xmlns="http://www.w3.org/2000/svg"
	xmlns:xlink="http://www.w3.org/1999/xlink"
	x="0px"
	y="0px"
	width="512px"
	height="512px"
	viewBox="0 0 512 512"
	enable-background="new 0 0 512 512"
	xml:space="preserve"
>
	<g id="Grid">
		<rect x="0" fill="none" stroke="#A9CCDB" stroke-miterlimit="10" width="512" height="512"/>
		<line fill="none" stroke="#A9CCDB" stroke-miterlimit="10" x1="0" y1="32" x2="512" y2="32"/>
		<line fill="none" stroke="#A9CCDB" stroke-miterlimit="10" x1="0" y1="64" x2="512" y2="64"/>
		<line fill="none" stroke="#A9CCDB" stroke-miterlimit="10" x1="0" y1="96" x2="512" y2="96"/>
		<line fill="none" stroke="#A9CCDB" stroke-miterlimit="10" x1="0" y1="128" x2="512" y2="128"/>
		<line fill="none" stroke="#A9CCDB" stroke-miterlimit="10" x1="0" y1="160" x2="512" y2="160"/>
		<line fill="none" stroke="#A9CCDB" stroke-miterlimit="10" x1="0" y1="192" x2="512" y2="192"/>
		<line fill="none" stroke="#A9CCDB" stroke-miterlimit="10" x1="0" y1="224" x2="512" y2="224"/>
		<line fill="none" stroke="#A9CCDB" stroke-miterlimit="10" x1="0" y1="256" x2="512" y2="256"/>
		<line fill="none" stroke="#A9CCDB" stroke-miterlimit="10" x1="0" y1="288" x2="512" y2="288"/>
		<line fill="none" stroke="#A9CCDB" stroke-miterlimit="10" x1="0" y1="320" x2="512" y2="320"/>
		<line fill="none" stroke="#A9CCDB" stroke-miterlimit="10" x1="0" y1="352" x2="512" y2="352"/>
		<line fill="none" stroke="#A9CCDB" stroke-miterlimit="10" x1="0" y1="384" x2="512" y2="384"/>
		<line fill="none" stroke="#A9CCDB" stroke-miterlimit="10" x1="0" y1="416" x2="512" y2="416"/>
		<line fill="none" stroke="#FF0000" stroke-miterlimit="10" x1="0" y1="448" x2="512" y2="448"/>
		<line fill="none" stroke="#A9CCDB" stroke-miterlimit="10" x1="0" y1="480" x2="512" y2="480"/>
		<line fill="none" stroke="#A9CCDB" stroke-miterlimit="10" x1="32" y1="0" x2="32" y2="512"/>
		<line fill="none" stroke="#A9CCDB" stroke-miterlimit="10" x1="64" y1="0" x2="64" y2="512"/>
		<line fill="none" stroke="#A9CCDB" stroke-miterlimit="10" x1="96" y1="0" x2="96" y2="512"/>
		<line fill="none" stroke="#A9CCDB" stroke-miterlimit="10" x1="128" y1="0" x2="128" y2="512"/>
		<line fill="none" stroke="#A9CCDB" stroke-miterlimit="10" x1="160" y1="0" x2="160" y2="512"/>
		<line fill="none" stroke="#A9CCDB" stroke-miterlimit="10" x1="192" y1="0" x2="192" y2="512"/>
		<line fill="none" stroke="#A9CCDB" stroke-miterlimit="10" x1="224" y1="0" x2="224" y2="512"/>
		<line fill="none" stroke="#A9CCDB" stroke-miterlimit="10" x1="256" y1="0" x2="256" y2="512"/>
		<line fill="none" stroke="#A9CCDB" stroke-miterlimit="10" x1="288" y1="0" x2="288" y2="512"/>
		<line fill="none" stroke="#A9CCDB" stroke-miterlimit="10" x1="320" y1="0" x2="320" y2="512"/>
		<line fill="none" stroke="#A9CCDB" stroke-miterlimit="10" x1="352" y1="0" x2="352" y2="512"/>
		<line fill="none" stroke="#A9CCDB" stroke-miterlimit="10" x1="384" y1="0" x2="384" y2="512"/>
		<line fill="none" stroke="#A9CCDB" stroke-miterlimit="10" x1="416" y1="0" x2="416" y2="512"/>
		<line fill="none" stroke="#A9CCDB" stroke-miterlimit="10" x1="448" y1="0" x2="448" y2="512"/>
		<line fill="none" stroke="#A9CCDB" stroke-miterlimit="10" x1="480" y1="0" x2="480" y2="512"/>
	</g>
	<path d="M396.339 282.338c-7.204 0 -14.151 0.894 -20.915 2.31c-0.257 0.033 -0.405 -0.058 -0.687 0.017 c-8.472 2.053 -19.268 -1.159 -25.468 -7.353L234.681 162.707c-6.202 -6.202 -9.407 -17.205 -7.344 -25.675 c0.04 -0.166 -0.017 -0.249 0.008 -0.406c1.425 -6.781 2.327 -13.744 2.327 -20.964c0 -62.957 -51.052 -114.009 -114.025 -114.009 c-9.149 0 -18 1.192 -26.528 3.229l57.633 57.626l-17.735 66.204l-66.195 17.735L5.015 88.629c-2.12 8.686 -3.361 17.694 -3.361 27.033 c0 62.958 51.043 114.009 113.993 114.009c7.327 0 14.39 -0.927 21.261 -2.385c0.149 -0.025 0.231 0.033 0.397 -0.009 c8.479 -2.061 19.226 1.243 25.435 7.444L278.007 349.99c5.713 6.308 8.61 16.724 6.631 24.854 c-0.057 0.248 0.025 0.382 -0.008 0.613c-1.415 6.756 -2.309 13.694 -2.309 20.881c0 62.975 51.059 114.009 114.018 114.009 c9.33 0 18.348 -1.241 27.032 -3.362l-57.602 -57.601l17.719 -66.193l66.203 -17.735l57.426 57.42 c2.038 -8.528 3.229 -17.388 3.229 -26.537C510.347 333.38 459.295 282.338 396.339 282.338zM91.124 474.001c-3.427 3.44 -9.452 2.964 -13.458 -1.038c-4.004 -4.028 -4.472 -10.067 -1.044 -13.499L211.386 324.38 l-23.199 -23.257L53.426 436.219c-3.426 3.426 -9.45 2.955 -13.461 -1.049c-4.008 -4.013 -4.471 -10.067 -1.043 -13.479l134.763 -135.093 l-20.244 -20.287L8.395 411.707c-15.014 15.034 -6.423 48.017 19.174 73.667c25.591 25.651 58.499 34.268 73.513 19.223 L246.13 359.208l-20.237 -20.291L91.124 474.001zM384.822 167.099L428.135 155.468L512 35.649L476.321 -0.12200000000001L356.771 83.94L345.152 127.344L293.059 179.56L332.737 219.314Z"/>
</svg>
