<?xml version="1.0" encoding="utf-8"?>
<!DOCTYPE svg PUBLIC "-//W3C//DTD SVG 1.1//EN" "http://www.w3.org/Graphics/SVG/1.1/DTD/svg11.dtd">
<svg
	version="1.1"
	id="Layer_1"
	xmlns="http://www.w3.org/2000/svg"
	xmlns:xlink="http://www.w3.org/1999/xlink"
	x="0px"
	y="0px"
	width="512px"
	height="512px"
	viewBox="0 0 512 512"
	enable-background="new 0 0 512 512"
	xml:space="preserve"
>
	<g id="Grid">
		<rect x="0" fill="none" stroke="#A9CCDB" stroke-miterlimit="10" width="512" height="512"/>
		<line fill="none" stroke="#A9CCDB" stroke-miterlimit="10" x1="0" y1="32" x2="512" y2="32"/>
		<line fill="none" stroke="#A9CCDB" stroke-miterlimit="10" x1="0" y1="64" x2="512" y2="64"/>
		<line fill="none" stroke="#A9CCDB" stroke-miterlimit="10" x1="0" y1="96" x2="512" y2="96"/>
		<line fill="none" stroke="#A9CCDB" stroke-miterlimit="10" x1="0" y1="128" x2="512" y2="128"/>
		<line fill="none" stroke="#A9CCDB" stroke-miterlimit="10" x1="0" y1="160" x2="512" y2="160"/>
		<line fill="none" stroke="#A9CCDB" stroke-miterlimit="10" x1="0" y1="192" x2="512" y2="192"/>
		<line fill="none" stroke="#A9CCDB" stroke-miterlimit="10" x1="0" y1="224" x2="512" y2="224"/>
		<line fill="none" stroke="#A9CCDB" stroke-miterlimit="10" x1="0" y1="256" x2="512" y2="256"/>
		<line fill="none" stroke="#A9CCDB" stroke-miterlimit="10" x1="0" y1="288" x2="512" y2="288"/>
		<line fill="none" stroke="#A9CCDB" stroke-miterlimit="10" x1="0" y1="320" x2="512" y2="320"/>
		<line fill="none" stroke="#A9CCDB" stroke-miterlimit="10" x1="0" y1="352" x2="512" y2="352"/>
		<line fill="none" stroke="#A9CCDB" stroke-miterlimit="10" x1="0" y1="384" x2="512" y2="384"/>
		<line fill="none" stroke="#A9CCDB" stroke-miterlimit="10" x1="0" y1="416" x2="512" y2="416"/>
		<line fill="none" stroke="#FF0000" stroke-miterlimit="10" x1="0" y1="448" x2="512" y2="448"/>
		<line fill="none" stroke="#A9CCDB" stroke-miterlimit="10" x1="0" y1="480" x2="512" y2="480"/>
		<line fill="none" stroke="#A9CCDB" stroke-miterlimit="10" x1="32" y1="0" x2="32" y2="512"/>
		<line fill="none" stroke="#A9CCDB" stroke-miterlimit="10" x1="64" y1="0" x2="64" y2="512"/>
		<line fill="none" stroke="#A9CCDB" stroke-miterlimit="10" x1="96" y1="0" x2="96" y2="512"/>
		<line fill="none" stroke="#A9CCDB" stroke-miterlimit="10" x1="128" y1="0" x2="128" y2="512"/>
		<line fill="none" stroke="#A9CCDB" stroke-miterlimit="10" x1="160" y1="0" x2="160" y2="512"/>
		<line fill="none" stroke="#A9CCDB" stroke-miterlimit="10" x1="192" y1="0" x2="192" y2="512"/>
		<line fill="none" stroke="#A9CCDB" stroke-miterlimit="10" x1="224" y1="0" x2="224" y2="512"/>
		<line fill="none" stroke="#A9CCDB" stroke-miterlimit="10" x1="256" y1="0" x2="256" y2="512"/>
		<line fill="none" stroke="#A9CCDB" stroke-miterlimit="10" x1="288" y1="0" x2="288" y2="512"/>
		<line fill="none" stroke="#A9CCDB" stroke-miterlimit="10" x1="320" y1="0" x2="320" y2="512"/>
		<line fill="none" stroke="#A9CCDB" stroke-miterlimit="10" x1="352" y1="0" x2="352" y2="512"/>
		<line fill="none" stroke="#A9CCDB" stroke-miterlimit="10" x1="384" y1="0" x2="384" y2="512"/>
		<line fill="none" stroke="#A9CCDB" stroke-miterlimit="10" x1="416" y1="0" x2="416" y2="512"/>
		<line fill="none" stroke="#A9CCDB" stroke-miterlimit="10" x1="448" y1="0" x2="448" y2="512"/>
		<line fill="none" stroke="#A9CCDB" stroke-miterlimit="10" x1="480" y1="0" x2="480" y2="512"/>
	</g>
	<path d="M448 64h-64c0 -35.376 -28.624 -64 -64 -64H192c-35.376 0 -64 28.624 -64 64H64H0v64h64v288c0 52.992 43.008 96 96 96h192 c52.992 0 96 -43.008 96 -96V128h64V64H448zM224.25 352.789h-0.27c0 0.006 -0.001 0.012 -0.001 0.017 c-0.013 0.535 -0.039 1.066 -0.078 1.594c0 0.001 0 0.003 0 0.004c-0.793 10.68 -6.815 19.895 -15.523 25.091 c-0.012 0.008 -0.024 0.014 -0.036 0.021c-0.422 0.251 -0.849 0.494 -1.283 0.726c-0.03 0.016 -0.061 0.03 -0.091 0.047 c-0.417 0.221 -0.839 0.435 -1.267 0.638c-0.051 0.024 -0.104 0.046 -0.156 0.07c-0.409 0.191 -0.821 0.377 -1.239 0.551 c-0.077 0.032 -0.155 0.061 -0.232 0.092c-0.396 0.161 -0.794 0.319 -1.199 0.465c-0.104 0.038 -0.209 0.07 -0.313 0.106 c-0.382 0.133 -0.764 0.265 -1.151 0.384c-0.132 0.04 -0.266 0.074 -0.398 0.112c-0.365 0.107 -0.73 0.214 -1.1 0.308 c-0.161 0.041 -0.325 0.074 -0.486 0.112c-0.346 0.082 -0.691 0.166 -1.042 0.237c-0.2 0.04 -0.403 0.07 -0.604 0.107 c-0.317 0.058 -0.633 0.119 -0.953 0.168c-0.254 0.038 -0.511 0.064 -0.767 0.097c-0.272 0.035 -0.542 0.075 -0.816 0.103 c-0.326 0.033 -0.656 0.052 -0.985 0.075c-0.208 0.015 -0.416 0.036 -0.625 0.047C193.093 383.986 192.548 384 192 384 s-1.093 -0.014 -1.634 -0.041c-0.21 -0.011 -0.417 -0.032 -0.625 -0.047c-0.329 -0.023 -0.659 -0.042 -0.985 -0.075 c-0.274 -0.027 -0.544 -0.067 -0.816 -0.103c-0.256 -0.032 -0.513 -0.059 -0.767 -0.097c-0.32 -0.049 -0.636 -0.11 -0.953 -0.168 c-0.201 -0.037 -0.404 -0.067 -0.604 -0.107c-0.35 -0.071 -0.695 -0.155 -1.042 -0.237c-0.162 -0.038 -0.326 -0.071 -0.486 -0.112 c-0.37 -0.094 -0.735 -0.2 -1.1 -0.308c-0.132 -0.038 -0.267 -0.072 -0.398 -0.112c-0.388 -0.119 -0.77 -0.251 -1.151 -0.384 c-0.104 -0.036 -0.21 -0.068 -0.313 -0.106c-0.404 -0.146 -0.802 -0.304 -1.199 -0.465c-0.077 -0.031 -0.155 -0.06 -0.232 -0.092 c-0.418 -0.174 -0.83 -0.359 -1.239 -0.551c-0.051 -0.024 -0.104 -0.046 -0.156 -0.07c-0.428 -0.203 -0.85 -0.417 -1.267 -0.638 c-0.03 -0.017 -0.061 -0.031 -0.091 -0.047c-0.434 -0.231 -0.861 -0.475 -1.283 -0.726c-0.012 -0.007 -0.024 -0.013 -0.036 -0.021 c-8.708 -5.196 -14.73 -14.411 -15.523 -25.091c0 -0.001 0 -0.003 0 -0.004c-0.039 -0.527 -0.065 -1.059 -0.078 -1.594 c0 -0.005 -0.001 -0.011 -0.001 -0.017h-0.27V223.212h0.27c0 -0.005 0 -0.011 0.001 -0.016c0.013 -0.535 0.039 -1.066 0.078 -1.595 c0 -0.001 0 -0.002 0 -0.003c0.792 -10.683 6.816 -19.899 15.528 -25.096c0 0 0 0 0 0c0.433 -0.258 0.872 -0.506 1.317 -0.745 c0.02 -0.01 0.04 -0.02 0.059 -0.03c0.427 -0.227 0.859 -0.446 1.297 -0.654c0.043 -0.02 0.087 -0.039 0.13 -0.059 c0.417 -0.196 0.838 -0.385 1.266 -0.563c0.065 -0.027 0.131 -0.051 0.196 -0.077c0.408 -0.167 0.818 -0.329 1.234 -0.479 c0.092 -0.033 0.186 -0.062 0.278 -0.094c0.393 -0.138 0.787 -0.272 1.187 -0.395c0.12 -0.037 0.243 -0.068 0.363 -0.103 c0.375 -0.11 0.751 -0.22 1.133 -0.317c0.157 -0.04 0.317 -0.072 0.476 -0.11c0.349 -0.083 0.698 -0.167 1.051 -0.239 c0.197 -0.04 0.397 -0.07 0.595 -0.106c0.32 -0.058 0.64 -0.121 0.963 -0.169c0.242 -0.037 0.488 -0.062 0.731 -0.093 c0.284 -0.036 0.566 -0.078 0.852 -0.106c0.318 -0.032 0.64 -0.051 0.961 -0.073c0.217 -0.015 0.431 -0.038 0.649 -0.049 c0.541 -0.027 1.086 -0.041 1.634 -0.041s1.093 0.014 1.634 0.041c0.218 0.011 0.432 0.034 0.649 0.049 c0.321 0.022 0.643 0.041 0.961 0.073c0.286 0.028 0.568 0.07 0.852 0.106c0.244 0.031 0.489 0.056 0.731 0.093 c0.323 0.049 0.643 0.111 0.963 0.169c0.198 0.036 0.398 0.066 0.595 0.106c0.354 0.072 0.702 0.156 1.051 0.239 c0.158 0.038 0.318 0.07 0.476 0.11c0.381 0.097 0.757 0.207 1.133 0.317c0.121 0.035 0.243 0.066 0.363 0.103 c0.4 0.123 0.794 0.257 1.187 0.395c0.092 0.033 0.187 0.061 0.278 0.094c0.416 0.15 0.826 0.312 1.234 0.479 c0.065 0.026 0.131 0.05 0.196 0.077c0.427 0.178 0.848 0.367 1.266 0.563c0.043 0.02 0.087 0.039 0.13 0.059 c0.438 0.208 0.87 0.427 1.297 0.654c0.02 0.01 0.04 0.02 0.059 0.03c0.445 0.238 0.884 0.487 1.317 0.745c0 0 0 0 0 0 c8.712 5.196 14.736 14.413 15.528 25.096c0 0.001 0 0.002 0 0.003c0.039 0.528 0.065 1.06 0.078 1.595 c0 0.005 0.001 0.011 0.001 0.016h0.27V352.789zM352.25 352.789h-0.27c0 0.006 -0.001 0.012 -0.001 0.017 c-0.013 0.535 -0.039 1.066 -0.078 1.594c0 0.001 0 0.003 -0.001 0.004c-0.753 10.147 -6.228 18.973 -14.242 24.285l0 0 c-0.42 0.277 -0.846 0.546 -1.278 0.805c-0.017 0.01 -0.034 0.02 -0.052 0.029c-0.417 0.248 -0.839 0.487 -1.268 0.717 c-0.034 0.019 -0.07 0.035 -0.104 0.054c-0.413 0.219 -0.83 0.43 -1.253 0.631c-0.057 0.027 -0.115 0.051 -0.172 0.078 c-0.404 0.188 -0.811 0.372 -1.224 0.544c-0.081 0.033 -0.163 0.063 -0.245 0.097c-0.392 0.159 -0.785 0.315 -1.186 0.46 c-0.107 0.039 -0.218 0.072 -0.327 0.11c-0.377 0.132 -0.755 0.262 -1.138 0.379c-0.136 0.042 -0.274 0.077 -0.41 0.117 c-0.361 0.105 -0.723 0.211 -1.089 0.304c-0.164 0.042 -0.332 0.075 -0.497 0.115c-0.343 0.081 -0.685 0.164 -1.031 0.234 c-0.203 0.041 -0.41 0.072 -0.614 0.109c-0.313 0.057 -0.626 0.118 -0.942 0.166c-0.256 0.038 -0.516 0.065 -0.773 0.098 c-0.271 0.034 -0.538 0.074 -0.81 0.102c-0.328 0.033 -0.659 0.052 -0.99 0.075c-0.207 0.015 -0.412 0.036 -0.621 0.047 C321.093 383.986 320.548 384 320 384s-1.093 -0.014 -1.634 -0.041c-0.209 -0.011 -0.414 -0.032 -0.621 -0.047 c-0.331 -0.023 -0.662 -0.042 -0.99 -0.075c-0.271 -0.027 -0.539 -0.067 -0.81 -0.102c-0.258 -0.032 -0.518 -0.06 -0.773 -0.098 c-0.316 -0.048 -0.629 -0.109 -0.942 -0.166c-0.204 -0.037 -0.411 -0.068 -0.614 -0.109c-0.347 -0.07 -0.688 -0.153 -1.031 -0.234 c-0.165 -0.04 -0.333 -0.073 -0.497 -0.115c-0.366 -0.093 -0.728 -0.198 -1.089 -0.304c-0.136 -0.04 -0.274 -0.075 -0.41 -0.117 c-0.383 -0.117 -0.761 -0.247 -1.138 -0.379c-0.109 -0.038 -0.22 -0.071 -0.327 -0.11c-0.4 -0.145 -0.794 -0.301 -1.186 -0.46 c-0.082 -0.033 -0.164 -0.063 -0.245 -0.097c-0.413 -0.172 -0.819 -0.355 -1.224 -0.544c-0.057 -0.027 -0.115 -0.051 -0.172 -0.078 c-0.423 -0.201 -0.84 -0.412 -1.253 -0.631c-0.034 -0.019 -0.07 -0.035 -0.104 -0.054c-0.429 -0.229 -0.851 -0.469 -1.268 -0.717 c-0.018 -0.01 -0.035 -0.02 -0.052 -0.029c-0.433 -0.259 -0.858 -0.527 -1.278 -0.805l0 0c-8.015 -5.312 -13.489 -14.138 -14.242 -24.285 c-0.001 -0.001 -0.001 -0.003 -0.001 -0.004c-0.039 -0.527 -0.065 -1.059 -0.078 -1.594c0 -0.005 -0.001 -0.011 -0.001 -0.017h-0.27V223.212h0.27 c0 -0.005 0.001 -0.011 0.001 -0.016c0.013 -0.535 0.039 -1.066 0.078 -1.595c0 -0.001 0 -0.002 0 -0.003 c0.793 -10.681 6.816 -19.897 15.526 -25.094c0.006 -0.003 0.012 -0.006 0.017 -0.01c0.428 -0.255 0.861 -0.5 1.302 -0.735 c0.024 -0.013 0.049 -0.025 0.073 -0.038c0.423 -0.224 0.85 -0.441 1.283 -0.646c0.048 -0.023 0.098 -0.043 0.146 -0.066 c0.412 -0.193 0.828 -0.38 1.249 -0.556c0.069 -0.029 0.141 -0.055 0.21 -0.083c0.403 -0.165 0.81 -0.325 1.221 -0.474 c0.097 -0.035 0.195 -0.064 0.292 -0.099c0.389 -0.136 0.778 -0.27 1.174 -0.391c0.123 -0.038 0.25 -0.07 0.375 -0.107 c0.372 -0.109 0.744 -0.217 1.121 -0.313c0.16 -0.041 0.324 -0.074 0.486 -0.112c0.346 -0.083 0.69 -0.166 1.041 -0.237 c0.2 -0.041 0.404 -0.071 0.605 -0.108c0.316 -0.058 0.632 -0.119 0.952 -0.167c0.244 -0.037 0.492 -0.062 0.738 -0.094 c0.281 -0.036 0.562 -0.077 0.846 -0.105c0.319 -0.032 0.643 -0.051 0.965 -0.074c0.215 -0.015 0.429 -0.037 0.645 -0.048 c0.541 -0.027 1.086 -0.041 1.634 -0.041s1.093 0.014 1.634 0.041c0.216 0.011 0.43 0.033 0.645 0.048 c0.322 0.023 0.646 0.042 0.965 0.074c0.284 0.028 0.564 0.07 0.846 0.105c0.246 0.032 0.494 0.057 0.738 0.094 c0.32 0.048 0.636 0.11 0.952 0.167c0.201 0.037 0.405 0.068 0.605 0.108c0.351 0.071 0.695 0.154 1.041 0.237 c0.162 0.038 0.326 0.071 0.486 0.112c0.377 0.096 0.749 0.205 1.121 0.313c0.125 0.037 0.252 0.069 0.375 0.107 c0.396 0.121 0.785 0.254 1.174 0.391c0.097 0.034 0.195 0.064 0.292 0.099c0.411 0.148 0.817 0.309 1.221 0.474 c0.069 0.028 0.141 0.054 0.21 0.083c0.421 0.175 0.837 0.363 1.249 0.556c0.049 0.022 0.099 0.043 0.146 0.066 c0.434 0.206 0.86 0.422 1.283 0.646c0.024 0.013 0.049 0.024 0.073 0.038c0.44 0.235 0.874 0.48 1.302 0.735 c0.005 0.003 0.011 0.006 0.017 0.01c8.71 5.197 14.733 14.413 15.526 25.094c0 0.001 0 0.002 0 0.003 c0.039 0.528 0.065 1.06 0.078 1.595c0 0.005 0.001 0.011 0.001 0.016h0.27V352.789z"/>
</svg>
